<svg width="101" height="128" viewBox="0 0 101 128" fill="none" xmlns="http://www.w3.org/2000/svg">
<g clip-path="url(#clip0_254_2450)">
<path fill-rule="evenodd" clip-rule="evenodd" d="M22.8128 5.77603H44.3263C45.9012 5.77603 47.1927 7.06483 47.1927 8.63654V12.6444C47.1927 14.2161 45.9012 15.5049 44.3263 15.5049H22.8128C21.2379 15.5049 19.9464 14.2161 19.9464 12.6444V8.63654C19.9464 7.06483 21.2379 5.77603 22.8128 5.77603ZM0 0H67.147V104.181H0V0ZM69.6511 0L100.606 24.5737V104.196H69.6511V0Z" fill="white"/>
<path fill-rule="evenodd" clip-rule="evenodd" d="M94.3224 118.57H91.3773V116.212H92.3223L93.4247 115.018L92.1018 113.438H91.2041V111.081H94.9997L96.3777 113.092L97.7952 111.081H100.732V113.438H99.6851L98.7165 114.523L100.142 116.212H101.008V118.57H97.2912L95.8422 116.527L94.3303 118.57H94.3224ZM79.9512 114.79C79.9512 113.69 80.4158 112.762 81.345 112.008C82.2743 111.253 83.5263 110.876 85.1012 110.876C86.6762 110.876 87.9834 111.246 88.9756 111.969C89.9678 112.699 90.4639 113.65 90.4639 114.821C90.4639 115.992 89.9914 116.896 89.0386 117.65C88.0936 118.405 86.8415 118.782 85.2824 118.782C83.6051 118.782 82.2979 118.405 81.3529 117.65C80.4158 116.904 79.9434 115.945 79.9434 114.79H79.9512ZM83.8807 114.805C83.8807 116 84.3059 116.597 85.1642 116.597C86.0698 116.597 86.5266 115.992 86.5266 114.79C86.5266 114.24 86.4163 113.815 86.1958 113.509C85.9675 113.202 85.6525 113.053 85.2351 113.053C84.8178 113.053 84.4949 113.202 84.2508 113.501C83.9988 113.8 83.8807 114.232 83.8807 114.805ZM72.0136 118.57H67.1392V116.22H68.1235V110.193H67.1235V107.835H72.0136V111.56C72.6751 111.151 73.4783 110.947 74.4154 110.947C75.6044 110.947 76.5888 111.285 77.3684 111.969C78.1479 112.644 78.5338 113.572 78.5338 114.735C78.5338 115.308 78.4393 115.835 78.2503 116.299C78.0613 116.77 77.7778 117.187 77.3999 117.564C76.6518 118.326 75.7147 118.703 74.5886 118.703C73.5885 118.703 72.7302 118.491 72.0057 118.067V118.57H72.0136ZM71.9821 114.798C71.9821 115.921 72.431 116.487 73.3287 116.487C74.1791 116.487 74.6044 115.929 74.6044 114.805C74.6044 114.271 74.4862 113.862 74.25 113.58C74.0138 113.305 73.6988 113.163 73.2972 113.163C72.8719 113.163 72.5491 113.312 72.3207 113.619C72.0924 113.933 71.9821 114.326 71.9821 114.798ZM56.5557 118.57H50.6182V116.212H51.5868V113.438H50.6182V111.081H55.469V112.031C56.4218 111.301 57.4455 110.939 58.5401 110.939C59.5008 110.939 60.2174 111.206 60.7056 111.733C61.186 112.259 61.4222 113.116 61.4222 114.287V116.204H62.3121V118.562H57.5322V115.238C57.5322 114.515 57.4692 114.035 57.3432 113.8C57.2093 113.572 56.9573 113.462 56.5793 113.462C56.2328 113.462 55.8627 113.595 55.469 113.855V116.212H56.5557V118.57ZM40.4127 118.664H37.3337L35.0344 113.438H34.2311V111.081H39.2866V113.438H38.5386L39.4205 115.929L41.2711 111.081H44.1532L45.8383 115.929L46.799 113.438H46.0825V111.081H49.7363V113.438H49.0039L46.8227 118.664H43.7358L42.0191 114.829L40.4127 118.664ZM23.183 114.79C23.183 113.69 23.6476 112.762 24.5768 112.008C25.506 111.253 26.7581 110.876 28.333 110.876C29.908 110.876 31.2152 111.246 32.2074 111.969C33.1996 112.699 33.6957 113.65 33.6957 114.821C33.6957 115.992 33.2232 116.896 32.2704 117.65C31.3254 118.405 30.0655 118.782 28.5142 118.782C26.8369 118.782 25.5297 118.405 24.5847 117.65C23.6476 116.904 23.1752 115.945 23.1752 114.79H23.183ZM27.1203 114.805C27.1203 116 27.5456 116.597 28.4039 116.597C29.3095 116.597 29.7662 115.992 29.7662 114.79C29.7662 114.24 29.656 113.815 29.4355 113.509C29.2071 113.202 28.8921 113.053 28.4748 113.053C28.0574 113.053 27.7346 113.202 27.4905 113.501C27.2385 113.8 27.1203 114.232 27.1203 114.805ZM20.4742 118.57H14.4264V116.212H15.4501V113.438H14.4264V111.081H19.0803V112.959C19.2536 112.487 19.5292 112.086 19.8914 111.749C20.2379 111.411 20.5923 111.198 20.9545 111.096C21.301 111.002 21.805 110.947 22.4743 110.947V114.24C22.3877 114.24 22.2774 114.24 22.1515 114.24C21.3561 114.24 20.7655 114.318 20.3797 114.475C19.9781 114.64 19.7024 114.853 19.5607 115.12C19.4111 115.395 19.3323 115.764 19.3323 116.212H20.4663V118.562L20.4742 118.57ZM6.66993 118.57H1.79553V116.22H2.77986V110.193H1.77979V107.835H6.66993V111.56C7.3314 111.151 8.13461 110.947 9.07169 110.947C10.2608 110.947 11.2451 111.285 12.0247 111.969C12.8043 112.644 13.1901 113.572 13.1901 114.735C13.1901 115.308 13.0956 115.835 12.9066 116.299C12.7176 116.77 12.4342 117.187 12.0562 117.564C11.3081 118.326 10.371 118.703 9.24493 118.703C8.24486 118.703 7.38652 118.491 6.66206 118.067V118.57H6.66993ZM6.63843 114.798C6.63843 115.921 7.08729 116.487 7.98499 116.487C8.83545 116.487 9.26068 115.929 9.26068 114.805C9.26068 114.271 9.14256 113.862 8.90633 113.58C8.67009 113.305 8.3551 113.163 7.9535 113.163C7.52827 113.163 7.2054 113.312 6.97704 113.619C6.74868 113.933 6.63843 114.326 6.63843 114.798Z" fill="white"/>
<path fill-rule="evenodd" clip-rule="evenodd" d="M74.0451 125.532C73.9899 125.257 73.8482 125.006 73.612 124.778C73.3757 124.55 73.0922 124.44 72.7458 124.44C72.4308 124.44 72.1709 124.542 71.9504 124.746C71.7299 124.951 71.5961 125.21 71.5488 125.532H74.0529H74.0451ZM74.8483 126.098H71.5173C71.5646 126.46 71.7142 126.758 71.9504 126.986C72.1867 127.214 72.4938 127.324 72.8718 127.324C73.4151 127.324 73.8482 127.104 74.1632 126.672L74.8483 126.978C74.6278 127.324 74.3364 127.583 73.9742 127.748C73.6198 127.913 73.2419 128 72.8481 128C72.2418 128 71.7221 127.811 71.2968 127.434C70.8637 127.057 70.6511 126.546 70.6511 125.909C70.6511 125.273 70.8637 124.801 71.2811 124.409C71.6984 124.016 72.1788 123.819 72.7221 123.819C73.2655 123.819 73.738 124.008 74.1711 124.393C74.6042 124.778 74.8247 125.344 74.8483 126.106V126.098ZM66.3043 125.902C66.3043 126.342 66.4303 126.672 66.6744 126.908C66.9185 127.143 67.2178 127.261 67.5643 127.261C67.9107 127.261 68.1942 127.135 68.4541 126.892C68.7139 126.648 68.8399 126.302 68.8399 125.87C68.8399 125.438 68.7061 125.1 68.4462 124.88C68.1863 124.66 67.8871 124.542 67.5564 124.542C67.202 124.542 66.9107 124.676 66.6665 124.935C66.4224 125.202 66.3043 125.524 66.3043 125.909V125.902ZM70.3282 127.19V127.882H68.8399V127.3C68.4541 127.733 67.9816 127.945 67.4225 127.945C66.9028 127.945 66.4539 127.772 66.0602 127.418C65.6665 127.065 65.4775 126.57 65.4775 125.917C65.4775 125.265 65.6743 124.754 66.0759 124.377C66.4776 124 66.9343 123.811 67.4383 123.811C67.9737 123.811 68.4383 124.023 68.8399 124.448V122.884H68.0761V122.192H69.6195V127.19H70.3282ZM63.5482 127.19V124.613H62.9261V123.921H64.3199V127.19H64.9341V127.882H62.9261V127.19H63.5482ZM63.4379 122.577C63.4379 122.452 63.4852 122.342 63.5718 122.247C63.6584 122.153 63.7766 122.106 63.9104 122.106C64.0364 122.106 64.1467 122.153 64.2412 122.24C64.3357 122.326 64.3829 122.436 64.3829 122.57C64.3829 122.703 64.3357 122.813 64.2412 122.9C64.1467 122.994 64.0364 123.033 63.9104 123.033C63.7844 123.033 63.6663 122.986 63.5797 122.892C63.4852 122.798 63.4458 122.687 63.4458 122.562L63.4379 122.577ZM59.162 127.882V126.522H59.855V126.656C59.8786 126.845 59.981 126.994 60.1542 127.112C60.3275 127.23 60.5401 127.293 60.7763 127.293C61.0126 127.293 61.2252 127.253 61.3748 127.159C61.5244 127.073 61.6032 126.947 61.6032 126.798C61.6032 126.648 61.5402 126.538 61.4142 126.467C61.2882 126.397 61.0441 126.334 60.674 126.271C60.1306 126.177 59.7369 126.027 59.5085 125.823C59.2723 125.619 59.1541 125.352 59.1541 125.021C59.1541 124.691 59.2801 124.416 59.5321 124.196C59.7841 123.976 60.1227 123.866 60.5322 123.866C60.9102 123.866 61.2252 123.945 61.5008 124.094V123.929H62.1938V125.242H61.5008V124.998C61.2882 124.676 60.9811 124.511 60.5795 124.511C60.3747 124.511 60.2093 124.558 60.0755 124.644C59.9416 124.731 59.8786 124.849 59.8786 124.998C59.8786 125.147 59.9416 125.249 60.0597 125.304C60.1778 125.359 60.4456 125.422 60.8472 125.485C61.233 125.548 61.5244 125.619 61.7213 125.697C61.9181 125.776 62.0835 125.909 62.2095 126.098C62.3434 126.287 62.4064 126.499 62.4064 126.75C62.4064 127.12 62.2646 127.41 61.9811 127.623C61.6976 127.843 61.3354 127.945 60.8787 127.945C60.4535 127.945 60.1148 127.851 59.8392 127.662V127.882H59.1463H59.162ZM55.7051 123.929V124.409C56.2012 124.047 56.6579 123.866 57.0752 123.866C57.3351 123.866 57.5477 123.929 57.7131 124.047C57.8785 124.165 57.9887 124.314 58.0438 124.495C58.0989 124.668 58.1226 124.927 58.1226 125.265V127.198H58.7919V127.89H57.343V125.304C57.343 125.006 57.2957 124.809 57.2091 124.715C57.1225 124.621 57.0122 124.581 56.8784 124.581C56.5319 124.581 56.146 124.746 55.7129 125.084V127.198H56.398V127.89H54.2404V127.198H54.9333V124.621H54.2404V123.929H55.7129H55.7051ZM52.4528 127.19V124.613H51.8307V123.921H53.2245V127.19H53.8388V127.882H51.8307V127.19H52.4528ZM52.3347 122.577C52.3347 122.452 52.3741 122.342 52.4686 122.247C52.5552 122.153 52.6733 122.106 52.8072 122.106C52.9332 122.106 53.0434 122.153 53.1379 122.24C53.2324 122.326 53.2797 122.436 53.2797 122.57C53.2797 122.703 53.2324 122.813 53.1379 122.9C53.0434 122.994 52.9332 123.033 52.8072 123.033C52.6812 123.033 52.5631 122.986 52.4765 122.892C52.382 122.798 52.3426 122.687 52.3426 122.562L52.3347 122.577ZM49.8306 127.882V126.876H50.8385V127.882H49.8306ZM45.216 127.19V122.884H44.4995V122.192H45.9878V125.744L47.4682 124.566H46.8067V123.921H48.9959V124.566H48.3895L46.9012 125.799L48.295 127.19H48.988V127.882H47.9722L45.9799 125.894V127.19H46.665V127.882H44.4916V127.19H45.2082H45.216ZM41.1921 123.929V124.409C41.6882 124.047 42.1449 123.866 42.5623 123.866C42.8222 123.866 43.0348 123.929 43.2001 124.047C43.3655 124.165 43.4758 124.314 43.5309 124.495C43.586 124.668 43.6096 124.927 43.6096 125.265V127.198H44.279V127.89H42.83V125.304C42.83 125.006 42.7828 124.809 42.6962 124.715C42.6095 124.621 42.4993 124.581 42.3654 124.581C42.0189 124.581 41.6331 124.746 41.2 125.084V127.198H41.8851V127.89H39.7274V127.198H40.4204V124.621H39.7274V123.929H41.2H41.1921ZM37.932 127.19V124.613H37.3099V123.921H38.7037V127.19H39.318V127.882H37.3099V127.19H37.932ZM37.8218 122.577C37.8218 122.452 37.869 122.342 37.9556 122.247C38.0423 122.153 38.1604 122.106 38.2943 122.106C38.4202 122.106 38.5305 122.153 38.625 122.24C38.7195 122.326 38.7667 122.436 38.7667 122.57C38.7667 122.703 38.7195 122.813 38.625 122.9C38.5305 122.994 38.4202 123.033 38.2943 123.033C38.1683 123.033 38.0501 122.986 37.9635 122.892C37.869 122.798 37.8296 122.687 37.8296 122.562L37.8218 122.577ZM33.1285 127.19V122.884H32.4119V122.192H33.9081V124.377C34.3727 124 34.8215 123.811 35.2389 123.811C35.4988 123.811 35.7192 123.866 35.8846 123.976C36.0579 124.086 36.1681 124.228 36.2311 124.409C36.2941 124.589 36.3256 124.849 36.3256 125.194V127.19H37.0028V127.882H35.546V125.462C35.546 125.163 35.5381 124.959 35.5145 124.856C35.4988 124.754 35.4436 124.676 35.357 124.605C35.2704 124.542 35.168 124.511 35.0499 124.511C34.7507 124.511 34.3648 124.684 33.9002 125.021V127.19H34.5932V127.882H32.4119V127.19H33.1285ZM29.9629 124.613V123.921H30.4826V123.316L31.2622 122.601V123.921H31.9945V124.613H31.2622V126.538C31.2622 126.845 31.278 127.033 31.3173 127.112C31.3488 127.183 31.4354 127.222 31.5693 127.222C31.7111 127.222 31.8528 127.198 31.9945 127.143V127.851C31.7977 127.921 31.5929 127.953 31.3961 127.953C31.1598 127.953 30.963 127.898 30.8212 127.796C30.6716 127.693 30.585 127.56 30.5456 127.403C30.5062 127.245 30.4905 126.97 30.4905 126.585V124.621H29.9708L29.9629 124.613Z" fill="white"/>
</g>
<defs>
<clipPath id="clip0_254_2450">
<rect width="101" height="128" fill="white"/>
</clipPath>
</defs>
</svg>
