<svg width="285" height="263" viewBox="0 0 285 263" fill="none" xmlns="http://www.w3.org/2000/svg">
<g clip-path="url(#clip0_254_3113)">
<path d="M110.867 114.117C111.385 109.773 111.204 105.377 111.024 101.005C110.615 91.1498 110.202 81.2706 108.753 71.5158C107.841 65.3814 106.506 59.2948 104.535 53.4142C102.948 48.6973 101.096 41.3321 95.505 40.0152C92.8687 39.3927 90.0377 40.5563 88.1329 42.4958C86.2281 44.4352 85.1309 47.0403 84.4421 49.679C82.7511 56.139 83.2736 62.9966 84.5466 69.5524C86.1569 77.8514 88.9404 85.8774 92.0707 93.7262C94.4268 99.626 96.9918 105.459 100.25 110.904C101.823 113.533 103.59 116.104 105.979 118.005C108.649 120.132 110.397 117.56 110.767 114.888C110.8 114.629 110.838 114.375 110.867 114.117Z" fill="#F9C215"/>
<path d="M92.5837 26.4963C89.1922 35.5184 81.9911 40.6903 76.158 38.9519C70.3249 37.2136 67.0616 28.9338 69.0804 19.4999C71.3651 8.8209 79.3785 0.828423 86.6889 3.00732C93.9993 5.18622 96.4218 16.2818 92.5837 26.5011" fill="#F9C215"/>
<path d="M55.6044 86.835C55.4619 86.8733 55.3194 86.9212 55.1769 86.9691C51.9278 88.128 50.2605 91.6717 48.9305 94.8802C48.5457 95.8092 47.9235 98.8118 46.6315 98.716C45.3679 98.625 44.2944 95.2824 43.7814 94.3055C41.9526 90.8049 40.1429 87.2899 38.1668 83.8708C33.0177 74.9014 27.1751 66.2672 20.0073 58.8015C18.3685 57.0967 16.6395 55.435 14.5732 54.3C12.5069 53.1651 10.0464 52.5952 7.77107 53.189C5.61928 53.7541 3.819 55.3104 2.56973 57.1685C0.546196 60.195 -0.128315 63.9781 0.0189377 67.632C0.403694 77.0946 4.49351 86.2364 9.11059 94.3055C14.9674 104.539 22.3348 114.165 30.2912 123.675C36.4378 131.026 42.9739 138.353 50.346 144.913C53.9608 148.136 57.8464 151.206 62.1832 152.949C63.5798 153.509 65.247 153.835 66.2255 152.355C69.2133 147.839 65.1948 140.378 63.8838 135.863C62.6202 131.51 61.8982 126.716 63.6272 122.535C64.088 121.42 64.7815 120.313 65.874 119.815C69.0423 118.364 72.9564 124.609 74.6047 126.611C77.2362 129.81 79.7538 133.262 83.3543 135.427C85.3351 136.614 88.1472 137.237 89.7432 135.566C91.0685 134.177 90.8357 131.95 90.4462 130.063C87.1591 114.193 78.191 95.9241 63.2045 88.2477C60.8532 87.0409 58.1172 86.1406 55.6044 86.8446" fill="#F3921F"/>
<path d="M232.037 9.20873C223.876 10.4634 217.264 23.6996 213.535 30.5044C204.619 46.7767 183.087 90.0817 180.57 106.962C176.732 132.673 202.729 107.412 211.079 105.794C212.804 105.458 213.374 105.032 214.879 106.622C212.994 113.039 207.298 117.689 204.477 123.603C203.489 125.682 201.954 130.394 204.809 131.442C208.738 132.874 220.57 122.66 223.529 119.849C229.643 114.04 243.869 98.5195 245.446 90.8144C246.14 87.4287 245.498 83.4492 242.297 81.572C235.205 77.4202 216.855 89.7273 209.792 92.5527L207.726 90.733C207.061 88.6451 215.074 79.01 216.708 76.3666C224.389 63.9493 238.606 41.6048 242.368 28.1101C244.567 20.2086 242.601 7.58054 232.032 9.20394" fill="#E53030"/>
<path d="M184.365 64.6964C182.094 57.4271 174.095 53.8546 168.794 52.2456C168.471 51.4938 168.238 50.7707 168.238 50.1194C168.248 45.4072 174.181 31.7017 175.34 25.4859C177.781 12.3742 176.114 -5.29164 158.026 1.49886C149.979 4.52058 141.058 14.7686 137.182 22.2965C130.257 35.7435 134.484 50.6126 147.172 58.7248C139.562 68.13 129.354 97.5427 133.753 108.863C137.838 119.375 147.119 119.317 152.701 109.826C158.767 99.5157 158.068 76.927 163.426 67.3303C164.201 65.9463 165.754 65.2376 167.241 64.3325C167.431 64.3181 167.621 64.3038 167.825 64.2702C176.47 62.9342 174.347 75.5478 176.019 77.0754C177.686 78.6031 187.851 75.8543 184.36 64.6869M153.898 39.9193C147.936 36.6485 154.492 17.4407 158.909 19.7872C162.923 21.9182 155.385 39.6559 153.898 39.9193Z" fill="#B4D13D"/>
<path d="M162.742 241.01C158.733 242.016 155.052 241.106 151.717 244.099C150.145 245.511 148.806 247.25 148.141 249.266C147.471 251.301 147.523 253.542 148.093 255.611C148.407 256.746 148.882 257.847 149.523 258.834C149.865 259.356 149.494 260.05 148.872 260.026C132.708 259.442 125.202 267.013 107.888 260.026C90.5697 253.044 65.171 209.979 68.6338 171.86C69.1088 166.607 70.7143 161.507 73.3981 156.972C80.7465 144.545 94.688 137.606 107.95 133.511C115.042 131.323 122.257 129.824 129.53 129.043C130.893 128.895 132.261 128.775 133.624 128.679C134.418 128.622 134.726 129.699 134.028 130.087C130.181 132.223 126.647 135.072 123.345 138.204C116.225 144.961 109.993 153.121 104.012 161.837C99.3953 168.57 94.8922 175.677 91.2347 183.511C89.6006 187.031 85.5441 194.88 88.0189 198.706C88.2611 199.075 88.5794 199.386 88.8359 199.75C89.0924 200.119 89.2681 200.54 89.4439 200.952C93.3912 210.29 98.5545 218.469 105.314 226.055C111.537 233.051 121.74 244.4 132.223 241.949C138.617 240.459 143.414 234.737 142.203 228.052C140.768 220.112 140.711 210.592 149.323 206.799C156.966 203.428 166.433 208.283 170.48 217.622C173.877 225.456 172.589 238.534 162.738 241.01" fill="#41C7EA"/>
<path d="M227.377 194.549C220.166 186.116 209.483 182.041 205.151 174.762C195.171 157.991 188.93 136.825 167.678 131.581C164.353 130.758 161.009 130.097 157.655 129.599C156.809 129.474 156.206 130.446 156.719 131.136C157.242 131.845 157.679 132.616 157.997 133.444C160.557 140.081 155.37 146.24 152.235 150.713C148.25 156.382 143.543 161.602 138.384 166.492C129.934 174.527 120.258 181.749 110.221 189.243C108.876 190.244 107.556 191.226 106.174 192.174C105.247 192.811 104.364 193.658 104.145 194.765C103.841 196.268 104.844 197.729 106.003 198.715C109.38 201.603 112.544 204.558 115.517 207.895C117.023 209.591 119.768 209.136 120.609 207.019C124.761 196.594 133.178 187.893 144.763 183.817C163.388 177.271 184.308 185.628 193.452 203.25C204.367 224.292 195.181 249.859 173.976 259.202C173.957 259.207 173.943 259.217 173.924 259.226C172.618 259.796 173.007 261.769 174.432 261.769C189.205 261.784 205.911 258.494 219.012 242.849C240.948 216.659 234.597 202.987 227.377 194.544" fill="#0273AF"/>
<path d="M242.933 193.831C242.302 188.166 244.216 182.419 246.225 177.19C248.225 171.984 251.469 167.109 256.148 163.992C260.813 160.889 266.57 159.802 272.156 159.96C277.238 160.108 282.986 161.712 284.582 167.21C285.465 170.246 284.876 173.584 283.489 176.424C282.102 179.263 279.97 181.667 277.69 183.841C270.085 191.101 259.791 198.117 249.412 200.276C248.301 200.506 247.109 200.674 246.059 200.233C244.572 199.606 243.803 197.949 243.399 196.378C243.18 195.531 243.028 194.683 242.933 193.831Z" fill="#BC70AC"/>
</g>
<defs>
<clipPath id="clip0_254_3113">
<rect width="285" height="263" fill="white"/>
</clipPath>
</defs>
</svg>
