<svg width="358" height="244" viewBox="0 0 358 244" fill="none" xmlns="http://www.w3.org/2000/svg">
<g clip-path="url(#clip0_254_2459)">
<path d="M231.359 67.4657C193.219 67.9799 155.018 68.6029 117.524 72.0283C99.5101 73.6802 81.6262 75.9516 64.176 79.226C55.553 80.8337 47.0106 82.6731 38.625 84.7894C33.771 85.9983 22.2146 87.0526 20.1491 91.1556L20.585 91.6218C26.1599 94.9627 34.7846 93.6151 40.6269 93.2677C51.6452 92.6385 62.643 92.0022 73.6704 91.4132C95.7195 90.2518 117.825 89.2584 139.995 88.6764C162.165 88.0944 183.78 87.9872 205.829 88.5494C217.336 88.831 228.876 89.3467 240.416 90.0657C246.804 90.4635 253.19 90.9347 259.573 91.4791C262.206 91.7059 264.833 91.9493 267.481 92.1998C268.794 92.3215 270.128 92.4503 271.436 92.5885C273.748 92.8151 274.078 92.8556 272.387 92.6957L279.604 91.5645C230.523 93.3463 181.438 95.4049 133.139 100.368C109.716 102.776 86.4838 105.826 63.6387 109.881C52.3257 111.89 41.1137 114.139 30.0233 116.634C24.7393 117.823 19.4792 119.077 14.2634 120.401C10.8893 121.252 5.33582 121.496 3.79725 124.41L4.23314 124.876C11.991 129.344 24.8148 126.357 32.5522 125.647C46.7207 124.349 60.8835 123.067 75.0701 121.85C103.917 119.375 132.818 117.141 161.904 115.564C190.991 113.988 219.865 113.024 249.069 113.1C263.188 113.138 277.326 113.386 291.51 113.966C298.742 114.249 305.993 114.612 313.215 115.057C317.175 115.3 321.13 115.558 325.079 115.834L329.042 116.132C334.754 116.759 336.199 116.834 333.412 116.387L340.629 115.255C287.229 116.504 233.902 118.538 181.376 123.629C155.839 126.102 130.502 129.257 105.532 133.409C93.4622 135.416 81.4929 137.661 69.6304 140.13C63.6598 141.378 57.7187 142.673 51.7957 144.049C47.9425 144.956 41.1928 145.137 39.3754 148.325L39.8112 148.792C43.8712 151.2 49.6084 150.89 54.0314 150.792C63.044 150.58 71.993 149.622 80.9718 149.176C99.3445 148.279 117.793 147.76 136.335 147.7C173.487 147.584 210.91 149.138 248.402 152.347C251.439 152.603 260.866 153.98 262.787 151.884C264.59 149.933 261.951 149.722 258.666 149.455C186.913 143.323 115.638 142.639 45.4512 147.503L61.1339 148.731C61.8766 149.174 76.0559 144.729 77.4308 144.409C84.0257 142.951 90.665 141.563 97.3165 140.273C109.314 137.945 121.434 135.862 133.608 134.021C159.176 130.132 185.079 127.267 211.176 125.099C237.274 122.931 262.204 121.545 287.885 120.512C300.518 119.998 313.184 119.588 325.833 119.227C332.167 119.05 338.514 118.971 344.819 118.747C348.029 118.636 352.522 118.933 354.671 116.842C355.122 116.535 355.091 116.227 354.536 115.905C351.313 113.139 344.557 113.67 340.692 113.35C333.9 112.793 327.11 112.293 320.339 111.874C305.559 110.958 290.81 110.35 276.089 109.992C246.244 109.249 216.544 109.612 187.001 110.715C127.444 112.887 68.5892 118.139 9.83781 123.557L25.5205 124.785C25.9579 125.048 39.7894 120.612 41.4678 120.211C47.052 118.885 52.6542 117.639 58.3008 116.464C69.2699 114.186 80.3343 112.165 91.5055 110.365C114.943 106.59 138.741 103.829 162.705 101.719C186.028 99.6647 209.508 98.2208 233.081 97.1056C244.34 96.5783 255.607 96.0912 266.899 95.668C273.584 95.4088 289.234 97.46 293.637 93.1107C294.088 92.8037 294.057 92.4963 293.502 92.1743C288.799 88.042 273.531 88.8663 267.841 88.3768C257.122 87.4788 246.398 86.7273 235.699 86.1698C212.4 84.9704 189.18 84.5396 166.074 84.7046C119.983 85.0207 74.3191 87.4864 28.7001 90.1531L41.8723 91.5308C42.5182 91.9215 61.3051 85.7187 63.9032 85.118C72.4505 83.1319 81.1374 81.4722 89.9106 80.0278C105.579 77.4518 121.548 75.6659 137.635 74.4025C170.595 71.7961 204.048 71.3442 237.455 70.8945C238.861 70.8815 245.855 70.859 244.537 68.8268C243.219 66.7947 232.958 67.4268 231.365 67.4491L231.359 67.4657Z" fill="#002EC4"/>
</g>
<defs>
<clipPath id="clip0_254_2459">
<rect width="329.241" height="143.127" fill="white" transform="translate(46.873) rotate(19.1167)"/>
</clipPath>
</defs>
</svg>
