<svg width="181" height="125" viewBox="0 0 181 125" fill="none" xmlns="http://www.w3.org/2000/svg">
<g clip-path="url(#clip0_254_2477)">
<path d="M178.21 52.7078C144.05 53.372 109.883 54.0195 75.7233 54.6836C65.9355 54.8747 56.1641 55.0582 46.3763 55.2493C43.5184 55.2947 43.5063 51.6033 46.34 51.5489C80.4995 50.8847 114.667 50.2372 148.826 49.5731C158.614 49.382 168.385 49.1985 178.173 49.0074C181.031 48.962 181.043 52.6534 178.21 52.7078Z" fill="#B41998"/>
<path d="M121.226 75.5528C92.4944 76.2803 63.8062 77.9218 35.1948 80.4622C32.6826 80.6926 34.2048 76.4726 36.2271 76.3069C64.8307 73.7498 93.5267 72.125 122.259 71.3975C124.808 71.3328 123.262 75.5026 121.226 75.5528Z" fill="#B41998"/>
<path d="M56.9029 91.6653C41.5982 93.1955 26.2694 94.7166 10.9647 96.2469C10.4835 96.2871 11.9536 95.0164 12.0117 94.9692C12.6747 94.4587 13.6115 93.7196 14.476 93.6438C29.7807 92.1136 45.1096 90.5924 60.4143 89.0622C60.8954 89.0219 59.4253 90.2926 59.3673 90.3398C58.7043 90.8504 57.7674 91.5894 56.9029 91.6653Z" fill="#B41998"/>
</g>
<defs>
<clipPath id="clip0_254_2477">
<rect width="173" height="57" fill="white" transform="matrix(-0.907228 0.420638 0.420638 0.907228 156.95 0)"/>
</clipPath>
</defs>
</svg>
