<svg width="39" height="39" viewBox="0 0 39 39" fill="none" xmlns="http://www.w3.org/2000/svg">
<path d="M19.5 0C8.775 0 0 8.775 0 19.5C0 30.225 8.775 39 19.5 39C30.225 39 39 30.225 39 19.5C39 8.775 30.225 0 19.5 0ZM19.5 4.875C22.7175 4.875 25.6425 5.89875 28.0313 7.605L7.605 28.0313C5.89875 25.6425 4.875 22.7175 4.875 19.5C4.875 11.4075 11.4075 4.875 19.5 4.875ZM31.395 10.9688C33.1012 13.3575 34.125 16.2825 34.125 19.5C34.125 27.5925 27.5925 34.125 19.5 34.125C16.2825 34.125 13.3575 33.1012 10.9688 31.395L31.395 10.9688Z" fill="#465666"/>
</svg>
