<svg width="27" height="53" viewBox="0 0 27 53" fill="none" xmlns="http://www.w3.org/2000/svg">
<path d="M26.998 17.3425L25.5602 17.4419C25.0845 17.4732 23.4742 17.4732 22.9984 17.4732C22.5226 17.4732 20.9123 17.4732 20.4104 17.4419L20.3111 8.55912L17.9845 8.5748L17.8486 8.58526L18.9413 52.0213H6.51384L6.59226 50.4528C6.90596 44.3044 7.22488 38.156 7.54903 32.0077C7.88363 25.6711 8.20778 15.5283 8.53193 9.19173C7.72678 9.23878 6.92165 9.27538 6.12173 9.31721C4.67351 9.3904 3.2253 9.46883 1.78231 9.55248L0.313184 9.63613L0.203388 9.58907C0.0256285 7.25729 0.0256285 5.82999 0.203388 3.49821L0.302725 2.18592L1.615 2.11796C8.44305 1.75721 15.4123 1.35464 22.1462 0.962523L26.4281 0.716797L26.5013 2.22252C26.5222 2.69306 26.5222 3.15837 26.5222 3.61323C26.5222 4.06808 26.5222 4.46543 26.5431 4.86277C26.7052 8.49638 26.8307 12.1823 26.9509 15.7479L27.0032 17.3373L26.998 17.3425Z" fill="white"/>
</svg>
