<svg width="4" height="15" viewBox="0 0 4 15" fill="none" xmlns="http://www.w3.org/2000/svg">
<mask id="path-1-inside-1_254_2466" fill="white">
<path d="M0.668213 0.982202V14.3522C0.668213 15.2322 3.11823 14.8822 3.11823 13.8722V0.502202C3.11823 -0.377798 0.668213 -0.0277975 0.668213 0.982202Z"/>
</mask>
<path d="M0.668213 0.982202V14.3522C0.668213 15.2322 3.11823 14.8822 3.11823 13.8722V0.502202C3.11823 -0.377798 0.668213 -0.0277975 0.668213 0.982202Z" fill="#FFEA30"/>
<path d="M0.668213 0.982202H-5.33179V14.3522H0.668213H6.66821V0.982202H0.668213ZM0.668213 14.3522H-5.33179C-5.33179 18.2309 -2.32103 20.0001 -0.814879 20.493C0.636582 20.9679 1.99472 20.8892 2.89527 20.7367C3.84211 20.5763 5.04632 20.2049 6.18066 19.4093C7.28688 18.6334 9.11823 16.8242 9.11823 13.8722H3.11823H-2.88177C-2.88177 11.4252 -1.35668 10.0385 -0.709837 9.58479C-0.0348761 9.1114 0.556832 8.96185 0.89117 8.90522C1.17922 8.85643 1.92485 8.76337 2.91693 9.08799C3.44048 9.2593 4.35157 9.65477 5.18511 10.559C6.12154 11.5749 6.66821 12.9291 6.66821 14.3522H0.668213ZM3.11823 13.8722H9.11823V0.502202H3.11823H-2.88177V13.8722H3.11823ZM3.11823 0.502202H9.11823C9.11823 -3.37652 6.10747 -5.14574 4.60132 -5.63857C3.14986 -6.1135 1.79172 -6.03482 0.891171 -5.88228C-0.0556699 -5.7219 -1.25988 -5.35047 -2.39422 -4.5549C-3.50044 -3.77904 -5.33179 -1.96984 -5.33179 0.982202H0.668213H6.66821C6.66821 3.42925 5.14312 4.81595 4.49627 5.26962C3.82131 5.743 3.2296 5.89255 2.89527 5.94919C2.60722 5.99798 1.86159 6.09103 0.869503 5.76641C0.345955 5.5951 -0.565137 5.19964 -1.39868 4.29538C-2.33511 3.27951 -2.88177 1.92535 -2.88177 0.502202H3.11823Z" fill="#FFEA30" mask="url(#path-1-inside-1_254_2466)"/>
</svg>
