<svg width="16" height="6" viewBox="0 0 16 6" fill="none" xmlns="http://www.w3.org/2000/svg">
<mask id="path-1-inside-1_254_2469" fill="white">
<path d="M1.83817 5.69219C5.56817 4.59219 9.30815 3.49218 13.0382 2.40218L14.6682 1.92218C15.2182 1.76218 15.3982 1.17218 15.0782 0.712182C14.7282 0.212182 13.9882 -0.0178156 13.3982 0.152184C9.66817 1.25218 5.92816 2.35218 2.19816 3.44218L0.568153 3.92218C0.0181529 4.08218 -0.161851 4.67218 0.158149 5.13218C0.508149 5.63218 1.24817 5.86219 1.83817 5.69219Z"/>
</mask>
<path d="M1.83817 5.69219C5.56817 4.59219 9.30815 3.49218 13.0382 2.40218L14.6682 1.92218C15.2182 1.76218 15.3982 1.17218 15.0782 0.712182C14.7282 0.212182 13.9882 -0.0178156 13.3982 0.152184C9.66817 1.25218 5.92816 2.35218 2.19816 3.44218L0.568153 3.92218C0.0181529 4.08218 -0.161851 4.67218 0.158149 5.13218C0.508149 5.63218 1.24817 5.86219 1.83817 5.69219Z" fill="#FFEA30"/>
<path d="M1.83817 5.69219L3.4994 11.4576L3.51739 11.4524L3.53535 11.4471L1.83817 5.69219ZM13.0382 2.40218L14.7211 8.16133L14.7331 8.15781L13.0382 2.40218ZM14.6682 1.92218L12.9922 -3.83899L12.9827 -3.83623L12.9732 -3.83345L14.6682 1.92218ZM15.0782 0.712182L20.0036 -2.7142L19.9986 -2.72141L19.9936 -2.72859L15.0782 0.712182ZM13.3982 0.152184L11.7369 -5.61326L11.719 -5.60807L11.701 -5.60278L13.3982 0.152184ZM2.19816 3.44218L0.51519 -2.31697L0.503254 -2.31345L2.19816 3.44218ZM0.568153 3.92218L2.24413 9.68335L2.2536 9.6806L2.26306 9.67781L0.568153 3.92218ZM0.158149 5.13218L-4.76728 8.55857L-4.76227 8.56577L-4.75724 8.57295L0.158149 5.13218ZM1.83817 5.69219L3.53535 11.4471C7.26278 10.3479 10.9976 9.24942 14.7211 8.16132L13.0382 2.40218L11.3552 -3.35695C7.61869 -2.26505 3.87357 -1.16354 0.140998 -0.0627777L1.83817 5.69219ZM13.0382 2.40218L14.7331 8.15781L16.3631 7.67781L14.6682 1.92218L12.9732 -3.83345L11.3432 -3.35344L13.0382 2.40218ZM14.6682 1.92218L16.3441 7.68335C18.4566 7.06881 20.1895 5.46902 20.9009 3.29854C21.5957 1.17898 21.1738 -1.0321 20.0036 -2.7142L15.0782 0.712182L10.1527 4.13857C9.30257 2.91646 8.95063 1.23039 9.49789 -0.439176C10.0618 -2.15965 11.4297 -3.38444 12.9922 -3.83899L14.6682 1.92218ZM15.0782 0.712182L19.9936 -2.72859C18.039 -5.52088 14.5579 -6.42608 11.7369 -5.61326L13.3982 0.152184L15.0594 5.91763C14.0663 6.20376 13.1653 6.11294 12.4662 5.88471C11.7698 5.65739 10.8649 5.15604 10.1628 4.15296L15.0782 0.712182ZM13.3982 0.152184L11.701 -5.60278C7.97358 -4.50354 4.23871 -3.40506 0.515193 -2.31695L2.19816 3.44218L3.88112 9.20132C7.61761 8.10942 11.3628 7.00791 15.0953 5.90715L13.3982 0.152184ZM2.19816 3.44218L0.503254 -2.31345L-1.12675 -1.83345L0.568153 3.92218L2.26306 9.67781L3.89306 9.19781L2.19816 3.44218ZM0.568153 3.92218L-1.10782 -1.83899C-3.22033 -1.22444 -4.95318 0.375345 -5.66462 2.54582C-6.35938 4.66538 -5.93744 6.87646 -4.76728 8.55857L0.158149 5.13218L5.08358 1.70579C5.93374 2.9279 6.28568 4.61398 5.73842 6.28354C5.17448 8.00402 3.80664 9.22881 2.24413 9.68335L0.568153 3.92218ZM0.158149 5.13218L-4.75724 8.57295C-2.80263 11.3653 0.678433 12.2704 3.4994 11.4576L1.83817 5.69219L0.176943 -0.0732563C1.17004 -0.359403 2.07105 -0.268555 2.77013 -0.0403452C3.46643 0.186958 4.37135 0.688283 5.07354 1.69141L0.158149 5.13218Z" fill="#FFEA30" mask="url(#path-1-inside-1_254_2469)"/>
</svg>
