<svg width="30" height="47" viewBox="0 0 30 47" fill="none" xmlns="http://www.w3.org/2000/svg">
<path d="M29.6266 0.945306L29.5168 2.48763C29.4332 3.56987 28.7692 9.66074 28.5966 10.8162L28.3927 12.1232L27.0648 12.0814C23.7919 11.9716 20.5034 11.8304 17.3194 11.6945L16.8541 11.6736C16.3783 12.6722 15.9025 13.6708 15.432 14.6641C14.4073 16.8182 13.3878 18.967 12.3526 21.1158L12.9277 23.505C13.7851 27.0811 14.6687 30.7618 15.5209 34.3954C17.1207 34.4634 18.7258 34.5261 20.3256 34.5836C22.1398 34.6516 23.9592 34.7196 25.7734 34.798L27.321 34.8607L27.1955 36.4083C27.1171 37.433 26.4531 43.5814 26.2753 44.7264L26.0714 46.0491L24.733 45.9916C22.0039 45.8766 19.28 45.7668 16.5561 45.657C13.5708 45.5367 10.5802 45.4165 7.58445 45.2858C7.12437 45.2753 6.70088 45.061 6.41856 44.7054C6.0003 44.1774 6.05782 43.6075 6.12056 43.3043C5.11152 39.1165 4.11815 34.9339 3.11956 30.7409C2.30396 27.2903 1.4779 23.8396 0.651839 20.3786L0.526367 19.8662L0.751177 19.3904C2.16802 16.3999 3.5901 13.4094 5.0174 10.4188C6.50221 7.30281 7.98702 4.19202 9.45615 1.07078L9.87963 0.176758L29.6161 0.934847L29.6266 0.945306Z" fill="white"/>
</svg>
