<svg width="17" height="35" viewBox="0 0 17 35" fill="none" xmlns="http://www.w3.org/2000/svg">
<path d="M3.27548 34.0313C2.73733 34.0313 2.19918 34.0153 1.66102 33.981C1.49633 33.9719 1.3386 33.9307 1.19014 33.8598C1.04168 33.7889 0.911786 33.6929 0.802764 33.5694C0.691422 33.4482 0.610236 33.3087 0.556884 33.1554C0.503533 32.9999 0.480337 32.8421 0.491935 32.6775C0.501213 32.5151 0.542967 32.3619 0.617194 32.2132C0.689103 32.0669 0.788846 31.9411 0.911786 31.8336C1.03705 31.7261 1.17854 31.6461 1.33396 31.5935C1.49169 31.5409 1.65174 31.5203 1.81644 31.5317C5.30283 31.7444 8.67091 31.223 11.9253 29.9697C12.2199 29.8554 12.3939 29.7685 12.4403 29.7136C12.496 29.6221 12.5122 29.2562 12.5192 29.0984L13.8321 1.15407C13.8437 0.991699 13.8831 0.840759 13.955 0.696682C14.0269 0.550316 14.122 0.424534 14.245 0.319334C14.3656 0.211847 14.5024 0.131804 14.6555 0.0769166C14.8086 0.0220296 14.9664 -0.000839919 15.1311 0.0083079C15.2934 0.0151689 15.4465 0.0517604 15.595 0.120369C15.7434 0.186691 15.871 0.280455 15.9824 0.39709C16.0937 0.516012 16.1772 0.648655 16.2352 0.799595C16.2932 0.950533 16.3187 1.10605 16.3141 1.26613L15.0012 29.215C14.978 29.7136 14.9408 30.4706 14.463 31.1338C13.9782 31.8107 13.2313 32.0989 12.83 32.2544C9.75882 33.4367 6.57398 34.0291 3.27548 34.0313Z" fill="#231F20"/>
</svg>
