<svg width="112" height="107" viewBox="0 0 112 107" fill="none" xmlns="http://www.w3.org/2000/svg">
<path d="M41.3859 45.802C34.1015 50.3304 33.987 25.4213 35.9508 14.4811C36.588 10.899 37.5467 7.15186 40.1398 4.58967C45.8622 -1.06148 56.4619 2.68789 60.3996 9.68519C64.3374 16.6825 63.6153 25.2446 62.7684 33.2199C62.5771 35.0923 62.3349 37.0734 61.1453 38.5512C59.9557 40.029 57.4821 40.608 56.1818 39.2339C55.4836 38.4912 55.306 37.4042 55.2499 36.3801C54.2391 20.9071 70.0481 8.12025 85.6453 7.75291C90.8321 7.63431 96.596 8.88967 99.5389 13.1296C103.451 18.7624 100.449 26.6279 96.0926 31.9369C91.261 37.8225 84.8333 42.4263 77.6784 45.1178C76.7654 45.4676 75.7795 45.7796 74.815 45.5561C72.5319 45.03 72.0995 41.6367 73.6249 39.8724C75.1504 38.108 77.6952 37.6642 80.0379 37.5702C90.2301 37.1837 100.486 41.6824 107.071 49.4312C109.342 52.1007 111.259 55.4097 110.893 58.8868C110.233 65.2455 102.641 68.4166 96.2032 68.5748C89.312 68.7374 82.3923 66.9751 76.4452 63.5244C73.7507 61.9681 71.0549 58.3292 73.3101 56.1754C73.7712 55.7326 74.3762 55.475 74.9801 55.2782C80.0211 53.6469 85.7223 56.4236 88.8114 60.7147C91.9006 65.0059 92.8495 70.4541 93.0784 75.7196C93.3004 80.6683 92.9066 85.7891 90.6254 90.1836C88.332 94.5778 83.7741 98.0687 78.7882 97.9106C73.8268 97.7529 69.5148 94.0133 67.4215 89.5443C65.3282 85.0752 65.0597 79.9796 65.205 75.0494C65.2625 73.1138 66.2393 70.4631 68.1311 70.9339C68.8514 71.1045 69.3677 71.7344 69.7739 72.3504C74.8288 79.9635 71.3036 90.463 65.4959 97.5255C60.176 104.012 50.1377 109.029 43.7219 103.597C39.493 100.017 39.1958 93.7276 39.339 88.2006C39.5602 79.5447 41.3081 69.0514 49.451 65.9262C51.7515 66.8667 52.5326 69.9371 51.66 72.2363C50.7871 74.5477 48.7366 76.1935 46.6425 77.5219C38.0686 82.9174 27.1813 84.5343 17.3962 81.8949C11.491 80.2962 5.36908 76.3187 4.68785 70.266C4.0818 64.8358 8.34765 59.781 13.433 57.6997C18.5184 55.6185 24.2265 55.8376 29.7108 56.2357C30.6167 56.2998 31.6076 56.4142 32.2587 57.0464C33.7173 58.4841 32.1306 60.966 30.3482 61.9831C24.1347 65.531 16.0264 63.0299 10.3771 58.6463C5.13929 54.5743 0.978073 48.4623 1.20132 41.8404C1.46941 33.3072 10.3307 27.5878 19.2126 28.5675C28.0823 29.5469 48.6825 41.2739 41.3981 45.8023L41.3859 45.802Z" stroke="#01B27B" stroke-width="2" stroke-miterlimit="10"/>
</svg>
