<svg width="33" height="47" viewBox="0 0 33 47" fill="none" xmlns="http://www.w3.org/2000/svg">
<path d="M30.5845 1.01324C28.237 0.929584 13.8542 0.208092 11.0989 0.0669298L10.1004 0.0146484L9.67163 0.919127C8.22865 3.98286 6.76474 7.04659 5.30607 10.1103C3.85786 13.1531 2.40965 16.196 0.971896 19.2388L0.74707 19.7146L0.867325 20.2269C1.77703 24.0226 2.67628 27.8287 3.57554 31.6297C4.55321 35.7704 5.53089 39.9111 6.52426 44.031L6.7909 45.1341L7.92541 45.176C10.2729 45.2596 24.6557 45.9811 27.411 46.1223L28.7598 46.1902L28.9637 44.857C29.1415 43.6964 29.8421 37.6578 29.9257 36.5755L30.0407 35.0541L28.5194 34.9705C26.198 34.845 23.8662 34.73 21.5345 34.6202C19.5948 34.5209 17.6603 34.432 15.7364 34.3274C15.3652 32.738 14.9835 31.1434 14.6019 29.5488C14.2934 28.2522 13.9849 26.9556 13.6817 25.6643C18.5387 25.8838 23.4271 26.14 28.4095 26.4014L29.8787 26.4746L29.978 25.0055C30.1087 23.0658 30.8825 12.5833 31.1282 10.7639L31.2119 10.0528C31.604 6.83224 32.0066 3.42344 32.0432 2.56079L32.0954 1.06552L30.6002 1.01324H30.5845ZM14.1052 17.7487C14.3091 17.32 14.5077 16.8913 14.7116 16.4626C15.4802 14.8366 16.2435 13.2107 17.0173 11.5899C18.1832 11.6422 19.3491 11.6997 20.515 11.7624C21.3672 11.8043 22.2194 11.8461 23.0663 11.8879C22.8938 14.0053 22.7213 16.06 22.5383 18.1409C20.9646 18.0624 19.3804 17.9892 17.8015 17.916C16.5729 17.8585 15.3443 17.8063 14.1104 17.7435L14.1052 17.7487Z" fill="white"/>
</svg>
