<svg width="64" height="27" viewBox="0 0 64 27" fill="none" xmlns="http://www.w3.org/2000/svg">
<path d="M1.5822 26.3228C1.53931 26.3125 1.49641 26.3022 1.45438 26.2883C1.24779 26.2197 1.06495 26.1152 0.901436 25.9776C0.738782 25.8363 0.608027 25.6725 0.510894 25.479C0.413759 25.2855 0.356669 25.0827 0.339624 24.8706C0.323438 24.655 0.347431 24.4452 0.415178 24.2422C0.914339 22.7174 2.27423 21.9215 3.08414 21.447C10.1161 17.3344 17.4424 13.837 25.0613 10.9622C32.6847 8.08458 40.4932 5.86789 48.4877 4.30851C49.0156 4.20484 49.5426 4.10473 50.0732 4.00549C52.7117 3.50585 55.2025 3.03873 57.618 2.22452C58.7658 1.8389 59.8826 1.37776 60.9683 0.841109C61.1601 0.751124 61.3621 0.697608 61.576 0.688571C61.7872 0.6751 61.9953 0.706242 62.1947 0.773128C62.3969 0.844449 62.5761 0.948075 62.7388 1.0893C62.897 1.23324 63.0242 1.39618 63.1177 1.58885C63.2122 1.77794 63.2657 1.97988 63.2827 2.19195C63.2962 2.40316 63.2722 2.61293 63.2045 2.81595C63.1376 3.01539 63.0367 3.19909 62.8963 3.35817C62.7586 3.52168 62.5948 3.65244 62.4049 3.75043C61.1912 4.34708 59.9403 4.86291 58.6557 5.29879C56.0268 6.18267 53.3126 6.69814 50.6793 7.1915C50.1532 7.28802 49.6298 7.38898 49.1099 7.4908C41.2916 9.00938 33.6583 11.1737 26.2055 13.9864C18.7563 16.8 11.5961 20.2201 4.72567 24.2431C4.36463 24.4549 3.61595 24.895 3.49964 25.2527C3.43805 25.4458 3.33972 25.6188 3.21094 25.7769C3.08216 25.935 2.92636 26.0639 2.75157 26.1617C2.57234 26.2623 2.38298 26.3264 2.17991 26.3532C1.98041 26.3808 1.7788 26.3701 1.5822 26.3228Z" fill="#231F20"/>
</svg>
