<svg width="16" height="8" viewBox="0 0 16 8" fill="none" xmlns="http://www.w3.org/2000/svg">
<path d="M2.86712 6.1746C2.87807 6.27824 2.88601 6.3935 2.8968 6.5142C1.83129 5.97758 1.1064 5.28418 0.715324 4.60396C1.37362 4.59003 2.03229 4.57272 2.69172 4.54866C2.70307 4.66431 2.71271 4.77976 2.72785 4.89241C2.7751 5.32274 2.82291 5.74801 2.86712 6.1746ZM2.62851 3.82634C2.56533 3.11938 2.4883 2.41259 2.28518 1.73618C1.80821 1.89147 1.36788 2.07473 1.0137 2.29146C0.467167 2.62169 0.271684 3.21455 0.425662 3.88209C1.15812 3.86956 1.89303 3.85048 2.62851 3.82634ZM4.47913 3.75195C4.85767 3.73596 5.23659 3.71659 5.61399 3.69535C5.46411 2.83536 5.31935 1.97594 5.15904 1.11649C4.42916 1.21466 3.70693 1.35295 2.99082 1.52947C3.20768 2.26887 3.29218 3.03282 3.36284 3.79695C3.73418 3.78357 4.10571 3.76851 4.47742 3.75176L4.47913 3.75195ZM5.7564 4.49818L5.74244 4.42151C4.97247 4.4606 4.20306 4.49463 3.43421 4.5236L3.43729 4.55808C3.47963 5.00153 3.54093 5.44537 3.58308 5.89051C3.60632 6.10136 3.62425 6.31333 3.65792 6.52364C3.67113 6.60705 3.68622 6.68897 3.70663 6.76976C3.71121 6.79076 3.71502 6.80313 3.71616 6.80838C3.71254 6.79432 3.70205 6.74877 3.71958 6.80876L3.7192 6.81213C3.73744 6.83464 3.75379 6.85865 3.76805 6.88585C4.59955 7.17966 5.45537 7.36351 6.33532 7.43907C6.31026 7.0112 6.19891 6.58228 6.10104 6.17193C5.96903 5.6178 5.85826 5.0592 5.75469 4.49799L5.7564 4.49818ZM9.36042 1.52176C9.48329 2.04927 9.57412 2.58517 9.68125 3.11434C9.70493 3.22794 9.72841 3.34322 9.7519 3.4585C10.4115 3.4174 11.0697 3.37273 11.7272 3.30407C11.9474 3.28243 12.1679 3.25742 12.3869 3.23054C12.2639 2.70472 12.1556 2.1703 12.0039 1.65325C11.8945 1.2843 11.7597 0.895451 11.7029 0.50502C10.8335 0.551848 9.94373 0.627133 9.19087 0.698851C9.1968 0.738775 9.20255 0.780386 9.21019 0.820499C9.24959 1.05705 9.3032 1.29006 9.3589 1.51989L9.36042 1.52176ZM9.89457 4.18112C10.0915 5.19316 10.2496 6.21282 10.2351 7.24576C11.2417 7.03663 12.071 6.71221 12.7512 6.31488C12.8827 5.55103 12.7332 4.7184 12.5562 3.94757C11.6713 4.05585 10.7823 4.12438 9.89287 4.18093L9.89457 4.18112ZM13.1219 3.13294C13.9246 3.01725 14.7172 2.85263 15.4983 2.63553C15.6771 1.78815 15.5936 1.0926 15.4144 0.82344C15.189 0.487695 13.9154 0.424734 12.4391 0.474134C12.5015 0.892495 12.6688 1.31568 12.7809 1.70712C12.912 2.17579 13.0158 2.6568 13.1219 3.13294ZM14.8412 3.55611C14.3251 3.67461 13.8048 3.76875 13.2811 3.84714C13.4185 4.47699 13.5321 5.13492 13.5243 5.78106C14.3088 5.15974 14.8839 4.38541 15.2513 3.45826C15.1162 3.49275 14.9795 3.52537 14.8429 3.5563L14.8412 3.55611ZM8.44713 3.53549L9.00545 3.50362C8.97089 3.33248 8.93632 3.16133 8.90176 2.99019C8.79559 2.46795 8.69814 1.94498 8.57964 1.42478C8.53423 1.22683 8.47114 1.0013 8.43896 0.777504C7.73068 0.852466 7.26457 0.909945 7.26457 0.909945C7.26457 0.909945 6.70473 0.93994 5.89651 1.0277C6.05855 1.9027 6.20466 2.78105 6.35798 3.65679C7.05342 3.61967 7.75094 3.57936 8.44713 3.53549ZM9.15325 4.2268C8.7914 4.24807 8.43145 4.26783 8.07131 4.28928C7.5422 4.32269 7.01347 4.35273 6.48681 4.37958C6.49216 4.40919 6.49733 4.4405 6.50268 4.47011C6.60721 5.03826 6.72595 5.60287 6.85855 6.16731C6.95891 6.60183 7.0553 7.04104 7.07317 7.48689C7.53805 7.50268 8.02775 7.49733 8.54112 7.46559C8.88248 7.44205 9.21093 7.41025 9.52496 7.36832C9.50668 7.31507 9.49712 7.26109 9.49799 7.20655C9.51577 6.20642 9.34977 5.21148 9.15154 4.22662L9.15325 4.2268Z" fill="white"/>
</svg>
