<svg width="32" height="54" viewBox="0 0 32 54" fill="none" xmlns="http://www.w3.org/2000/svg">
<path d="M31.4269 2.76761L29.1055 53.7845L27.3907 53.4342C24.4681 52.833 21.5142 52.1794 18.6491 51.5468L16.6153 51.0972L16.7356 49.7849C17.8492 37.462 18.9419 24.8882 20.0032 12.7273L20.113 11.4726C19.5588 11.5301 19.0098 11.5824 18.4504 11.6347C17.6453 11.7183 16.8454 11.7967 16.0454 11.8751L14.1842 52.7493L0.601318 52.1324L5.91318 0.106445L7.99924 0.310345C10.3258 0.540387 12.7308 0.775657 15.0887 0.969101L16.5265 1.08412L16.4271 3.32703C16.5003 3.3218 16.5683 3.31134 16.6415 3.30088C19.4124 2.99242 21.7651 2.74669 22.5023 2.74669C23.2133 2.74669 23.9139 2.75192 24.6093 2.75192C25.1896 2.75192 27.4952 2.74669 28.0756 2.74669C28.6559 2.74669 29.2728 2.74669 29.8636 2.75192L31.4164 2.76238L31.4269 2.76761Z" fill="white"/>
</svg>
