<svg width="30" height="29" viewBox="0 0 30 29" fill="none" xmlns="http://www.w3.org/2000/svg">
<path d="M29.9537 28.3575C28.1382 24.9125 26.9228 21.2714 26.3253 17.5309C27.5576 17.1706 28.4499 16.1522 28.4499 14.9525V14.0462C28.4499 13.8831 28.3193 13.7132 28.1744 13.6452L25.9736 12.6245C21.7815 10.6794 18.1712 7.83147 15.5177 4.38527V4.35695L20.4044 2.21699C20.5932 2.13429 20.7069 1.95757 20.6888 1.77293C20.6707 1.58827 20.5246 1.4308 20.3216 1.37755L15.1506 0.0192585C15.1001 0.0056642 15.0471 0 15.0019 0C14.7575 0 14.4846 0.195984 14.4846 0.453142V4.38627C11.8325 7.83247 8.2222 10.6815 4.02871 12.6255L1.82789 13.6462C1.65073 13.7289 1.55246 13.9101 1.55246 14.0472V14.9535C1.55246 16.1532 2.44469 17.1716 3.67701 17.5319C3.4171 19.1666 3.03822 20.8011 2.53781 22.3953C1.89385 24.4345 1.05592 26.4407 0.0473319 28.3577C-0.0263753 28.4981 -0.0134421 28.6613 0.0822456 28.7916C0.176642 28.9218 0.340863 29 0.518014 29H29.4832C29.659 29 29.8232 28.9207 29.9189 28.7916C30.0133 28.6613 30.0263 28.4982 29.9526 28.3577L29.9537 28.3575ZM27.4154 14.9535C27.4154 15.9527 26.487 16.7661 25.3465 16.7661C24.206 16.7661 23.2775 15.9527 23.2775 14.9535V14.5004H27.4154V14.9535ZM22.2431 14.9535C22.2431 15.9527 21.3146 16.7661 20.1741 16.7661C19.0336 16.7661 18.1052 15.9527 18.1052 14.9535V14.5004H22.2431V14.9535ZM7.76047 14.5004H11.8984V14.9535C11.8984 15.9527 10.9699 16.7661 9.82941 16.7661C8.68891 16.7661 7.76047 15.9527 7.76047 14.9535V14.5004ZM19.9103 13.5941H10.0932C12.3238 11.6241 13.9958 9.24858 15.0018 6.62021C16.0078 9.24844 17.6797 11.6241 19.9103 13.5941ZM17.0707 14.9535C17.0707 15.9527 16.1422 16.7661 15.0017 16.7661C13.8612 16.7661 12.9328 15.9527 12.9328 14.9535V14.5004H17.0707V14.9535ZM9.82938 17.6724C10.9078 17.6724 11.8595 17.1875 12.4156 16.4534C12.8358 17.0074 13.4811 17.4164 14.2362 17.5851L13.1112 19.6979C12.1052 21.5864 10.2419 23.0093 8.02828 23.6618C8.72655 21.6147 9.27481 19.3763 9.64592 17.6644C9.7067 17.6678 9.76731 17.6724 9.82938 17.6724ZM7.02595 24.8252C9.94832 24.3573 12.4982 22.7136 13.8717 20.3959C13.2639 23.3186 11.5299 25.9423 8.94891 27.8558L7.02737 24.8255L7.02595 24.8252ZM7.91559 28.0945H5.8738C6.21777 27.6765 6.55397 27.1327 6.885 26.4688L7.91559 28.0945ZM14.9295 20.3538L15.0019 19.9743L15.0743 20.3538C15.6419 23.3401 17.3062 26.0464 19.807 28.0945H10.1956C12.6964 26.0463 14.3606 23.3398 14.9283 20.3538H14.9295ZM22.9775 24.8252L21.0559 27.8555C18.4749 25.9421 16.7396 23.3183 16.1332 20.3956C17.5064 22.7134 20.0566 24.3571 22.9789 24.8249L22.9775 24.8252ZM23.1184 26.469C23.4495 27.1317 23.7856 27.6766 24.1296 28.0946H22.0878L23.1184 26.469ZM16.8934 19.6978L15.7684 17.585C16.5236 17.4162 17.1688 17.0073 17.5891 16.4533C18.1451 17.1874 19.0968 17.6723 20.1753 17.6723C20.2373 17.6723 20.2981 17.6677 20.3589 17.6643C20.73 19.3761 21.2795 21.6146 21.9765 23.6618C19.7628 23.0104 17.8994 21.5863 16.8934 19.6978ZM25.4912 13.4275L25.8507 13.594H21.4166C18.9998 11.675 17.192 9.2891 16.1085 6.61897C18.6662 9.41711 21.8691 11.7475 25.4912 13.4275ZM15.519 3.34497V1.06227L18.7762 1.9187L15.519 3.34497ZM4.51352 13.4275C8.13533 11.7475 11.3384 9.41722 13.8962 6.61891C12.8127 9.29017 11.0049 11.6761 8.58818 13.5951H4.15402L4.51349 13.4286L4.51352 13.4275ZM2.58812 14.9534V14.5003H6.726V14.9534C6.726 15.9526 5.79756 16.766 4.65706 16.766C3.51656 16.766 2.58812 15.9526 2.58812 14.9534ZM3.53725 22.6364C4.04803 21.0074 4.43464 19.3387 4.70102 17.67C5.76134 17.6564 6.69495 17.1761 7.24323 16.4533C7.58201 16.8996 8.06564 17.2542 8.63588 17.4627C8.23632 19.3058 7.62726 21.7743 6.84884 23.929C6.61996 23.9664 6.3898 23.9982 6.15573 24.0185C5.98246 24.0333 5.82987 24.1239 5.74969 24.2598C5.66952 24.3947 5.67081 24.5566 5.75615 24.6903L6.24366 25.4584C5.52212 27.0942 4.90921 27.7977 4.48635 28.0957H1.31958C2.20406 26.3307 2.95017 24.4978 3.53722 22.6377L3.53725 22.6364ZM25.517 28.0944C25.0955 27.7976 24.4812 27.093 23.7597 25.4571L24.2472 24.6891C24.3325 24.5554 24.3338 24.3934 24.2537 24.2586C24.1735 24.1238 24.0209 24.0331 23.8476 24.0173C23.6149 23.9969 23.3834 23.9651 23.1545 23.9278C22.3761 21.7719 21.767 19.3047 21.3675 17.4614C21.9377 17.2529 22.4226 16.8984 22.7601 16.452C23.3084 17.1759 24.242 17.6562 25.3023 17.6687C25.8778 21.2611 27.0092 24.7627 28.6838 28.0931H25.517L25.517 28.0944Z" fill="#465666"/>
</svg>
