<svg width="10" height="14" viewBox="0 0 10 14" fill="none" xmlns="http://www.w3.org/2000/svg">
<mask id="path-1-inside-1_254_2467" fill="white">
<path d="M0.458186 2.26241C2.71819 5.43241 4.97818 8.61241 7.23818 11.7824C7.55818 12.2424 7.88819 12.6924 8.20819 13.1524C8.48819 13.5424 9.17818 13.9824 9.63818 13.6224C10.1182 13.2424 9.80817 12.5024 9.53817 12.1224C7.27817 8.95241 5.01817 5.77241 2.75817 2.60241C2.43817 2.14241 2.10817 1.69241 1.78817 1.23241C1.50817 0.842408 0.81818 0.402409 0.35818 0.762409C-0.12182 1.14241 0.188186 1.88241 0.458186 2.26241Z"/>
</mask>
<path d="M0.458186 2.26241C2.71819 5.43241 4.97818 8.61241 7.23818 11.7824C7.55818 12.2424 7.88819 12.6924 8.20819 13.1524C8.48819 13.5424 9.17818 13.9824 9.63818 13.6224C10.1182 13.2424 9.80817 12.5024 9.53817 12.1224C7.27817 8.95241 5.01817 5.77241 2.75817 2.60241C2.43817 2.14241 2.10817 1.69241 1.78817 1.23241C1.50817 0.842408 0.81818 0.402409 0.35818 0.762409C-0.12182 1.14241 0.188186 1.88241 0.458186 2.26241Z" fill="#FFEA30"/>
<path d="M0.458186 2.26241L-4.4329 5.73766L-4.42734 5.74546L0.458186 2.26241ZM7.23818 11.7824L12.1636 8.35602L12.1438 8.32757L12.1237 8.29935L7.23818 11.7824ZM8.20819 13.1524L3.28275 16.5788L3.30823 16.6154L3.33424 16.6516L8.20819 13.1524ZM9.63818 13.6224L13.336 18.3474L13.3492 18.3371L13.3624 18.3267L9.63818 13.6224ZM9.53817 12.1224L14.4293 8.64716L14.4237 8.63935L9.53817 12.1224ZM2.75817 2.60241L-2.16726 6.0288L-2.14747 6.05724L-2.12735 6.08546L2.75817 2.60241ZM1.78817 1.23241L6.7136 -2.19398L6.68813 -2.2306L6.66212 -2.26683L1.78817 1.23241ZM0.35818 0.762409L-3.33967 -3.96262L-3.35288 -3.95228L-3.36604 -3.94187L0.35818 0.762409ZM0.458186 2.26241L-4.42734 5.74546C-3.29885 7.32834 -2.17015 8.91402 -1.03993 10.5018C0.0898522 12.089 1.22115 13.6783 2.35266 15.2655L7.23818 11.7824L12.1237 8.29935C10.9952 6.71648 9.86652 5.1308 8.7363 3.54299C7.60652 1.9558 6.47522 0.366478 5.34371 -1.22065L0.458186 2.26241ZM7.23818 11.7824L2.31275 15.2088C2.49762 15.4745 2.68187 15.7324 2.84079 15.9548C3.00687 16.1874 3.14763 16.3845 3.28275 16.5788L8.20819 13.1524L13.1336 9.72602C12.9487 9.46027 12.7645 9.20246 12.6056 8.97997C12.4395 8.74746 12.2987 8.55027 12.1636 8.35602L7.23818 11.7824ZM8.20819 13.1524L3.33424 16.6516C4.08201 17.6932 5.17562 18.6184 6.48901 19.1822C7.79524 19.7429 10.6823 20.4243 13.336 18.3474L9.63818 13.6224L5.94033 8.89738C8.13407 7.18054 10.4461 7.82194 11.2224 8.15514C12.0057 8.49141 12.6144 9.00164 13.0821 9.65317L8.20819 13.1524ZM9.63818 13.6224L13.3624 18.3267C16.0135 16.2279 16.0398 13.2586 15.7714 11.7921C15.5163 10.3985 14.9001 9.30979 14.4293 8.64717L9.53817 12.1224L4.64709 15.5977C4.44628 15.315 4.12007 14.7863 3.96748 13.9527C3.88379 13.4955 3.80919 12.7 4.06432 11.74C4.34433 10.6865 4.96554 9.66897 5.91396 8.91813L9.63818 13.6224ZM9.53817 12.1224L14.4237 8.63935C13.2952 7.05648 12.1665 5.4708 11.0363 3.883C9.90651 2.2958 8.77521 0.706478 7.6437 -0.880645L2.75817 2.60241L-2.12735 6.08546C-0.998863 7.66834 0.129841 9.25402 1.26006 10.8418C2.38984 12.429 3.52114 14.0183 4.65265 15.6055L9.53817 12.1224ZM2.75817 2.60241L7.68361 -0.823978C7.49874 -1.08973 7.31449 -1.34754 7.15557 -1.57002C6.98949 -1.80254 6.84874 -1.99973 6.7136 -2.19398L1.78817 1.23241L-3.13726 4.65879C-2.95239 4.92454 -2.76814 5.18236 -2.60923 5.40484C-2.44314 5.63736 -2.30239 5.83454 -2.16726 6.0288L2.75817 2.60241ZM1.78817 1.23241L6.66212 -2.26683C5.91435 -3.30837 4.82073 -4.23359 3.50734 -4.79736C2.2011 -5.35806 -0.685932 -6.03946 -3.33967 -3.96262L0.35818 0.762409L4.05603 5.48744C1.86229 7.20428 -0.449747 6.56288 -1.22599 6.22968C-2.00938 5.89341 -2.618 5.38318 -3.08577 4.73165L1.78817 1.23241ZM0.35818 0.762409L-3.36604 -3.94187C-6.01717 -1.84306 -6.04345 1.12618 -5.77501 2.59271C-5.51992 3.98632 -4.90371 5.07503 -4.4329 5.73765L0.458186 2.26241L5.34927 -1.21283C5.55008 -0.930208 5.87629 -0.401502 6.02888 0.43211C6.11257 0.889319 6.18717 1.68481 5.93204 2.64479C5.65203 3.69834 5.03082 4.71585 4.0824 5.46668L0.35818 0.762409Z" fill="#FFEA30" mask="url(#path-1-inside-1_254_2467)"/>
</svg>
