<svg width="169" height="23" viewBox="0 0 169 23" fill="none" xmlns="http://www.w3.org/2000/svg">
<path fill-rule="evenodd" clip-rule="evenodd" d="M159.047 15.0602L163.088 21.7313H168.806V20.9307L161.906 10.4858L168.044 1.33697V0.536441H162.593L159.047 6.06387H158.895L155.426 0.536441H149.86V1.33697L155.998 10.4858L149.136 20.9307V21.7313H154.816L158.895 15.0602H159.086H159.047ZM145.21 16.9662V5.22522H147.688V0.49832H137.357V5.22522H139.835V16.9662H137.128V21.7313H147.878V16.9662H145.172H145.21ZM127.179 11.4388H123.291V5.3777C124.549 5.3777 125.883 5.3777 127.179 5.3777C130.343 5.3777 130.152 11.4388 127.179 11.4388ZM123.291 21.7313V16.3182H127.217C137.395 16.3182 137.395 0.53644 127.217 0.49832H117.878V21.7313H123.291ZM102.058 9.68528L93.7476 0.460199H91.7272V21.7694H97.2928V12.3156L101.791 17.0425H102.401L106.937 12.3156V21.7694H112.503V0.460199H110.559L102.096 9.68528H102.058ZM86.8478 0.49832H73.582V21.7313H87.1147V16.89H78.9951V13.1542H86.1998V8.31296H78.9951V5.30146H86.8478V0.460199V0.49832ZM62.1459 0.49832H56.6948V21.7313H69.8462V16.8519H62.1459V0.49832ZM40.8368 15.2508H35.5762C35.4618 24.5903 52.7303 24.4378 52.7303 15.5177C52.7303 10.219 48.6133 9.57092 44.3819 9.11348C42.4759 8.88476 40.8749 8.5798 41.0274 6.97875C41.218 4.46282 46.8979 4.2341 46.8979 7.05499H52.0441C52.1585 -2.09385 35.6524 -2.09385 35.843 7.05499C35.9193 11.6675 38.9308 13.2305 43.5433 13.5735C45.678 13.6879 47.4316 14.031 47.4316 15.5177C47.4316 17.9955 40.7986 17.9574 40.7986 15.289L40.8368 15.2508ZM30.8112 16.9662V5.22522H33.289V0.49832H22.9584V5.22522H25.4362V16.9662H22.7297V21.7313H33.4796V16.9662H30.773H30.8112ZM13.3902 14.4503H8.54897L10.9505 8.88476L13.3902 14.4503ZM16.4017 21.7313H21.7004V20.9307L12.1323 0.231476H9.80694L0.23877 20.9307V21.7313H5.53749L6.79544 19.0628H15.1819L16.4398 21.7313H16.4017Z" fill="white"/>
</svg>
