<svg width="11" height="15" viewBox="0 0 11 15" fill="none" xmlns="http://www.w3.org/2000/svg">
<mask id="path-1-inside-1_254_2472" fill="white">
<path d="M9.89806 12.692C7.78806 9.41204 5.67806 6.13204 3.55806 2.85204L2.65804 1.45204C1.88804 0.262036 -0.351947 1.25204 0.488053 2.55204C2.59805 5.83204 4.70805 9.11204 6.82805 12.392L7.72804 13.792C8.49804 14.982 10.7381 13.992 9.89806 12.692Z"/>
</mask>
<path d="M9.89806 12.692C7.78806 9.41204 5.67806 6.13204 3.55806 2.85204L2.65804 1.45204C1.88804 0.262036 -0.351947 1.25204 0.488053 2.55204C2.59805 5.83204 4.70805 9.11204 6.82805 12.392L7.72804 13.792C8.49804 14.982 10.7381 13.992 9.89806 12.692Z" fill="#FFEA30"/>
<path d="M9.89806 12.692L4.85198 15.9381L4.85856 15.9483L9.89806 12.692ZM3.55806 2.85204L-1.48897 6.09664L-1.485 6.10283L-1.48101 6.109L3.55806 2.85204ZM2.65804 1.45204L7.70507 -1.79257L7.70027 -1.80003L7.69546 -1.80747L2.65804 1.45204ZM0.488053 2.55204L5.53413 -0.694064L5.52755 -0.70425L0.488053 2.55204ZM6.82805 12.392L11.8751 9.14751L11.8711 9.14129L11.8671 9.13508L6.82805 12.392ZM7.72804 13.792L2.68096 17.0366L2.68578 17.0441L2.69062 17.0515L7.72804 13.792ZM9.89806 12.692L14.9441 9.44594C12.8347 6.16685 10.7212 2.88141 8.59713 -0.404921L3.55806 2.85204L-1.48101 6.109C0.6349 9.38267 2.7414 12.6572 4.85199 15.9381L9.89806 12.692ZM3.55806 2.85204L8.60509 -0.392567L7.70507 -1.79257L2.65804 1.45204L-2.389 4.69664L-1.48897 6.09664L3.55806 2.85204ZM2.65804 1.45204L7.69546 -1.80747C5.12614 -5.77823 0.643786 -5.41717 -1.60031 -4.35362C-2.86828 -3.7527 -4.394 -2.57374 -5.19822 -0.584316C-6.10992 1.67099 -5.70672 4.02041 -4.55145 5.80833L0.488053 2.55204L5.52755 -0.70425C6.26283 0.433679 6.63103 2.17184 5.92713 3.91309C5.33072 5.38845 4.25562 6.15053 3.5389 6.4902C2.3973 7.03124 -0.580068 7.49231 -2.37938 4.71154L2.65804 1.45204ZM0.488053 2.55204L-4.55802 5.79814C-2.4486 9.07724 -0.33511 12.3627 1.78898 15.649L6.82805 12.392L11.8671 9.13508C9.75121 5.86141 7.6447 2.58684 5.53412 -0.694058L0.488053 2.55204ZM6.82805 12.392L1.78097 15.6366L2.68096 17.0366L7.72804 13.792L12.7751 10.5475L11.8751 9.14751L6.82805 12.392ZM7.72804 13.792L2.69062 17.0515C5.25994 21.0223 9.7423 20.6612 11.9864 19.5977C13.2543 18.9968 14.7801 17.8179 15.5843 15.8285C16.496 13.5731 16.0928 11.2237 14.9376 9.43575L9.89806 12.692L4.85856 15.9483C4.12327 14.8104 3.75508 13.0722 4.459 11.3309C5.05543 9.85558 6.13054 9.09352 6.84724 8.75386C7.98879 8.21285 10.9661 7.75176 12.7655 10.5325L7.72804 13.792Z" fill="#FFEA30" mask="url(#path-1-inside-1_254_2472)"/>
</svg>
