<svg width="127" height="6" viewBox="0 0 127 6" fill="none" xmlns="http://www.w3.org/2000/svg">
<path fill-rule="evenodd" clip-rule="evenodd" d="M124.934 5.36679L123.6 3.00334L122.838 3.91822V5.36679H121.846V0.487403H122.838V2.05034C122.838 2.05034 122.838 2.20282 122.838 2.27906C122.838 2.3553 122.838 2.43153 122.838 2.50777C122.838 2.58402 122.838 2.62214 122.838 2.66026C122.838 2.62214 122.914 2.54589 122.99 2.43153C123.066 2.31717 123.143 2.24093 123.219 2.16469L124.591 0.487403H125.773L124.362 2.16469L126.154 5.36679H124.972H124.934ZM119.864 2.08845C119.864 1.85973 119.788 1.70725 119.674 1.63101C119.559 1.55477 119.369 1.47853 119.178 1.47853H117.92V2.73649H119.178C119.636 2.73649 119.864 2.50777 119.864 2.08845ZM119.75 5.36679L118.873 3.61326H117.882V5.36679H116.891V0.487403H119.178C119.407 0.487403 119.636 0.487404 119.826 0.563645C120.017 0.639885 120.207 0.716125 120.36 0.868606C120.512 0.982967 120.627 1.17357 120.703 1.36417C120.779 1.55477 120.817 1.7835 120.817 2.05034C120.817 2.43154 120.741 2.69838 120.589 2.96522C120.436 3.19394 120.207 3.38454 119.902 3.4989L120.817 5.40491H119.712L119.75 5.36679ZM114.909 2.9271C114.909 2.69838 114.909 2.50778 114.832 2.31718C114.794 2.12658 114.718 1.97409 114.642 1.82161C114.566 1.66913 114.451 1.55477 114.299 1.47853C114.146 1.40229 113.994 1.36417 113.803 1.36417C113.613 1.36417 113.422 1.40229 113.308 1.47853C113.155 1.55477 113.041 1.66913 112.964 1.82161C112.888 1.97409 112.812 2.12658 112.774 2.31718C112.736 2.50778 112.698 2.69838 112.698 2.9271C112.698 3.15582 112.698 3.34642 112.774 3.53702C112.812 3.72762 112.888 3.8801 112.964 4.03258C113.041 4.18506 113.155 4.29942 113.308 4.37566C113.46 4.4519 113.613 4.49003 113.803 4.49003C113.994 4.49003 114.184 4.4519 114.299 4.37566C114.451 4.29942 114.566 4.18506 114.642 4.03258C114.718 3.8801 114.794 3.72762 114.832 3.53702C114.87 3.34642 114.909 3.15582 114.909 2.9271ZM115.9 2.9271C115.9 3.3083 115.862 3.65138 115.747 3.95635C115.633 4.26131 115.519 4.52814 115.328 4.75687C115.137 4.98559 114.909 5.13807 114.68 5.29055C114.413 5.40491 114.108 5.48115 113.803 5.48115C113.498 5.48115 113.155 5.40491 112.926 5.29055C112.66 5.17619 112.431 4.98559 112.278 4.75687C112.088 4.52814 111.973 4.26131 111.859 3.95635C111.745 3.65138 111.707 3.3083 111.707 2.9271C111.707 2.5459 111.745 2.20281 111.859 1.89785C111.935 1.59289 112.088 1.32605 112.278 1.09733C112.469 0.868611 112.698 0.716126 112.926 0.563645C113.193 0.449284 113.498 0.373047 113.803 0.373047C114.108 0.373047 114.451 0.449284 114.68 0.563645C114.947 0.678005 115.175 0.868611 115.328 1.09733C115.519 1.32605 115.633 1.59289 115.747 1.89785C115.823 2.20281 115.9 2.5459 115.9 2.9271ZM110.067 5.36679H109.114L108.504 2.85086C108.504 2.85086 108.428 2.54589 108.39 2.39341C108.39 2.24093 108.352 2.12658 108.314 2.01222C108.314 2.08846 108.314 2.24093 108.238 2.39341C108.238 2.54589 108.161 2.69838 108.123 2.85086L107.513 5.36679H106.598L105.569 0.487403H106.598L107.018 2.85086C107.018 2.85086 107.056 3.1177 107.094 3.27018C107.094 3.42266 107.132 3.53702 107.132 3.65138C107.132 3.53702 107.17 3.42266 107.208 3.27018C107.246 3.1177 107.285 2.96522 107.285 2.85086L107.856 0.487403H108.695L109.267 2.85086C109.267 2.85086 109.343 3.1177 109.343 3.27018C109.343 3.42266 109.419 3.53702 109.419 3.65138C109.419 3.53702 109.419 3.42266 109.457 3.27018C109.457 3.1177 109.496 2.96522 109.534 2.85086L109.953 0.487403H110.944L109.915 5.36679H110.067ZM99.6224 5.36679V0.487403H100.614V4.41378H103.053V5.36679H99.6224ZM98.4026 3.23206C98.4026 3.95634 98.212 4.49003 97.8689 4.87123C97.5258 5.25243 97.0302 5.44303 96.4203 5.44303C96.1154 5.44303 95.8485 5.40491 95.6198 5.29055C95.3911 5.17619 95.1623 5.06183 95.0099 4.87123C94.8193 4.68063 94.7049 4.45191 94.6287 4.18506C94.5143 3.91822 94.4762 3.61326 94.4762 3.23206V0.487403H95.4673V3.19394C95.4673 3.57514 95.5436 3.91822 95.7342 4.10882C95.9248 4.33754 96.1535 4.4519 96.4584 4.4519C96.7634 4.4519 97.0302 4.33754 97.1827 4.10882C97.3352 3.8801 97.4496 3.57514 97.4496 3.19394V0.449289H98.4407V3.15582L98.4026 3.23206ZM91.1216 1.44041V2.3553H92.6083V3.3083H91.1216V5.36679H90.1305V0.487403H93.5994V1.44041H91.0835H91.1216ZM88.1482 2.9271C88.1482 2.43154 88.0339 2.05033 87.8052 1.82161C87.5764 1.59289 87.1952 1.44041 86.6997 1.44041H86.166V4.41378H86.6615C86.9284 4.41378 87.119 4.41378 87.3096 4.29942C87.5002 4.22318 87.6527 4.10882 87.767 3.99446C87.8814 3.8801 87.9958 3.6895 88.0339 3.53702C88.1101 3.34642 88.1101 3.15582 88.1101 2.9271H88.1482ZM89.1394 2.9271C89.1394 3.34642 89.0631 3.72762 88.9106 4.03258C88.7582 4.33754 88.5676 4.60439 88.3388 4.79499C88.1101 4.98559 87.8433 5.13807 87.5383 5.21431C87.2334 5.29055 86.9284 5.36679 86.6234 5.36679H85.1749V0.487403H86.6997C87.0428 0.487403 87.3858 0.525526 87.6527 0.601766C87.9576 0.678006 88.1864 0.830489 88.4151 1.02109C88.6438 1.21169 88.7963 1.47853 88.9106 1.78349C89.025 2.08845 89.1012 2.46966 89.1012 2.9271H89.1394ZM83.0783 5.36679L81.2866 2.69837C81.2866 2.69837 81.1722 2.50777 81.096 2.39341C81.0198 2.27905 80.9816 2.20281 80.9435 2.12657C80.9435 2.16469 80.9435 2.24094 80.9435 2.31718C80.9435 2.39342 80.9435 2.50778 80.9435 2.62214C80.9435 2.7365 80.9435 2.81274 80.9435 2.9271C80.9435 3.04146 80.9435 3.1177 80.9435 3.19394V5.32867H79.9905V0.449289H80.9054L82.6208 3.04145C82.6208 3.04145 82.7352 3.23206 82.8114 3.34642C82.8877 3.46078 82.9258 3.53702 82.9639 3.61326C82.9639 3.57514 82.9639 3.4989 82.9639 3.42266C82.9639 3.34642 82.9639 3.23206 82.9639 3.1177C82.9639 3.00334 82.9639 2.9271 82.9639 2.81274C82.9639 2.69838 82.9639 2.62214 82.9639 2.5459V0.487403H83.9169V5.36679H83.0401H83.0783ZM77.7033 5.36679V0.487403H78.6944V5.36679H77.7033ZM75.4161 5.36679V3.57514C75.4161 3.57514 75.4161 3.42266 75.4161 3.3083C75.4161 3.19394 75.4161 3.1177 75.4161 3.00334C75.4161 2.88898 75.4161 2.81273 75.4161 2.69837C75.4161 2.62213 75.4161 2.54589 75.4161 2.50777C75.4161 2.58402 75.3399 2.7365 75.2636 2.88898C75.1874 3.04146 75.1493 3.19394 75.073 3.34642L74.0819 5.51927L73.0908 3.34642C73.0908 3.34642 72.9764 3.07958 72.9002 2.88898C72.8239 2.7365 72.7858 2.62214 72.7477 2.50777C72.7477 2.54589 72.7477 2.62213 72.7477 2.69837C72.7477 2.77461 72.7477 2.88898 72.7477 3.00334C72.7477 3.1177 72.7477 3.23206 72.7477 3.3083C72.7477 3.42266 72.7477 3.4989 72.7477 3.57514V5.36679H71.7947V0.487403H72.7477L73.7769 2.69837C73.7769 2.69837 73.8532 2.85086 73.8913 2.9271C73.8913 3.00334 73.9675 3.07958 73.9675 3.15582C73.9675 3.23206 74.0057 3.3083 74.0438 3.34642C74.0438 3.42266 74.0819 3.46078 74.12 3.4989C74.12 3.42266 74.1963 3.27018 74.2725 3.1177C74.3487 2.96522 74.3868 2.81274 74.4631 2.66026L75.4542 0.449289H76.4072V5.32867H75.4161V5.36679ZM67.7921 2.08845C67.7921 1.85973 67.7158 1.70725 67.6015 1.63101C67.4871 1.55477 67.2965 1.47853 67.1059 1.47853H65.8479V2.73649H67.1059C67.5633 2.73649 67.7921 2.50777 67.7921 2.08845ZM67.6777 5.36679L66.8009 3.61326H65.8098V5.36679H64.8187V0.487403H67.1059C67.3346 0.487403 67.5633 0.487404 67.7539 0.563645C67.9445 0.639885 68.1351 0.716125 68.2876 0.868606C68.4401 0.982967 68.5545 1.17357 68.6307 1.36417C68.7069 1.55477 68.7451 1.7835 68.7451 2.05034C68.7451 2.43154 68.6688 2.69838 68.5163 2.96522C68.3639 3.19394 68.1351 3.38454 67.8302 3.4989L68.7451 5.40491H67.6396L67.6777 5.36679ZM62.8364 2.9271C62.8364 2.69838 62.8364 2.50778 62.7602 2.31718C62.7221 2.12658 62.6458 1.97409 62.5696 1.82161C62.4934 1.66913 62.379 1.55477 62.2265 1.47853C62.074 1.40229 61.9216 1.36417 61.731 1.36417C61.5404 1.36417 61.3498 1.40229 61.2354 1.47853C61.0829 1.55477 60.9686 1.66913 60.8923 1.82161C60.8161 1.97409 60.7398 2.12658 60.7017 2.31718C60.6636 2.50778 60.6255 2.69838 60.6255 2.9271C60.6255 3.15582 60.6255 3.34642 60.7017 3.53702C60.7398 3.72762 60.8161 3.8801 60.8923 4.03258C60.9686 4.18506 61.0829 4.29942 61.2354 4.37566C61.3879 4.4519 61.5404 4.49003 61.731 4.49003C61.9216 4.49003 62.1122 4.4519 62.2265 4.37566C62.379 4.29942 62.4934 4.18506 62.5696 4.03258C62.6458 3.8801 62.7221 3.72762 62.7602 3.53702C62.7983 3.34642 62.8364 3.15582 62.8364 2.9271ZM63.8276 2.9271C63.8276 3.3083 63.7894 3.65138 63.6751 3.95635C63.5988 4.26131 63.4464 4.52814 63.2558 4.75687C63.0652 4.98559 62.8364 5.13807 62.6077 5.29055C62.3409 5.40491 62.0359 5.48115 61.731 5.48115C61.426 5.48115 61.0829 5.40491 60.8542 5.29055C60.6255 5.17619 60.3586 4.98559 60.2061 4.75687C60.0155 4.52814 59.9012 4.26131 59.7868 3.95635C59.6725 3.65138 59.6343 3.3083 59.6343 2.9271C59.6343 2.5459 59.6725 2.20281 59.7868 1.89785C59.8631 1.59289 60.0155 1.32605 60.2061 1.09733C60.3967 0.868611 60.6255 0.716126 60.8542 0.563645C61.0829 0.411164 61.426 0.373047 61.731 0.373047C62.0359 0.373047 62.379 0.449284 62.6077 0.563645C62.8746 0.678005 63.1033 0.868611 63.2558 1.09733C63.4464 1.32605 63.5607 1.59289 63.6751 1.89785C63.7513 2.20281 63.8276 2.5459 63.8276 2.9271ZM56.7372 1.44041V2.3553H58.2239V3.3083H56.7372V5.36679H55.7461V0.487403H59.215V1.44041H56.6991H56.7372ZM51.6291 5.36679L49.8375 2.69837C49.8375 2.69837 49.7231 2.50777 49.6469 2.39341C49.5706 2.27905 49.5325 2.20281 49.4944 2.12657C49.4944 2.16469 49.4944 2.24094 49.4944 2.31718C49.4944 2.39342 49.4944 2.50778 49.4944 2.62214C49.4944 2.7365 49.4944 2.81274 49.4944 2.9271C49.4944 3.04146 49.4944 3.1177 49.4944 3.19394V5.32867H48.5414V0.449289H49.4563L51.1717 3.04145C51.1717 3.04145 51.286 3.23206 51.3623 3.34642C51.4385 3.46078 51.4766 3.53702 51.5148 3.61326C51.5148 3.57514 51.5148 3.4989 51.5148 3.42266C51.5148 3.34642 51.5148 3.23206 51.5148 3.1177C51.5148 3.00334 51.5148 2.9271 51.5148 2.81274C51.5148 2.69838 51.5148 2.62214 51.5148 2.5459V0.487403H52.4678V5.36679H51.591H51.6291ZM47.3215 3.23206C47.3215 3.95634 47.1309 4.49003 46.7878 4.87123C46.4448 5.25243 45.9492 5.44303 45.3393 5.44303C45.0343 5.44303 44.7675 5.40491 44.5388 5.29055C44.31 5.17619 44.0813 5.06183 43.9288 4.87123C43.7382 4.68063 43.6239 4.45191 43.5095 4.18506C43.4333 3.91822 43.357 3.61326 43.357 3.23206V0.487403H44.3482V3.19394C44.3482 3.57514 44.4244 3.91822 44.615 4.10882C44.8056 4.33754 45.0343 4.4519 45.3393 4.4519C45.6442 4.4519 45.9111 4.33754 46.0636 4.10882C46.2542 3.8801 46.3304 3.57514 46.3304 3.19394V0.449289H47.3215V3.15582V3.23206ZM40.0406 1.44041V2.3553H41.5273V3.3083H40.0406V5.36679H39.0495V0.487403H42.5565V1.44041H40.0406ZM35.9998 3.91822C35.9998 4.14695 35.9998 4.37567 35.8855 4.56627C35.8092 4.75687 35.6949 4.90935 35.5424 5.06183C35.3899 5.21431 35.1993 5.29055 34.9325 5.36679C34.7037 5.44303 34.3988 5.48115 34.0557 5.48115C33.6364 5.48115 33.2933 5.40491 32.9502 5.25242C32.6071 5.09994 32.3403 4.87122 32.1878 4.60438L32.874 3.99446C33.0646 4.18506 33.2552 4.33754 33.4458 4.41378C33.6745 4.49002 33.8651 4.52815 34.1319 4.52815C34.4369 4.52815 34.6275 4.49002 34.78 4.41378C34.9325 4.33754 34.9706 4.18506 34.9706 3.99446C34.9706 3.91822 34.9706 3.84198 34.9325 3.80386C34.9325 3.72762 34.8562 3.6895 34.78 3.65138C34.7037 3.61326 34.5894 3.53702 34.4369 3.4989C34.2844 3.46078 34.0938 3.42266 33.8651 3.34642C33.6364 3.3083 33.4458 3.23206 33.2552 3.15582C33.0646 3.07958 32.9121 3.00334 32.7596 2.88898C32.6071 2.77462 32.5309 2.66025 32.4547 2.46965C32.3784 2.31717 32.3403 2.08845 32.3403 1.85973C32.3403 1.63101 32.3784 1.44041 32.4928 1.24981C32.569 1.05921 32.7215 0.906724 32.874 0.792364C33.0265 0.678003 33.2171 0.563644 33.4458 0.525524C33.6745 0.449283 33.8651 0.411168 34.1319 0.411168C34.5131 0.411168 34.8562 0.487405 35.1231 0.601766C35.3899 0.754247 35.6567 0.906726 35.8855 1.17357L35.1993 1.85973C35.1993 1.85973 34.8562 1.55477 34.7038 1.47853C34.5132 1.40229 34.3226 1.36417 34.0938 1.36417C33.9795 1.36417 33.8651 1.36417 33.7507 1.36417C33.6745 1.36417 33.5983 1.44041 33.522 1.47853C33.4839 1.51665 33.4077 1.55477 33.4077 1.63101C33.4077 1.66913 33.4077 1.74537 33.4077 1.78349C33.4077 1.85973 33.4077 1.93597 33.4458 1.97409C33.4458 2.01221 33.522 2.08845 33.5983 2.12657C33.6745 2.16469 33.7889 2.20281 33.9032 2.24093C34.0176 2.24093 34.1701 2.31718 34.3988 2.3553C34.5894 2.39342 34.78 2.46965 34.9706 2.50777C35.1612 2.58402 35.3518 2.66025 35.5043 2.77461C35.6568 2.88898 35.7711 3.04146 35.8855 3.19394C35.9998 3.34642 36.038 3.57514 36.038 3.84198L35.9998 3.91822ZM31.5017 3.91822C31.5017 4.14695 31.5016 4.37567 31.3873 4.56627C31.311 4.75687 31.1967 4.90935 31.0442 5.06183C30.8917 5.21431 30.7011 5.29055 30.4343 5.36679C30.2056 5.44303 29.9006 5.48115 29.5575 5.48115C29.1382 5.48115 28.7951 5.40491 28.452 5.25242C28.1089 5.09994 27.8421 4.87122 27.6896 4.60438L28.3758 3.99446C28.5664 4.18506 28.757 4.33754 28.9476 4.41378C29.1763 4.49002 29.3669 4.52815 29.6338 4.52815C29.9387 4.52815 30.1293 4.49002 30.2818 4.41378C30.4343 4.33754 30.4724 4.18506 30.4724 3.99446C30.4724 3.91822 30.4724 3.84198 30.4343 3.80386C30.4343 3.72762 30.3581 3.6895 30.2818 3.65138C30.2056 3.61326 30.0912 3.53702 29.9387 3.4989C29.7862 3.46078 29.5956 3.42266 29.3669 3.34642C29.1382 3.3083 28.9476 3.23206 28.757 3.15582C28.5664 3.07958 28.4139 3.00334 28.2614 2.88898C28.109 2.77462 28.0327 2.66025 27.9565 2.46965C27.8802 2.31717 27.8421 2.08845 27.8421 1.85973C27.8421 1.63101 27.8802 1.44041 27.9946 1.24981C28.0708 1.05921 28.2233 0.906724 28.3758 0.792364C28.5283 0.678003 28.7189 0.563644 28.9476 0.525524C29.1763 0.449283 29.3669 0.411168 29.6338 0.411168C30.015 0.411168 30.358 0.487405 30.6249 0.601766C30.8917 0.754247 31.1586 0.906726 31.3873 1.17357L30.7011 1.85973C30.7011 1.85973 30.3581 1.55477 30.2056 1.47853C30.015 1.40229 29.8244 1.36417 29.5956 1.36417C29.4813 1.36417 29.3669 1.36417 29.2526 1.36417C29.1763 1.36417 29.1001 1.44041 29.0238 1.47853C28.9857 1.51665 28.9476 1.55477 28.9095 1.63101C28.9095 1.66913 28.9095 1.74537 28.9095 1.78349C28.9095 1.85973 28.9095 1.93597 28.9476 1.97409C28.9476 2.01221 29.0238 2.08845 29.1001 2.12657C29.1763 2.16469 29.2907 2.20281 29.405 2.24093C29.5194 2.24093 29.6719 2.31718 29.9006 2.3553C30.0912 2.39342 30.2818 2.46965 30.4724 2.50777C30.663 2.58402 30.8536 2.66025 31.0061 2.77461C31.1586 2.88898 31.2729 3.04146 31.3873 3.19394C31.5016 3.38454 31.5398 3.57514 31.5398 3.84198L31.5017 3.91822ZM23.5345 5.36679V0.487403H26.9272V1.44041H24.5257V2.27906H25.9361V3.23206H24.5257V4.41378H27.0416V5.36679H23.5727H23.5345ZM19.1888 5.36679V0.487403H20.18V4.41378H22.6196V5.36679H19.1888ZM17.2447 2.9271C17.2447 2.43154 17.1303 2.05033 16.9016 1.82161C16.6729 1.59289 16.2917 1.44041 15.7961 1.44041H15.2625V4.41378H15.758C16.0249 4.41378 16.2155 4.41378 16.4061 4.29942C16.5967 4.22318 16.7491 4.10882 16.8635 3.99446C16.9779 3.8801 17.0922 3.6895 17.1303 3.53702C17.2066 3.34642 17.2066 3.15582 17.2066 2.9271H17.2447ZM18.2358 2.9271C18.2358 3.34642 18.1596 3.72762 18.0071 4.03258C17.8546 4.33754 17.664 4.60439 17.4353 4.79499C17.2066 4.98559 16.9397 5.13807 16.6348 5.21431C16.3298 5.29055 16.0249 5.36679 15.7199 5.36679H14.2713V0.487403H15.7961C16.1392 0.487403 16.4823 0.525526 16.7491 0.601766C17.0541 0.678006 17.2828 0.830489 17.5115 1.02109C17.7403 1.21169 17.8927 1.47853 18.0071 1.78349C18.1215 2.08845 18.1977 2.46966 18.1977 2.9271H18.2358ZM12.1747 5.36679L10.3831 2.69837C10.3831 2.69837 10.2687 2.50777 10.1925 2.39341C10.1162 2.27905 10.0781 2.20281 10.04 2.12657C10.04 2.16469 10.04 2.24094 10.04 2.31718C10.04 2.39342 10.04 2.50778 10.04 2.62214C10.04 2.7365 10.04 2.81274 10.04 2.9271C10.04 3.04146 10.04 3.1177 10.04 3.19394V5.32867H9.08699V0.449289H10.0019L11.7173 3.04145C11.7173 3.04145 11.8316 3.23206 11.9079 3.34642C11.9841 3.46078 12.0222 3.53702 12.0604 3.61326C12.0604 3.57514 12.0604 3.4989 12.0604 3.42266C12.0604 3.34642 12.0604 3.23206 12.0604 3.1177C12.0604 3.00334 12.0604 2.9271 12.0604 2.81274C12.0604 2.69838 12.0604 2.62214 12.0604 2.5459V0.487403H13.0134V5.36679H12.1366H12.1747ZM6.79977 5.36679V0.487403H7.7909V5.36679H6.79977ZM4.47445 5.36679V3.57514C4.47445 3.57514 4.47445 3.42266 4.47445 3.3083C4.47445 3.19394 4.47445 3.1177 4.47445 3.00334C4.47445 2.88898 4.47445 2.81273 4.47445 2.69837C4.47445 2.62213 4.47445 2.54589 4.47445 2.50777C4.47445 2.58402 4.3982 2.7365 4.32196 2.88898C4.24572 3.04146 4.20761 3.19394 4.13137 3.34642L3.14023 5.51927L2.14911 3.34642C2.14911 3.34642 2.03476 3.07958 1.95852 2.88898C1.88228 2.7365 1.84415 2.62214 1.80603 2.50777C1.80603 2.54589 1.80603 2.62213 1.80603 2.69837C1.80603 2.77461 1.80603 2.88898 1.80603 3.00334C1.80603 3.1177 1.80603 3.23206 1.80603 3.3083C1.80603 3.42266 1.80603 3.4989 1.80603 3.57514V5.36679H0.853027V0.487403H1.80603L2.83528 2.69837C2.83528 2.69837 2.91151 2.85086 2.94963 2.9271C2.94963 3.00334 3.02588 3.07958 3.02588 3.15582C3.02588 3.23206 3.064 3.3083 3.10212 3.34642C3.10212 3.42266 3.14024 3.46078 3.17836 3.4989C3.17836 3.42266 3.25459 3.27018 3.33083 3.1177C3.40707 2.96522 3.4452 2.81274 3.52144 2.66026L4.51256 0.449289H5.46557V5.32867H4.47445V5.36679Z" fill="white"/>
</svg>
