<svg width="29" height="48" viewBox="0 0 29 48" fill="none" xmlns="http://www.w3.org/2000/svg">
<path d="M28.3304 1.75342V23.8531L26.8979 23.9106C26.2809 23.9315 24.2576 23.942 22.7101 23.942C21.1625 23.942 19.1444 23.9367 18.5275 23.9106L17.095 23.8531V10.4375C17.095 10.4375 14.0731 10.8557 12.9856 11.0074V47.4689H0.505859L3.15133 0.467285L5.16942 0.571848C7.26071 0.68164 9.41996 0.80189 11.5426 0.875085L12.9856 0.922137V3.03956C13.6078 2.95591 16.3526 2.57426 17.095 2.46969V1.75342L18.5275 1.69591C19.1444 1.675 21.1678 1.66455 22.7101 1.66455C24.2524 1.66455 26.2809 1.66977 26.8979 1.69591L28.3304 1.75342Z" fill="white"/>
</svg>
