<svg width="32" height="47" viewBox="0 0 32 47" fill="none" xmlns="http://www.w3.org/2000/svg">
<path d="M29.9964 1.33355C27.649 1.2499 13.2662 0.523179 10.5109 0.382017L9.51231 0.334961L9.08359 1.23944C7.63015 4.31886 6.16624 7.38782 4.69711 10.4672C3.25412 13.4944 1.81115 16.5267 0.378618 19.5539L0.153809 20.0296L0.274047 20.542C1.18376 24.3325 2.08301 28.1334 2.98226 31.9343C3.95993 36.075 4.93762 40.2158 5.93098 44.3461L6.19762 45.4492L7.33213 45.4858C9.6796 45.5695 24.0624 46.2962 26.8177 46.4373L28.1666 46.5053L28.3705 45.1721C28.5482 44.0062 29.254 37.9729 29.3325 36.8906L29.4475 35.3692L27.9261 35.2856C25.6047 35.1601 23.273 35.0451 20.9412 34.93C19.0067 34.8359 17.0671 34.7418 15.1431 34.6425C14.7719 33.074 14.4007 31.5003 14.0243 29.9319C13.7106 28.6144 13.3969 27.2969 13.0884 25.9793C17.9768 26.2042 22.8495 26.4551 27.8163 26.7165L29.2854 26.795L29.3847 25.3258C29.5154 23.3809 30.2892 12.9036 30.5349 11.0842L30.6186 10.3679C31.0107 7.14732 31.4133 3.74376 31.4499 2.8811L31.5022 1.38583L30.0069 1.33355H29.9964ZM13.5223 18.0638C13.7262 17.6351 13.9249 17.2064 14.1288 16.7777C14.8921 15.1517 15.6607 13.531 16.4292 11.9102C17.5951 11.9677 18.761 12.0252 19.9269 12.0828C20.7791 12.1298 21.6261 12.1664 22.4783 12.2082C22.3057 14.3257 22.1332 16.3856 21.9502 18.4612C20.3765 18.388 18.7924 18.3096 17.2135 18.2416C15.9848 18.1841 14.7562 18.1266 13.5276 18.0638H13.5223Z" fill="white"/>
</svg>
