<svg width="81" height="101" viewBox="0 0 81 101" fill="none" xmlns="http://www.w3.org/2000/svg">
<path d="M35.0426 100.296C32.1601 100.296 29.5233 99.95 27.0742 99.2506C24.7078 98.578 22.5291 97.5591 20.6029 96.2206C20.1448 95.9032 19.7046 95.5703 19.2845 95.2195C19.0566 95.0876 18.8331 94.9491 18.6141 94.8016C14.7528 92.2095 12.9719 87.7627 12.1585 84.4846C11.4233 81.4993 11.1462 78.4692 11.3317 75.3989C10.7038 74.6928 10.0893 73.9598 9.49265 73.2023C8.43347 72.8314 7.43909 72.3376 6.50504 71.7186C4.13417 70.1365 2.3063 67.7277 1.21807 64.749C0.239331 62.063 -0.102557 58.9548 0.259442 56.0007C0.368935 55.1024 0.532058 54.213 0.742107 53.3348C0.639317 52.8455 0.565577 52.3494 0.518651 51.8511C0.357763 50.1037 0.52312 48.2713 1.03707 46.1977C1.24935 43.5698 1.68062 40.9799 2.33312 38.4258C3.96882 31.9389 7.05698 25.2352 11.2602 19.0298C13.9126 15.1127 16.7192 11.8815 19.5973 9.43017C23.1436 6.4068 26.9155 4.45827 30.8126 3.63595C33.5723 3.05273 36.4884 3.04602 39.4023 3.59572L39.5453 3.52198C44.7138 0.503091 50.7337 -0.667821 56.3045 0.371251C58.9681 0.867324 61.4842 1.90863 63.5914 3.38121C65.9042 4.99903 67.6382 7.09952 68.6035 9.45698C70.0605 13.0122 69.7722 16.9852 69.2985 20.4041C69.2694 20.6141 69.2404 20.8264 69.2069 21.0387C70.8515 24.5984 71.3364 28.4619 71.5554 31.2417C71.5822 31.5657 71.6045 31.8897 71.6247 32.216C72.6056 32.8193 73.381 33.7869 73.8972 35.0673C74.5095 36.5868 74.6614 38.2784 74.6771 39.4448C75.7206 40.4638 76.6055 41.6056 77.3317 42.8682C78.3842 44.6781 79.1685 46.7965 79.5998 48.9931C80.4646 53.4063 80.011 57.8487 79.4523 61.6117C78.4311 68.4785 76.8379 73.8593 74.476 78.3753C73.238 82.326 71.3677 86.0511 69.446 89.5638C67.493 93.1391 65.0707 97.1121 61.0418 98.9825C58.7938 100.028 56.2375 100.354 53.2342 99.9791C51.1941 99.7243 49.1584 99.1679 47.3104 98.5691C45.2278 99.1322 43.1183 99.5612 40.9799 99.8584C39.0112 100.142 37.0314 100.287 35.0426 100.296ZM27.6127 96.9557L27.7177 96.987C31.4338 98.0462 35.6661 98.2227 40.6581 97.5255C41.4983 97.4093 42.3295 97.2708 43.1563 97.1144C41.0715 96.3412 39 95.5033 36.9979 94.5625C33.9812 95.7871 31.2841 96.5356 28.8037 96.844C28.3993 96.8932 28.0038 96.9311 27.6127 96.9557ZM51.3929 97.2708C54.3649 97.9389 57.3793 98.0887 60.0519 96.8462C63.4305 95.2753 65.607 91.6799 67.3812 88.4331C67.8415 87.5951 68.2952 86.746 68.7398 85.8835C68.646 85.984 68.5521 86.0868 68.4583 86.1874C64.9858 89.9057 60.758 92.9894 55.8956 95.3558C54.4275 96.0708 52.9258 96.7077 51.3929 97.2708ZM39.9095 93.2866C42.0525 94.2095 44.258 95.0295 46.4613 95.796C46.7607 95.901 47.0646 96.006 47.3707 96.1088C53.6878 94.3011 59.386 91.2621 64.0115 87.2175C63.1311 87.3292 62.2484 87.3583 61.3635 87.3024C61.1624 87.2912 60.9636 87.2756 60.7647 87.2555C56.0654 90.3794 51.4644 92.1626 47.0691 92.5559C45.373 92.9514 43.5496 92.9268 41.6279 92.4777C41.0581 92.7525 40.486 93.0207 39.9095 93.2866ZM20.6744 93.3045C24.033 95.1547 28.4708 95.0966 34.1466 93.119C31.7601 91.8185 29.5188 90.328 27.5144 88.5672C26.1267 88.7415 24.7569 88.6476 23.4073 88.2856C21.8543 87.8611 20.2811 87.0454 18.7326 85.8611C17.4611 84.8846 16.3259 83.7696 15.3271 82.516C15.5617 85.3159 16.3282 87.7404 17.6198 89.8163C18.413 91.0989 19.4521 92.2721 20.6744 93.3045ZM32.9667 89.6934C34.2918 90.5291 35.6594 91.2933 37.0672 91.9838C37.3643 91.8542 37.666 91.7224 37.9677 91.5861L38.4213 91.3805C38.2291 91.2956 38.0325 91.204 37.8358 91.1101C37.0135 90.7503 36.227 90.3258 35.4761 89.8364L35.3801 89.7783C34.5734 89.8074 33.7689 89.7805 32.9667 89.6934ZM52.0097 86.8376C51.241 87.3404 50.4544 87.803 49.6768 88.2499C48.4724 88.9426 47.2523 89.613 46.0166 90.2677L46.2512 90.2543C46.3987 90.2453 46.5439 90.2364 46.6914 90.2252C48.7539 89.6979 50.5013 88.3839 52.0097 86.8376ZM39.3397 89.1817C40.0771 89.4699 40.8302 89.7001 41.5988 89.8744C43.9429 88.7236 46.2534 87.4968 48.5059 86.2052C49.7997 85.4634 51.1226 84.6723 52.2957 83.7316C51.8577 83.3897 51.4309 83.0255 51.0198 82.6389C48.4433 84.8578 45.7462 86.6298 43.1027 87.832C41.8871 88.3907 40.6335 88.8398 39.3397 89.1817ZM55.9045 85.9282C55.2341 86.7885 54.5213 87.613 53.766 88.4018C55.0375 87.8588 56.271 87.2376 57.4642 86.5382C56.9346 86.3617 56.414 86.1583 55.9045 85.9282ZM34.2203 85.6578C34.779 86.2969 35.3979 86.8711 36.0795 87.3784C41.3173 86.9181 46.0724 83.7875 49.3997 80.9294C49.2187 80.7172 49.0444 80.5004 48.8746 80.2814C46.9864 80.3619 45.1138 80.2099 43.2614 79.8278C42.4748 80.0222 41.6793 80.1675 40.8748 80.2635C40.0525 80.3596 39.2302 80.3887 38.4034 80.3485C38.2001 80.773 37.9833 81.1842 37.7487 81.5864C36.8258 83.1618 35.6482 84.5182 34.2203 85.6578ZM27.8608 85.6712C28.073 85.7784 28.2876 85.8812 28.5043 85.9818C28.8663 85.8879 29.2238 85.774 29.5747 85.6421C27.4697 83.9193 25.5078 82.0467 23.6888 80.0222C24.1648 80.9518 24.7056 81.8434 25.3156 82.6925C26.082 83.7562 26.9312 84.7483 27.8608 85.6712ZM17.2578 81.1596C18.1136 82.2166 19.0812 83.1618 20.1605 83.9908C21.309 84.8667 22.4509 85.4991 23.5637 85.8745C23.224 85.6511 22.8933 85.4276 22.5715 85.2064C20.88 84.0422 19.0789 82.6948 17.2578 81.1596ZM72.8939 62.834C73.1084 64.5255 73.1531 66.2216 73.028 67.9243C72.6995 72.4046 71.209 76.5743 68.713 79.9842C67.4706 81.6825 65.931 83.2847 64.0584 84.8288C65.5913 84.5964 66.9522 83.9819 68.141 82.9852C69.9621 80.7909 71.4973 78.4089 72.7442 75.8436C73.0324 74.7129 73.2469 73.571 73.3922 72.4135C73.7788 69.3187 73.6112 66.1255 72.8939 62.834ZM57.3637 84.002C58.2754 84.3729 59.2184 84.6388 60.1882 84.8019C63.0372 82.8221 65.2092 80.7864 66.8159 78.5921C69.3588 75.1174 70.6861 70.7331 70.7308 66.2752C69.0192 69.3768 66.8002 72.0605 64.0741 74.3241C63.788 74.8738 63.4819 75.4145 63.1557 75.9441C62.3847 77.2022 61.5356 78.2815 60.6328 79.1686C59.558 80.8803 58.4743 82.4847 57.3637 84.002ZM31.1813 77.3273C31.2595 79.658 31.836 81.8613 32.8729 83.7271C34.0214 82.7886 34.9689 81.6803 35.7152 80.3999C35.7935 80.2658 35.8694 80.1317 35.9432 79.9932C35.7666 79.9507 35.5923 79.9038 35.4203 79.8524C33.7444 79.3563 32.3321 78.4982 31.2908 77.3541L31.1813 77.3273ZM21.7559 73.8392C24.0061 77.0927 26.7368 80.125 29.8853 82.8445C29.1702 80.9339 28.8082 78.8267 28.8194 76.6525C28.1267 76.4246 27.4384 76.1676 26.7569 75.8883C25.1189 75.2112 23.5481 74.4023 22.0487 73.4615C21.9392 73.4839 21.8274 73.5085 21.7179 73.5308C21.7314 73.6336 21.7425 73.7364 21.7559 73.8392ZM53.9694 82.0758L54.0118 82.1071L54.0364 82.078L53.9694 82.0758ZM15.5573 76.4313C17.5907 78.42 19.7538 80.2546 22.0442 81.9372C20.7414 79.6245 19.8789 77.1441 19.4968 74.6548C19.3426 74.4269 19.1929 74.1989 19.0432 73.971C18.013 74.1006 16.9807 74.1721 15.9416 74.1855C15.7874 74.9542 15.66 75.7028 15.5573 76.4313ZM54.09 79.7228C54.2264 79.7295 54.3627 79.7295 54.5034 79.7228C54.8811 79.7071 55.2543 79.649 55.6207 79.553C55.7079 79.3586 55.7883 79.1619 55.8643 78.963C55.3749 79.1306 54.8811 79.2826 54.3828 79.4189C54.2867 79.5217 54.1884 79.6222 54.09 79.7228ZM49.5427 77.1329C49.6857 77.3743 49.8354 77.6134 49.9919 77.8458C51.0533 77.743 52.1013 77.5642 53.1359 77.3117C54.5481 75.7967 55.8777 74.2124 57.1223 72.5565C57.1916 71.6627 57.2207 70.8181 57.2117 70.0181C56.8341 70.5164 56.4408 71.008 56.0341 71.4907C54.099 73.7632 51.9158 75.6626 49.5427 77.1329ZM40.171 67.8439C40.381 69.951 40.3855 71.9554 40.1844 73.8302C40.1151 74.4582 40.0257 75.0727 39.9095 75.6738C41.353 75.5486 42.7675 75.2738 44.153 74.8537C43.4066 73.5129 42.8256 72.1029 42.4122 70.6259C42.0994 69.5064 41.8759 68.369 41.7463 67.2137C41.5988 67.2763 41.4514 67.3388 41.3061 67.3992C40.9285 67.5556 40.5486 67.7053 40.171 67.8439ZM32.6047 75.2291C33.1924 75.3497 33.7846 75.4525 34.379 75.533C33.3779 74.6928 32.4707 73.7632 31.6528 72.742V72.7487C31.7735 73.6515 32.0908 74.4783 32.6047 75.2291ZM32.5355 69.9533C33.8762 72.0001 35.5745 73.6895 37.628 75.0168C37.9811 73.0526 38.0638 70.8963 37.8738 68.5947C36.1756 69.084 34.446 69.4125 32.6852 69.5779C32.6338 69.703 32.5846 69.8281 32.5355 69.9533ZM59.4128 73.4057C59.3971 73.5733 59.3793 73.7431 59.3614 73.9152C59.3279 74.2146 59.2921 74.5207 59.2519 74.8336C59.9178 74.4447 60.568 74.0247 61.2004 73.571C62.0652 72.0158 62.9344 70.3734 63.8104 68.6304C64.1389 67.4819 64.3847 66.3154 64.5478 65.1311C63.0484 68.0204 61.3367 70.7801 59.4128 73.4057ZM25.2999 72.5878C26.491 73.2157 27.72 73.7565 28.9892 74.2101C29.0585 73.6783 29.1523 73.1465 29.2685 72.6146C29.2216 72.094 29.2127 71.5711 29.244 71.0504C27.9613 71.6426 26.6452 72.1543 25.2999 72.5878ZM47.0825 66.6796C46.9886 68.2327 47.078 69.7745 47.3506 71.3074C47.469 71.9644 47.6255 72.6124 47.8221 73.2515C47.9986 73.1465 48.1729 73.0392 48.3428 72.9275C50.1706 71.7409 51.8309 70.1186 53.3549 68.0226C52.8968 68.0226 52.4409 67.998 51.9851 67.9511C50.1974 67.7656 48.4992 67.2495 47.0825 66.6796ZM16.8891 70.2952C16.7438 70.8114 16.6053 71.3186 16.4779 71.8191C16.8712 71.8057 17.2734 71.7812 17.6846 71.7454C17.4097 71.265 17.146 70.7823 16.8891 70.2952ZM10.9138 71.1957L11.0367 71.2314C10.963 70.0427 10.9764 68.8561 11.0792 67.6696C11.1373 67.0014 11.22 66.3333 11.3272 65.6629C9.10607 64.5456 7.10614 63.1312 5.44586 61.5066C6.80224 65.0931 8.71949 68.3243 10.9138 71.1957ZM21.6844 70.3443C21.9593 70.5432 22.2364 70.7376 22.5179 70.9253C24.0307 70.5454 25.51 70.0583 26.9535 69.4661C25.3983 69.2494 23.8832 68.8695 22.4084 68.3265C22.2744 68.3265 22.138 68.331 22.0017 68.331C21.9213 68.684 21.8543 69.0416 21.7984 69.4013C21.7515 69.7142 21.7135 70.0293 21.6844 70.3443ZM44.0122 66.1411C44.1217 67.6293 44.3988 69.0863 44.8479 70.5119C44.6535 68.9209 44.6311 67.3277 44.7786 65.7322C44.5239 65.873 44.2691 66.0093 44.0122 66.1411ZM15.202 67.6897C14.9562 68.4181 14.7416 69.1578 14.5539 69.9041C14.7059 69.3611 14.869 68.8092 15.0433 68.2483C15.0992 68.0651 15.1573 67.8818 15.2154 67.7008L15.202 67.6897ZM59.3167 66.9232C59.4284 67.645 59.5022 68.3712 59.5357 69.1019C61.5401 66.007 63.2518 62.758 64.6685 59.3548C64.626 58.9011 64.5679 58.4498 64.4964 58.0006C64.4227 57.5291 64.3378 57.0867 64.2372 56.6777C64.083 57.0755 63.9221 57.4822 63.7545 57.8956C63.0931 60.4162 62.1881 63.053 60.425 65.0171C60.0742 65.654 59.7055 66.2886 59.3189 66.921L59.3167 66.9232ZM18.9672 68.1254C19.1549 68.2997 19.3471 68.4695 19.5392 68.6394C19.5638 68.4941 19.5929 68.3511 19.6219 68.2081C19.4029 68.1835 19.1862 68.1545 18.9694 68.1254H18.9672ZM2.58339 60.4385C2.96103 63.596 4.22802 66.4227 6.1855 68.4137C4.67717 65.8953 3.47498 63.2362 2.58339 60.4385ZM70.0828 60.5949C69.1666 62.8541 68.0873 65.2473 66.8181 67.8573C66.7421 68.0137 66.6662 68.1701 66.5902 68.3243C68.1723 66.2551 69.408 63.9959 70.2929 61.5469C70.2303 61.2273 70.161 60.91 70.0828 60.5949ZM37.5096 65.7434C37.2057 66.0048 36.8973 66.2618 36.5845 66.5143C36.9197 66.4271 37.2549 66.3355 37.59 66.235L37.5722 66.1232C37.5521 66.0003 37.5319 65.873 37.5096 65.7434ZM73.7832 57.4286C74.8313 60.3335 75.4994 63.1893 75.7899 65.9936C76.1988 63.1915 76.21 60.3871 75.8256 57.5805C75.5463 55.5895 74.9899 53.6834 74.1542 51.8578C74.2078 53.7259 74.0849 55.5828 73.7832 57.4286ZM22.7458 65.9355L22.7905 65.9534C23.8966 65.9065 24.9893 65.7746 26.0731 65.5557C25.1994 65.1356 24.3972 64.606 23.6665 63.9647C23.3201 64.6037 23.014 65.2607 22.7458 65.9355ZM47.3595 64.2395C49.2969 65.0864 52.2644 66.0406 54.9749 65.5154C55.3034 64.9523 55.6252 64.3602 55.9403 63.7434C55.8933 63.6429 55.8442 63.5423 55.795 63.4418C55.0688 62.0005 54.0722 60.7983 52.9057 59.7972C51.1896 61.4173 49.3438 62.8764 47.373 64.1747C47.3663 64.197 47.3618 64.2172 47.3595 64.2395ZM39.6481 64.3915C39.7263 64.7646 39.7956 65.1222 39.8514 65.4618C40.4391 65.2339 41.0223 64.9858 41.6033 64.7177C41.6033 64.387 41.61 64.0563 41.6234 63.7233C41.4514 63.6049 41.2793 63.4887 41.1072 63.3703C40.629 63.739 40.1419 64.0786 39.6458 64.3915H39.6481ZM18.9962 63.9781C19.5191 64.3222 20.0554 64.644 20.6118 64.9412C21.0096 63.9624 21.4788 63.0217 22.0196 62.1144C21.5146 61.3904 21.099 60.6195 20.775 59.7994C20.1515 61.1111 19.5594 62.501 18.994 63.9825L18.9962 63.9781ZM30.0797 60.5681C30.0126 61.8105 30.0819 63.044 30.2897 64.2708C30.7009 64.101 31.1098 63.9177 31.5143 63.7256C31.7176 63.33 31.9344 62.9323 32.1645 62.5278C32.4327 62.0608 32.7031 61.596 32.9779 61.1357C31.9969 61.0217 31.0294 60.834 30.0774 60.5704L30.0797 60.5681ZM24.9402 61.9312C25.7781 62.7379 26.7435 63.3412 27.8362 63.7457C27.682 62.425 27.6619 61.1044 27.7758 59.7816C27.5166 59.6743 27.2619 59.5626 27.0116 59.4464C26.2586 60.224 25.5681 61.053 24.9379 61.9334L24.9402 61.9312ZM3.72301 55.0286C5.25592 58.662 8.52062 61.4776 11.8255 63.2652C11.8345 63.2362 11.8412 63.2071 11.8479 63.1803C10.7753 61.4217 9.89711 59.5715 9.2178 57.6274C8.26141 54.8655 7.73182 52.0254 7.62232 49.1048C7.54188 47.0468 7.66255 44.9999 7.98432 42.9665C6.14304 45.9586 4.4336 49.1227 3.41688 52.4745C3.48838 53.3348 3.58894 54.1862 3.72301 55.0286ZM44.0725 62.501C44.3384 62.6619 44.6088 62.8228 44.8814 62.9792C44.9998 62.9077 45.116 62.834 45.2345 62.7602C45.4378 61.8262 45.6903 60.9033 45.9898 59.9938C46.2758 59.1291 46.6065 58.2732 46.9797 57.4241C46.6802 57.6475 46.3741 57.8643 46.059 58.0721C45.5428 58.805 45.011 59.4933 44.4636 60.1368C44.3988 60.4273 44.3407 60.7156 44.287 61.0061C44.1976 61.5022 44.1261 62.0005 44.0725 62.501ZM62.3222 53.1092C61.5959 56.1526 60.6105 59.1112 59.3681 61.9826C60.1748 60.3581 60.8786 58.7313 61.5155 57.1582C61.5825 56.9034 61.6451 56.6465 61.7099 56.3917C61.9669 55.3482 62.2104 54.2823 62.4294 53.2052C62.3937 53.1717 62.3602 53.1404 62.3222 53.1092ZM67.0639 59.6765C67.1108 60.2933 67.1377 60.91 67.1421 61.529C67.7566 60.0989 68.3555 58.6151 68.9164 57.0844C68.8024 56.8208 68.6862 56.5615 68.5633 56.3046C68.5164 56.2063 68.4695 56.1102 68.4203 56.0118C68.208 56.6465 67.9868 57.2766 67.7522 57.9023C67.5309 58.4967 67.303 59.0888 67.0639 59.6765ZM54.5861 58.119C55.5872 58.9995 56.452 59.9983 57.176 61.1178C58.4653 58.1392 59.4642 55.0666 60.177 51.898C59.9602 51.8198 59.7323 51.7461 59.4977 51.6746C59.3927 51.6433 59.2876 51.6165 59.1804 51.5852C59.0999 51.7572 59.015 51.9293 58.9279 52.0991C57.9 54.1303 56.4699 56.1146 54.5839 58.1235L54.5861 58.119ZM15.4589 59.8352C15.5416 60.1905 15.631 60.548 15.7226 60.9033C16.9449 58.8497 18.3259 57.1537 19.8431 55.8353C19.8387 55.775 19.832 55.7124 19.8275 55.6521C19.7337 54.4901 19.7381 53.3281 19.8387 52.1662C18.194 54.4678 16.7192 56.9191 15.5751 59.5581C15.5371 59.6519 15.4992 59.7436 15.4589 59.8352ZM49.4958 57.5917C49.0154 58.595 48.602 59.6229 48.2511 60.6754C49.174 59.9693 50.0768 59.2073 50.9594 58.3917C50.4857 58.1012 49.9963 57.8353 49.4958 57.5917ZM22.3548 56.8498C22.5648 57.9537 22.9157 59.0129 23.4564 59.9849C23.9056 59.3927 24.386 58.8185 24.8955 58.2598C24.491 57.9894 24.1 57.6945 23.7291 57.3772C23.4162 57.109 23.119 56.8252 22.8375 56.5258H22.8352C22.6743 56.6286 22.5134 56.7381 22.3548 56.8498ZM30.3925 57.9537C31.6863 58.4408 33.0226 58.7335 34.4036 58.8296C34.4996 58.6777 34.598 58.5257 34.6963 58.3738C33.9276 57.3034 32.969 56.3761 31.7779 55.7392C31.4316 55.9113 31.0964 56.1012 30.7702 56.3068C30.6204 56.8565 30.4953 57.4062 30.3925 57.9537ZM39.8827 55.0599C39.2637 55.8845 38.6604 56.7202 38.0727 57.5693C38.9017 56.6912 39.7352 55.88 40.5709 55.1381C40.3386 55.1091 40.1084 55.0845 39.8827 55.0599ZM16.5472 32.4685C14.7863 35.1969 13.5998 38.2895 12.7529 40.714C11.6646 43.8268 10.5854 47.4915 10.8133 51.0712C10.9451 53.127 11.5529 55.1359 12.5384 56.9973C12.0199 53.2522 12.0266 49.5093 12.5607 45.7686C13.1015 41.9095 14.1785 38.0326 15.7651 34.2427C16.0131 33.6461 16.2723 33.0562 16.5472 32.4685ZM50.6108 55.4934C51.3304 55.8487 52.0275 56.2442 52.6979 56.6845C54.4699 54.8298 55.8062 53.0153 56.7559 51.174C55.7123 51.098 54.6733 51.1226 53.6364 51.2545C52.5013 52.5773 51.4935 53.9918 50.6086 55.4957L50.6108 55.4934ZM35.3667 54.8633C35.6728 55.2409 35.9879 55.6119 36.3119 55.9739C36.5733 55.6007 36.837 55.2298 37.1029 54.8588C36.5353 54.8409 35.9521 54.8342 35.3667 54.8655V54.8633ZM22.5202 26.5849C16.4645 35.6393 13.6132 46.0569 14.7618 55.8465C16.4511 52.6935 18.5337 49.8266 20.728 47.154C21.6777 43.4827 23.0766 39.8359 24.9067 36.2404C24.4352 32.5065 24.5201 28.7614 25.186 25.1525C24.2676 25.5771 23.3805 26.0531 22.5202 26.5849ZM65.4774 53.3393C65.7947 53.9136 66.0517 54.5125 66.2505 55.1359C66.4539 54.5259 66.6483 53.9136 66.8315 53.2991C66.541 52.8723 66.2371 52.4544 65.9176 52.0455C65.7746 52.4812 65.6271 52.9125 65.4774 53.3393ZM28.4909 54.8834C28.482 54.9348 28.473 54.9862 28.4663 55.0376C28.5334 54.9884 28.6004 54.9393 28.6652 54.8901C28.6071 54.8834 28.549 54.8834 28.4909 54.8834ZM74.0536 47.2166C74.3776 47.6188 74.686 48.0434 74.9832 48.4925C76.1988 50.3428 77.1418 52.584 77.7228 54.9705C77.7608 53.1494 77.6513 51.2835 77.2915 49.4467C76.8088 46.9865 75.8659 44.7541 74.5743 42.9397C74.4693 44.343 74.2972 45.7686 74.0536 47.2166ZM41.572 52.8879C41.9206 52.9349 42.267 52.9885 42.6089 53.0443C43.1541 52.0366 43.639 50.9997 44.0613 49.9361C43.2077 50.8992 42.3787 51.8846 41.572 52.8879ZM26.0664 51.3304C26.015 51.7975 25.9927 52.269 26.0061 52.7404C26.1759 52.7069 26.348 52.6756 26.52 52.6488C26.7211 51.7528 26.9647 50.8657 27.2485 49.9852C26.8463 50.4187 26.453 50.8657 26.0664 51.3304ZM32.7813 51.2925C33.0785 51.7595 33.3891 52.2243 33.7064 52.6779C35.275 52.4187 36.8415 52.4768 38.2425 52.5594C38.428 52.5706 38.6157 52.584 38.7989 52.5974C40.2894 50.6712 41.8648 48.8121 43.5206 47.02C41.4514 47.2367 39.4358 46.9708 37.6437 46.2401C37.2593 46.0859 36.8862 45.9049 36.5242 45.7016C34.9711 47.6322 33.7511 49.4534 32.7813 51.2925ZM28.9669 52.546C29.1635 52.5594 29.3601 52.5796 29.5568 52.6041C29.7087 52.2354 29.8719 51.869 30.0439 51.5003C30.064 51.46 30.0819 51.4176 30.102 51.3774C29.9255 51.0735 29.749 50.7673 29.5791 50.459C29.349 51.1472 29.1456 51.8422 28.9669 52.546ZM23.2285 47.8289C23.2062 47.9205 23.1861 48.0121 23.1659 48.1037C22.8665 49.4668 22.7816 50.5841 22.909 51.5517C23.0296 51.3863 23.1503 51.2232 23.2732 51.0623C23.4542 50.8254 23.6352 50.593 23.8207 50.3584C23.8989 49.8355 24.0061 49.2836 24.1469 48.7048C24.3726 47.7417 24.6385 46.7876 24.9402 45.8424C24.3681 46.4904 23.7983 47.154 23.2307 47.8289H23.2285ZM70.1767 49.7394C70.4046 50.1372 70.6258 50.5349 70.8381 50.9282C71.0683 50.0366 71.2738 49.1339 71.4571 48.2244C71.4325 48.068 71.4057 47.9116 71.3766 47.7551C71.1621 47.5406 70.9386 47.335 70.7085 47.1384C70.5498 48.0076 70.3733 48.8747 70.1789 49.7394H70.1767ZM62.8629 50.5886L62.8831 50.602C62.9076 50.4433 62.93 50.2824 62.9501 50.126C62.9233 50.2802 62.8942 50.4344 62.8652 50.5886H62.8629ZM66.7421 49.3372C67.046 49.6836 67.3388 50.0366 67.6248 50.3986C67.6449 50.3182 67.665 50.2355 67.6829 50.1551C67.4237 49.7171 67.1555 49.2791 66.8807 48.8367C66.8338 49.0043 66.7891 49.1719 66.7421 49.3372ZM60.0742 49.3886L60.1636 49.4154C60.3267 49.4646 60.4876 49.5137 60.6463 49.5674C60.7826 48.7964 60.9055 48.0211 61.0083 47.2412L60.7669 47.0624C60.5747 47.8445 60.3446 48.6222 60.0764 49.3886H60.0742ZM30.7188 47.6032C30.9377 48.0501 31.1657 48.4925 31.4003 48.9328C32.3031 47.3976 33.3757 45.8602 34.6628 44.2603C33.5053 44.8636 32.4014 45.5519 31.3489 46.325C31.1277 46.7451 30.9176 47.1719 30.7188 47.6032ZM56.1213 48.7763C56.671 48.7942 57.2117 48.8367 57.748 48.9059C57.9581 48.3294 58.1458 47.744 58.3089 47.1518C57.5424 47.6434 56.814 48.1864 56.1213 48.7763ZM55.2632 43.9251C55.0241 45.0379 54.7135 46.1306 54.3269 47.2032C55.2811 46.3585 56.2978 45.6033 57.3816 44.9374C56.6911 44.5709 55.985 44.2335 55.2632 43.9251ZM67.6159 45.6435C67.8795 46.0368 68.1387 46.4278 68.3935 46.8189C68.4583 46.468 68.5186 46.1172 68.5767 45.7664C68.2773 45.6278 67.9734 45.5094 67.6605 45.4044C67.6449 45.4848 67.6293 45.5653 67.6159 45.6435ZM27.4161 45.8826C27.3133 46.1842 27.2127 46.4859 27.1189 46.7876C27.2775 46.6379 27.4384 46.4904 27.6015 46.3429C27.5367 46.1909 27.4742 46.0368 27.4138 45.8826H27.4161ZM48.9997 45.3284C48.9327 45.7172 48.8589 46.106 48.7785 46.4948C48.964 46.258 49.1561 46.0234 49.3505 45.7865C49.4288 45.5273 49.5047 45.2681 49.5762 45.0066C49.3863 45.1184 49.1919 45.2256 48.9975 45.3284H48.9997ZM28.4105 15.611C26.4105 16.1115 24.6117 16.8981 23.0185 17.9662C20.2789 19.8052 18.1493 22.5001 16.0891 25.1056C11.2848 31.1836 6.31734 37.465 3.87049 44.8882C3.73195 45.3061 3.60682 45.7105 3.49732 46.106C4.49841 44.1396 5.63803 42.2492 6.7933 40.428C7.80109 38.837 8.89156 37.1879 10.0848 35.55C10.534 34.4774 11.0434 33.4316 11.6088 32.4149C13.0255 29.8585 14.7841 27.5659 16.8846 25.5347C19.0633 23.4386 21.5124 21.7292 24.2341 20.4108C25.4497 18.9606 26.7345 17.5751 28.0887 16.2545C28.1937 16.04 28.301 15.8255 28.4105 15.611ZM28.7121 42.6224C28.9468 43.3486 29.2037 44.0703 29.4808 44.7832L29.5054 44.7653C30.5847 42.7855 31.8718 40.9509 33.3667 39.2616C33.4494 38.8281 33.5678 38.4035 33.7198 37.9901C33.874 37.5678 34.055 37.1566 34.265 36.7589C32.6047 38.0236 31.0383 39.4314 29.5411 40.9151C29.2507 41.476 28.9736 42.0458 28.7121 42.6224ZM38.0816 43.8581C38.2358 43.934 38.3878 43.9988 38.5308 44.0569C40.6804 44.9307 43.2591 44.9307 45.7328 44.1508C45.878 43.3799 45.9987 42.6 46.0926 41.809C43.8289 41.6995 41.619 41.8961 39.5609 42.3967L39.3643 42.4458C38.9174 42.9263 38.4906 43.3977 38.0816 43.8603V43.8581ZM68.0203 43.0492C68.3264 43.1385 68.6303 43.2413 68.9275 43.3575C69.0281 42.5419 69.1152 41.7218 69.1823 40.9017C68.9186 40.3431 68.6125 39.7487 68.2594 39.1431C68.2594 40.4526 68.1812 41.7531 68.0203 43.0514V43.0492ZM56.3916 41.8403C57.3235 42.2447 58.2307 42.6939 59.1178 43.1899C59.3078 41.8492 59.4284 40.5174 59.5178 39.2236C58.443 40.0571 57.4017 40.9308 56.3916 41.8425V41.8403ZM65.455 42.6201C65.5355 42.6224 65.6159 42.6291 65.6964 42.6335C65.8662 41.2123 65.931 39.7867 65.8908 38.3543C65.8863 38.2002 65.8796 38.0482 65.8707 37.894C65.2405 37.8247 64.6059 37.7935 63.9713 37.8002C64.6685 39.2906 65.1087 40.8638 65.3567 42.486L65.455 42.6201ZM71.5688 40.4571C71.8168 41.0112 72.047 41.5743 72.2593 42.1486C72.2928 41.5989 72.3129 41.0492 72.3196 40.4995C72.0827 40.3073 71.8436 40.1263 71.6001 39.9543C71.5911 40.1219 71.58 40.2895 71.5688 40.4571ZM35.6057 40.3006C35.5901 40.6023 35.6147 40.9017 35.675 41.1967C36.4705 40.8705 37.2817 40.5867 38.1062 40.3498C38.2671 40.18 38.428 40.0124 38.5934 39.8426C40.2894 38.0884 42.1374 36.3142 44.2937 34.9355C43.8826 34.8572 43.4803 34.7701 43.0848 34.6762C40.781 35.8539 38.6872 37.3264 36.8035 39.0962C36.3923 39.485 35.9946 39.8872 35.608 40.3029L35.6057 40.3006ZM49.4846 39.8068C49.8712 39.8694 50.2555 39.9409 50.6421 40.0213C50.8008 38.9577 50.917 37.8873 50.9907 36.8147C51.022 36.3745 51.0399 35.9522 51.0443 35.5433C50.2757 35.5388 49.5248 35.5164 48.7941 35.4762C49.3327 36.9354 49.4779 38.475 49.4869 39.809L49.4846 39.8068ZM46.316 36.4661C44.8345 37.3041 43.4848 38.3901 42.2312 39.5565C43.5809 39.4202 44.9328 39.3889 46.2892 39.4604C46.3406 38.4705 46.3518 37.4739 46.3182 36.4661H46.316ZM27.7468 39.0113C27.758 39.0716 27.7714 39.1253 27.7825 39.1811C27.8697 39.0202 27.9568 38.8616 28.0462 38.7029L28.0999 38.6091C27.9792 38.7409 27.863 38.875 27.7468 39.0113ZM53.3415 36.9868C53.3057 37.5141 53.2588 38.0393 53.2029 38.5666C53.299 38.4415 53.3951 38.3119 53.489 38.1823C53.489 38.0124 53.4822 37.8404 53.4778 37.6728C53.4398 37.4426 53.3929 37.2125 53.3415 36.9868ZM71.723 37.2661C71.866 37.3421 72.0068 37.4225 72.1475 37.5052C72.0604 36.989 71.9241 36.484 71.7386 35.9946C71.7386 36.417 71.7319 36.8415 71.723 37.2661ZM57.1849 36.7432L57.176 36.7589L57.1939 36.7522L57.1849 36.7432ZM69.1488 36.1779C69.227 36.2025 69.3052 36.2293 69.3834 36.2538C69.3879 35.4628 69.3745 34.6695 69.3454 33.8785C68.8382 33.8293 68.3041 33.921 67.7633 34.0975C67.7924 34.2427 67.8214 34.3858 67.846 34.5332C68.3108 35.0584 68.7443 35.6081 69.1488 36.1779ZM58.4676 34.7545C58.8944 35.0852 59.301 35.4405 59.6921 35.8136C59.6921 35.7488 59.6966 35.6863 59.6988 35.6215C59.3904 35.2908 59.0642 34.9801 58.7201 34.6852C58.6374 34.7098 58.5525 34.7321 58.4698 34.7545H58.4676ZM35.0873 5.5532C33.8114 5.55097 32.5489 5.68057 31.2997 5.93978C24.853 7.30286 18.7683 12.1496 13.2087 20.3527C9.81666 25.3581 7.26479 30.5267 5.60005 35.6483C6.0559 34.8796 6.54527 34.102 7.06145 33.3109C9.31836 29.8742 11.935 26.567 14.2433 23.6487C16.4153 20.9002 18.6611 18.0578 21.7068 16.0132C24.0821 14.4155 26.8329 13.3786 29.9545 12.9027C30.6987 11.3072 31.6595 9.85697 32.8394 8.55198C33.8449 7.44364 34.9555 6.45373 36.1711 5.58448C35.8091 5.56437 35.4471 5.55544 35.0873 5.5532ZM65.0349 35.4628L65.2159 35.4718C65.3232 35.4785 65.4282 35.4852 65.5355 35.4919C65.4684 35.4226 65.3992 35.3556 65.3299 35.2885L65.0349 35.4628ZM32.4081 28.6139C30.8394 30.7434 29.4048 32.9601 28.1066 35.2617C29.53 33.9746 31.0897 32.8841 32.7857 31.9858C33.2595 31.4473 33.7488 30.9222 34.2516 30.4105C33.5946 29.8563 32.9801 29.2574 32.4081 28.6139ZM48.3673 32.6048L48.3785 32.6897C48.3919 32.8015 48.4053 32.9109 48.4187 33.0204C49.1874 32.797 49.9695 32.6428 50.765 32.5579C50.5885 32.4149 50.403 32.2808 50.2108 32.1557C49.5919 32.2853 48.9774 32.435 48.3673 32.6048ZM55.1135 32.5221C55.1515 32.6696 55.1895 32.8171 55.2252 32.9668C55.4576 32.94 55.6855 32.9087 55.909 32.873C55.6475 32.7456 55.3816 32.6294 55.1135 32.5221ZM27.8049 24.1336C27.7602 24.3213 27.72 24.509 27.6798 24.6989C27.1301 27.2798 26.891 29.8876 26.9669 32.5266C28.082 30.6652 29.3155 28.8217 30.6651 26.9961C30.7478 26.8843 30.8305 26.7726 30.9132 26.6609C30.3009 25.7246 29.7959 24.7347 29.4004 23.6867C28.8685 23.814 28.3367 23.9615 27.8049 24.1336ZM59.3815 31.9881L59.3748 32.0082L59.4128 31.9948L59.3815 31.9881ZM66.3556 29.5301C66.6751 30.2742 66.9522 31.0339 67.1891 31.8071C67.8482 31.597 68.5231 31.4965 69.2158 31.5076C69.2158 31.4808 69.2113 31.4518 69.2091 31.4272C69.075 29.7222 68.8359 27.5837 68.2616 25.4006C67.817 26.8486 67.2114 28.2586 66.3556 29.5301ZM64.5456 31.635L64.6886 31.7311C64.6685 31.673 64.6484 31.6127 64.6305 31.559L64.5456 31.635ZM40.1777 30.0753C40.5196 30.0753 40.857 30.0887 41.1899 30.1133C41.2547 30.12 41.3195 30.1244 41.3821 30.1311C42.5686 29.5546 43.8133 29.1345 45.0714 28.9334C44.935 28.6161 44.7786 28.3077 44.6021 28.0105C44.4591 27.7759 44.3049 27.548 44.1395 27.3312C43.5519 27.3759 42.9753 27.4832 42.4122 27.6553C41.1698 28.0284 39.943 28.672 38.6649 29.6306C39.0157 29.8004 39.3755 29.9501 39.7419 30.082C39.8872 30.0775 40.0324 30.0753 40.1754 30.0753H40.1777ZM62.0227 26.6944C62.3266 27.7782 62.5948 28.8865 62.8227 30.0172C63.0573 29.8116 63.2786 29.5971 63.4909 29.3692C63.5333 29.3222 63.578 29.2753 63.6182 29.2284C63.1601 28.3368 62.6261 27.4921 62.0205 26.6944H62.0227ZM55.5515 29.2396C56.3045 29.2373 57.0553 29.2753 57.8061 29.3491C58.11 28.377 58.3581 27.3916 58.548 26.3905C58.3 25.7358 58.0028 25.1056 57.6519 24.5001C57.1827 25.2687 56.6598 25.9994 56.0855 26.6922C55.395 27.5279 54.6375 28.2921 53.8085 28.9893C53.8577 29.0876 53.9046 29.1859 53.9515 29.2843C54.0454 29.2775 54.1392 29.2731 54.2353 29.2686C54.6822 29.2485 55.1202 29.2396 55.5492 29.2396H55.5515ZM48.5305 28.9513C48.7226 28.9513 48.9126 28.9535 49.1025 28.958C49.0444 28.8999 48.9841 28.8418 48.926 28.7882C48.3919 28.301 47.7841 27.9413 47.1003 27.7022C47.2724 28.0731 47.4266 28.4508 47.5584 28.8373C47.8355 28.8642 48.1126 28.8999 48.3874 28.9513H48.5305ZM34.5823 25.8028C35.0248 26.7056 35.6951 27.5435 36.5711 28.2787C38.3163 26.8553 39.9967 25.9235 41.7352 25.3983C41.8089 25.376 41.8849 25.3559 41.9586 25.3335C41.0558 24.7459 40.0928 24.2833 39.0693 23.9481C38.2783 23.6844 37.4716 23.4856 36.6471 23.3537C35.932 24.1671 35.2415 24.9827 34.5801 25.8028H34.5823ZM61.2675 22.4957C62.7534 23.7492 64.0383 25.2889 65.0863 27.0385C65.9623 25.3045 66.4449 23.3224 66.7667 21.4029C66.55 20.9784 66.3109 20.5628 66.0517 20.1561C64.664 17.9841 62.8004 16.3193 60.7446 15.0434C60.6753 15.7562 60.577 16.4579 60.4451 17.1528C60.6418 17.7494 60.8004 18.355 60.9211 18.9717C61.1468 20.136 61.263 21.3091 61.2675 22.4957ZM41.0626 18.6723C43.1854 19.2846 45.1697 20.1985 47.0154 21.4164C49.288 22.9157 51.1851 24.7861 52.6063 26.9134C53.2029 26.3816 53.7571 25.8073 54.2688 25.1905C54.9772 24.3325 55.5961 23.4163 56.1257 22.4376C55.9045 22.1962 55.6766 21.9661 55.4375 21.7426C53.6364 20.9806 51.7192 20.4242 49.8421 19.879C47.1651 19.1036 44.4233 18.3081 41.6681 18.0802C41.4648 18.2746 41.2637 18.4734 41.0626 18.6723ZM45.1943 24.9626C45.5674 24.9782 45.9406 25.0162 46.3115 25.0766C47.1272 25.2062 47.907 25.4475 48.6534 25.8006C46.1462 23.2599 42.7921 21.4097 39.1498 20.6209C38.9241 20.8555 38.7029 21.0923 38.4816 21.327C38.9352 21.4387 39.3799 21.5683 39.8157 21.7158C41.9743 22.4376 43.82 23.5593 45.1943 24.9626ZM31.0182 20.6052C31.0361 20.7303 31.0562 20.8555 31.0808 20.9806C31.3489 20.9449 31.6193 20.9136 31.8874 20.8868C31.9254 20.7348 31.9679 20.5829 32.0126 20.4309C31.6796 20.4845 31.3489 20.5426 31.0182 20.6074V20.6052ZM34.37 20.7884C34.8169 20.7996 35.2616 20.8242 35.7041 20.8622C35.8962 20.6521 36.0884 20.4399 36.2828 20.2276C35.7219 20.1941 35.1566 20.1851 34.5913 20.2008C34.5086 20.4019 34.4348 20.5985 34.37 20.7929V20.7884ZM45.706 14.3529C48.7092 15.1842 51.0622 16.0936 53.0979 17.202C54.4878 17.9573 55.6922 18.7907 56.7313 19.7159C55.4911 17.4031 53.9292 15.1484 51.9627 13.0948C51.3751 12.4781 50.7538 11.8949 50.1058 11.3407C49.8868 11.3072 49.6701 11.2737 49.4578 11.2446C49.0154 11.5597 48.5751 11.9128 48.1394 12.277C47.3104 12.9675 46.4992 13.6602 45.706 14.3551V14.3529ZM31.1746 16.5897C31.0741 17.0478 31.0003 17.5103 30.9556 17.9774C31.8584 17.5439 32.779 17.1595 33.722 16.8221C33.9723 16.4288 34.2427 16.0311 34.5376 15.6266C34.7008 15.4031 34.8683 15.1819 35.0382 14.9652C34.3633 14.9428 33.7064 14.9451 33.0628 14.9696C32.4282 15.4791 31.8405 15.9908 31.3065 16.4735L31.1746 16.5897ZM60.8518 12.3731C63.4752 13.8077 65.6137 15.6043 67.2337 17.736C67.4416 15.2557 67.3678 12.6457 66.4248 10.3486C65.0126 6.89617 61.549 4.15883 57.2207 2.99016C60.1614 5.63811 60.7937 9.69161 60.8518 12.3753V12.3731ZM54.4364 12.3038C55.7392 13.7786 56.8967 15.3585 57.9089 17.0456C57.1849 15.2222 56.0855 13.62 54.7403 12.3932C54.6398 12.3664 54.5392 12.3351 54.4364 12.3083V12.3038ZM37.9409 15.1842C37.7308 15.4143 37.5252 15.6467 37.3264 15.8836C37.675 15.8255 38.0258 15.7808 38.3788 15.745C39.1743 15.6668 39.9743 15.6422 40.7743 15.6713L40.8212 15.6266C39.8358 15.4411 38.8771 15.2937 37.9409 15.1842ZM40.1397 13.115C41.0536 13.2647 41.9877 13.4457 42.9441 13.6602C43.9675 12.7373 45.02 11.8211 46.106 10.9117C45.2658 10.8625 44.4792 10.8491 43.7373 10.867C42.4524 11.4435 41.2413 12.2234 40.1397 13.115ZM36.4526 12.6815C36.6493 12.6949 36.8459 12.7105 37.0448 12.7261C37.2839 12.4915 37.5275 12.2636 37.7755 12.0424C37.3241 12.2345 36.8817 12.4491 36.4526 12.6815ZM39.8291 6.10961C39.0269 6.62802 38.2559 7.19113 37.5208 7.80117C36.1934 8.90057 34.9868 10.1206 33.9008 11.4591C35.1074 10.6793 36.4303 9.9821 37.8582 9.48826C39.6682 8.86035 41.5206 8.59444 43.2815 8.52293C43.8289 8.29948 44.3853 8.10954 44.9552 7.95312C43.3195 7.13974 41.61 6.52523 39.8291 6.10961ZM56.9883 10.648C57.4799 10.8245 57.9603 11.0122 58.4318 11.2111C58.224 8.99443 57.5067 6.24815 55.3928 4.52977C51.9449 1.7254 46.6802 3.11082 43.849 4.18565C43.5407 4.30185 43.2368 4.42251 42.9396 4.54541C43.0245 4.57446 43.1116 4.60351 43.1966 4.63703C45.2077 5.36326 47.107 6.31519 48.8947 7.4928C49.6634 7.52632 50.4209 7.63581 51.1672 7.82128C51.4086 7.76318 51.6521 7.72073 51.8979 7.68944C53.2431 7.52632 54.7157 7.96429 55.7459 8.82907C56.338 9.31397 56.7514 9.92177 56.9883 10.648Z" fill="#FE36BD"/>
</svg>
