<svg width="12" height="13" viewBox="0 0 12 13" fill="none" xmlns="http://www.w3.org/2000/svg">
<mask id="path-1-inside-1_254_2475" fill="white">
<path d="M9.34801 0.482391C6.79801 3.43239 4.24802 6.38239 1.69802 9.33239L0.608025 10.6024C0.268025 10.9924 2.13804 12.6524 2.46804 12.2724C5.01804 9.32239 7.56803 6.37239 10.118 3.42239L11.208 2.15239C11.548 1.76239 9.67801 0.102391 9.34801 0.482391Z"/>
</mask>
<path d="M9.34801 0.482391C6.79801 3.43239 4.24802 6.38239 1.69802 9.33239L0.608025 10.6024C0.268025 10.9924 2.13804 12.6524 2.46804 12.2724C5.01804 9.32239 7.56803 6.37239 10.118 3.42239L11.208 2.15239C11.548 1.76239 9.67801 0.102391 9.34801 0.482391Z" fill="#FFEA30"/>
<path d="M9.34801 0.482391L4.8178 -3.45174L4.80881 -3.44133L9.34801 0.482391ZM1.69802 9.33239L-2.84119 5.40867L-2.8481 5.41667L-2.85499 5.4247L1.69802 9.33239ZM0.608025 10.6024L5.13066 14.5452L5.14592 14.5277L5.16104 14.5101L0.608025 10.6024ZM2.46804 12.2724L6.99825 16.2065L7.00725 16.1961L2.46804 12.2724ZM10.118 3.42239L14.6572 7.34611L14.6642 7.33811L14.671 7.33008L10.118 3.42239ZM11.208 2.15239L6.68539 -1.79042L6.67014 -1.77292L6.65502 -1.7553L11.208 2.15239ZM9.34801 0.482391L4.80881 -3.44133C3.53381 -1.96633 2.25881 -0.491327 0.983808 0.983672C-0.291191 2.45867 -1.56619 3.93367 -2.84119 5.40867L1.69802 9.33239L6.23723 13.2561C7.51223 11.7811 8.78723 10.3061 10.0622 8.83111C11.3372 7.35611 12.6122 5.88111 13.8872 4.40611L9.34801 0.482391ZM1.69802 9.33239L-2.85499 5.4247L-3.94499 6.6947L0.608025 10.6024L5.16104 14.5101L6.25104 13.2401L1.69802 9.33239ZM0.608025 10.6024L-3.91461 6.65958C-5.74883 8.76354 -5.50489 11.1483 -5.26449 12.1726C-5.01977 13.2153 -4.56369 13.9784 -4.32508 14.3463C-3.80353 15.1504 -3.17851 15.7829 -2.70905 16.202C-2.23924 16.6214 -1.54417 17.1672 -0.694435 17.5924C-0.309595 17.785 0.501263 18.1562 1.56892 18.2835C2.60775 18.4074 5.10087 18.3914 6.99824 16.2065L2.46804 12.2724L-2.06216 8.33827C-0.247288 6.24842 2.11521 6.26363 2.98993 6.36795C3.89349 6.4757 4.50677 6.77654 4.6752 6.86082C5.09212 7.06943 5.27906 7.24711 5.28262 7.25029C5.28582 7.25314 5.48647 7.42128 5.7427 7.81635C5.84865 7.97969 6.21183 8.55202 6.41808 9.43078C6.62 10.2912 6.87988 12.5387 5.13066 14.5452L0.608025 10.6024ZM2.46804 12.2724L7.00725 16.1961C8.28225 14.7211 9.55725 13.2461 10.8322 11.7711C12.1072 10.2961 13.3822 8.82111 14.6572 7.34611L10.118 3.42239L5.57883 -0.50133C4.30383 0.973671 3.02883 2.44867 1.75383 3.92367C0.478829 5.39867 -0.796169 6.87367 -2.07117 8.34867L2.46804 12.2724ZM10.118 3.42239L14.671 7.33008L15.761 6.06008L11.208 2.15239L6.65502 -1.7553L5.56502 -0.4853L10.118 3.42239ZM11.208 2.15239L15.7307 6.0952C17.5649 3.99124 17.3209 1.60647 17.0805 0.582145C16.8358 -0.460561 16.3797 -1.22359 16.1411 -1.59147C15.6196 -2.39559 14.9946 -3.02811 14.5251 -3.44721C14.0553 -3.86664 13.3602 -4.41245 12.5105 -4.83762C12.1257 -5.03018 11.3148 -5.40141 10.2471 -5.52873C9.20831 -5.65262 6.71519 -5.63658 4.81782 -3.45173L9.34801 0.482391L13.8782 4.41651C12.0633 6.50636 9.70085 6.49115 8.82612 6.38683C7.92257 6.27908 7.30929 5.97824 7.14086 5.89397C6.72394 5.68536 6.53699 5.50767 6.53344 5.5045C6.53024 5.50164 6.32959 5.3335 6.07335 4.93844C5.96741 4.77509 5.60422 4.20276 5.39798 3.324C5.19605 2.46362 4.93617 0.216041 6.68539 -1.79042L11.208 2.15239Z" fill="#FFEA30" mask="url(#path-1-inside-1_254_2475)"/>
</svg>
