<svg width="32" height="48" viewBox="0 0 32 48" fill="none" xmlns="http://www.w3.org/2000/svg">
<path d="M31.2647 20.3148C31.019 19.6038 30.7733 18.898 30.5276 18.1817C30.2975 17.5073 30.0622 16.8276 29.8322 16.1584C28.384 11.9549 26.9462 7.7462 25.5398 3.64205L24.3008 0.0136719L22.2147 0.144377C18.9418 0.348278 15.5644 0.562634 12.234 0.740393C12.1713 0.698567 12.119 0.667202 12.0772 0.646289L11.7844 0.505125L11.4655 0.494671C9.23827 0.416247 6.98491 0.29077 4.80475 0.175749L3.11604 0.0816412L0.465332 47.0833H12.9451V32.0574L22.152 33.2076C22.2252 33.2233 22.3402 33.239 22.4866 33.239C22.7218 33.239 22.9466 33.1919 23.1505 33.103H23.391L23.5793 32.8155C23.7466 32.6639 23.8773 32.4704 23.9661 32.2404C25.7124 29.621 27.2547 27.3206 28.6768 25.2032C29.0637 24.6281 29.4401 24.0739 29.8113 23.5249C30.2452 22.8819 30.6687 22.2545 31.087 21.6376L31.5105 21.0154L31.2647 20.3096V20.3148ZM18.9157 20.3828C17.9694 21.7944 17.0649 23.1381 16.1395 24.4922C15.533 24.419 14.9318 24.3405 14.3306 24.2674C13.8705 24.2098 13.4104 24.1471 12.9503 24.0896V8.65591C13.3111 8.63499 14.89 8.53043 15.3291 8.50429C15.9408 10.2714 16.5525 12.0386 17.1538 13.8109C17.8491 15.8395 18.5445 17.8628 19.2451 19.8809L18.9105 20.3776L18.9157 20.3828Z" fill="white"/>
</svg>
