<svg width="14" height="17" viewBox="0 0 14 17" fill="none" xmlns="http://www.w3.org/2000/svg">
<path d="M2.49132 5.05927C2.91129 4.66106 3.33126 4.26284 3.74299 3.86463C4.16296 3.45812 4.59117 3.05991 4.98643 2.63681C5.46404 2.12245 5.93342 1.5915 6.38633 1.05225C6.59219 0.803366 6.76512 0.521303 6.94629 0.247532C6.95452 0.23094 6.97099 0.214341 6.98746 0.189453C7.12745 0.38856 7.25097 0.58767 7.39919 0.770184C7.74505 1.20158 8.08267 1.64128 8.45323 2.04779C8.90614 2.54555 9.36728 3.02672 9.85313 3.49131C10.6354 4.25455 11.4424 4.98461 12.2165 5.74785C12.5459 6.0714 12.8753 6.41154 13.1388 6.79316C13.674 7.54811 13.9622 8.39431 13.9293 9.33177C13.9128 9.75487 13.8387 10.178 13.6658 10.5679C13.5587 10.8168 13.4435 11.0574 13.3035 11.2813C13.1058 11.6132 12.8506 11.9036 12.5376 12.1358C12.3153 12.3101 12.0765 12.4677 11.8295 12.6004C11.393 12.8161 10.9236 12.9157 10.4378 12.924C10.0343 12.924 9.63903 12.8742 9.26023 12.7332C8.98849 12.6336 8.71674 12.5092 8.48617 12.3101C8.2556 12.1193 8.03327 11.9284 7.8274 11.7128C7.68741 11.5717 7.58036 11.4058 7.45684 11.2482C7.53095 13.2807 8.28854 15.0063 9.73785 16.4581H4.24531C5.68638 15.0146 6.47691 13.289 6.53455 11.2233C6.43574 11.356 6.34515 11.4805 6.25457 11.5966C6.13105 11.7459 6.01577 11.8953 5.86754 12.028C5.71108 12.169 5.54639 12.2935 5.36523 12.4096C5.217 12.5092 5.05231 12.5755 4.89585 12.6585C4.65704 12.7829 4.40177 12.841 4.13826 12.8825C3.53712 12.9903 2.95246 12.9406 2.3925 12.7166C1.7502 12.4594 1.21494 12.0529 0.803209 11.4888C0.317362 10.8251 0.0785558 10.0784 0.0620864 9.2571C0.0538518 8.78422 0.136199 8.32794 0.292658 7.87995C0.407943 7.53151 0.580872 7.21626 0.778504 6.9176C1.17377 6.31198 1.69255 5.82251 2.21134 5.33304C2.30192 5.25008 2.3925 5.15883 2.48309 5.07587" fill="#F82323"/>
</svg>
