<svg width="16" height="15" viewBox="0 0 16 15" fill="none" xmlns="http://www.w3.org/2000/svg">
<path fill-rule="evenodd" clip-rule="evenodd" d="M12.4836 5.01927C11.3473 5.01927 10.3673 5.69125 9.89795 6.6619C9.53562 7.09329 8.97566 7.2841 8.40747 7.40855C8.53922 6.71167 8.69568 5.94843 9.23094 5.49214C10.1944 5.02756 10.8614 4.04033 10.8614 2.88717C10.8614 1.29431 9.57679 0.000121117 7.99573 0.000121117C6.41467 0.000121117 5.13006 1.29431 5.13006 2.88717C5.13006 4.03203 5.79707 5.02756 6.76053 5.49214C7.22991 5.83228 7.43577 6.67849 7.584 7.40855C7.01581 7.2841 6.45585 7.09329 6.10175 6.6619C5.64061 5.69125 4.66068 5.01927 3.51606 5.01927C1.935 5.01927 0.650391 6.31346 0.650391 7.90631C0.650391 9.49916 1.935 10.7934 3.51606 10.7934C4.65245 10.7934 5.73943 10.0135 6.20057 9.04288C6.59584 8.59489 7.10639 8.48704 7.69928 8.37919C7.75693 9.19221 7.72399 10.0799 7.60047 10.5943C7.0158 12.2701 5.55827 14.2777 4.77597 14.9497C5.83824 14.0288 10.145 14.0288 11.2073 14.9497C10.425 14.2694 8.86038 12.1622 8.38276 10.5943C8.23454 9.96375 8.25101 8.79399 8.25924 8.37089C8.86037 8.48704 9.37916 8.58659 9.78266 9.04288C10.2438 10.0135 11.3308 10.7934 12.4672 10.7934C14.0482 10.7934 15.3328 9.49916 15.3328 7.90631C15.3328 6.31346 14.0482 5.01927 12.4672 5.01927H12.4836Z" fill="#F82323"/>
</svg>
