<svg width="4" height="16" viewBox="0 0 4 16" fill="none" xmlns="http://www.w3.org/2000/svg">
<mask id="path-1-inside-1_254_2471" fill="white">
<path d="M2.85806 14.4124C3.03806 10.5224 3.22805 6.63237 3.40805 2.73237C3.43805 2.17237 3.45807 1.61237 3.48807 1.05237C3.51807 0.452369 2.61806 0.472363 2.25806 0.592363C1.70806 0.762363 1.18805 1.20237 1.15805 1.80237C0.97805 5.69237 0.788062 9.58237 0.608062 13.4824C0.578062 14.0424 0.558076 14.6024 0.528076 15.1624C0.498076 15.7624 1.39806 15.7424 1.75806 15.6224C2.30806 15.4524 2.82806 15.0124 2.85806 14.4124Z"/>
</mask>
<path d="M2.85806 14.4124C3.03806 10.5224 3.22805 6.63237 3.40805 2.73237C3.43805 2.17237 3.45807 1.61237 3.48807 1.05237C3.51807 0.452369 2.61806 0.472363 2.25806 0.592363C1.70806 0.762363 1.18805 1.20237 1.15805 1.80237C0.97805 5.69237 0.788062 9.58237 0.608062 13.4824C0.578062 14.0424 0.558076 14.6024 0.528076 15.1624C0.498076 15.7624 1.39806 15.7424 1.75806 15.6224C2.30806 15.4524 2.82806 15.0124 2.85806 14.4124Z" fill="#FFEA30"/>
<path d="M2.85806 14.4124L8.85058 14.712L8.85113 14.7009L8.85165 14.6897L2.85806 14.4124ZM3.40805 2.73237L-2.58336 2.4114L-2.58455 2.43357L-2.58557 2.45574L3.40805 2.73237ZM3.48807 1.05237L9.47948 1.37334L9.48005 1.36267L9.48058 1.35199L3.48807 1.05237ZM2.25806 0.592363L4.02989 6.32478L4.09288 6.30531L4.15542 6.28446L2.25806 0.592363ZM1.15805 1.80237L-4.83446 1.50274L-4.83502 1.51389L-4.83554 1.52503L1.15805 1.80237ZM0.608062 13.4824L6.59947 13.8033L6.60066 13.7812L6.60168 13.759L0.608062 13.4824ZM0.528076 15.1624L-5.46333 14.8414L-5.4639 14.8521L-5.46444 14.8627L0.528076 15.1624ZM1.75806 15.6224L-0.0137813 9.88995L-0.0767673 9.90942L-0.13931 9.93027L1.75806 15.6224ZM2.85806 14.4124L8.85165 14.6897C9.02582 10.9257 9.22652 6.80392 9.40167 3.009L3.40805 2.73237L-2.58557 2.45574C-2.77042 6.46082 -2.94969 10.119 -3.13552 14.135L2.85806 14.4124ZM3.40805 2.73237L9.39946 3.05334C9.41612 2.74226 9.42978 2.43562 9.44208 2.16005C9.45479 1.87562 9.46614 1.62226 9.47948 1.37334L3.48807 1.05237L-2.50334 0.731401C-2.52001 1.04248 -2.53366 1.34912 -2.54597 1.62469C-2.55867 1.90912 -2.57002 2.16248 -2.58336 2.4114L3.40805 2.73237ZM3.48807 1.05237L9.48058 1.35199C9.57334 -0.503166 8.87492 -2.33951 7.46836 -3.66152C6.27522 -4.78293 4.96246 -5.17291 4.23314 -5.32357C2.84783 -5.60974 1.45893 -5.46582 0.36069 -5.09974L2.25806 0.592363L4.15542 6.28446C3.41719 6.53054 2.65829 6.60447 1.80548 6.4283C1.34242 6.33264 0.271535 6.04267 -0.750038 5.08251C-1.98503 3.92175 -2.5822 2.3079 -2.50445 0.752744L3.48807 1.05237ZM2.25806 0.592363L0.486219 -5.14005C-1.30587 -4.58613 -4.62693 -2.64789 -4.83446 1.50274L1.15805 1.80237L7.15056 2.10199C7.07821 3.54916 6.40567 4.61711 5.79444 5.23966C5.21615 5.82865 4.58376 6.15358 4.02989 6.32478L2.25806 0.592363ZM1.15805 1.80237L-4.83554 1.52503C-5.00971 5.28902 -5.21041 9.41082 -5.38556 13.2057L0.608062 13.4824L6.60168 13.759C6.78653 9.75392 6.96581 6.09572 7.15164 2.07971L1.15805 1.80237ZM0.608062 13.4824L-5.38335 13.1614C-5.40002 13.4726 -5.41367 13.7793 -5.42596 14.0549C-5.43866 14.3393 -5.45 14.5926 -5.46333 14.8414L0.528076 15.1624L6.51948 15.4833C6.53615 15.1722 6.5498 14.8654 6.5621 14.5899C6.5748 14.3054 6.58614 14.0522 6.59947 13.8033L0.608062 13.4824ZM0.528076 15.1624L-5.46444 14.8627C-5.55719 16.7178 -4.85883 18.5542 -3.45227 19.8762C-2.25913 20.9977 -0.946342 21.3876 -0.21701 21.5383C1.16834 21.8245 2.55724 21.6805 3.65542 21.3145L1.75806 15.6224L-0.13931 9.93027C0.598874 9.68421 1.35778 9.61025 2.21064 9.78643C2.67373 9.8821 3.74464 10.1721 4.76623 11.1323C6.00123 12.2931 6.59834 13.9069 6.52059 15.462L0.528076 15.1624ZM1.75806 15.6224L3.52989 21.3548C5.32193 20.8009 8.64304 18.8627 8.85058 14.712L2.85806 14.4124L-3.13445 14.1127C-3.06209 12.6656 -2.38955 11.5976 -1.77831 10.9751C-1.20001 10.3861 -0.567621 10.0611 -0.0137813 9.88995L1.75806 15.6224Z" fill="#FFEA30" mask="url(#path-1-inside-1_254_2471)"/>
</svg>
