<svg width="49" height="63" viewBox="0 0 49 63" fill="none" xmlns="http://www.w3.org/2000/svg">
<path d="M42.3788 61.6741C41.8975 61.9958 41.1194 62.4131 40.1893 62.2433C39.1277 62.0505 38.5831 61.2111 38.3218 60.8079L0.575033 2.669C0.471813 2.50842 0.403765 2.33223 0.372715 2.14319C0.336972 1.95332 0.342678 1.76345 0.388007 1.57085C0.4323 1.38289 0.511278 1.20341 0.62287 1.04172C0.737327 0.878107 0.877633 0.740758 1.04379 0.629671L1.06098 0.618179C1.22896 0.509828 1.41133 0.4354 1.6081 0.394897C1.80486 0.354393 1.99803 0.351918 2.19231 0.388291C2.38658 0.424665 2.56318 0.496605 2.7268 0.604934C2.88859 0.710526 3.01967 0.844575 3.12472 1.0079L40.8715 59.1468L40.8898 59.1741L40.9356 59.1435L45.9043 55.5762C46.0696 55.4577 46.2465 55.375 46.4406 55.3244C46.6366 55.2765 46.8319 55.2648 47.0282 55.2918C47.2245 55.3189 47.405 55.3843 47.5707 55.4833C47.7393 55.5804 47.879 55.7087 47.9926 55.8663C48.1044 56.0211 48.1829 56.1943 48.2233 56.385C48.2648 56.571 48.2656 56.7645 48.2297 56.9587C48.1966 57.151 48.1223 57.3313 48.0162 57.5012C47.9054 57.6703 47.7688 57.8131 47.6063 57.9297L42.6348 61.4989C42.5603 61.5487 42.4762 61.6089 42.3788 61.6741Z" fill="#231F20"/>
</svg>
