<svg width="20" height="24" viewBox="0 0 20 24" fill="none" xmlns="http://www.w3.org/2000/svg">
<path d="M18.3632 23.9763C18.1353 23.9763 17.9252 23.916 17.7331 23.7931C17.5386 23.6702 17.3934 23.5071 17.2973 23.2992C15.3599 19.1787 12.1265 15.952 8.70095 12.5376C5.55469 9.40251 2.30117 6.16016 0.140348 2.15359C0.0666074 2.01504 0.0219161 1.8698 0.00627405 1.71338C-0.00936803 1.55919 0.00403949 1.40501 0.0487307 1.25529C0.093422 1.10558 0.164928 0.971504 0.263249 0.848603C0.361569 0.727937 0.480001 0.629616 0.618544 0.555875C0.754852 0.482135 0.902333 0.437443 1.05652 0.421801C1.21294 0.406159 1.36489 0.419566 1.5146 0.464258C1.66432 0.508949 1.80063 0.580455 1.92129 0.678776C2.04196 0.779331 2.14028 0.897763 2.21402 1.03407C4.20949 4.73674 7.3334 7.85619 10.3612 10.8684C13.7779 14.2761 17.313 17.8 19.4246 22.2959C19.4671 22.3875 19.4961 22.4792 19.5162 22.5775C19.5341 22.6736 19.5408 22.7719 19.5341 22.8724C19.5296 22.9708 19.5095 23.0669 19.4805 23.1607C19.4492 23.2546 19.4067 23.3439 19.3553 23.4289C19.3017 23.5115 19.2391 23.5875 19.1676 23.6568C19.0961 23.7238 19.0157 23.7819 18.9308 23.8288C18.8436 23.878 18.752 23.9138 18.6559 23.9383C18.5598 23.9651 18.4638 23.9763 18.3632 23.9763Z" fill="black"/>
</svg>
