<svg width="51" height="53" viewBox="0 0 51 53" fill="none" xmlns="http://www.w3.org/2000/svg">
<path d="M18.7529 1.46777C26.2329 -1.00218 34.5628 -0.292053 41.6328 3.12793C42.0027 3.2979 42.2823 3.44777 41.9424 3.67773C41.6022 3.90729 40.5828 3.48813 40.2627 3.32812C38.6227 2.53812 36.9226 1.90781 35.1426 1.50781C28.1727 -0.0521166 20.5227 1.43736 14.5928 5.40723C9.04278 9.12722 5.01297 14.9577 3.29297 21.3877C1.42299 28.3876 2.26296 35.8073 6.38281 42.1973C10.5028 48.5873 17.4328 52.4673 25.0928 51.7773C32.2127 51.1373 39.5027 47.4877 44.0127 41.8877C48.1027 36.8077 49.3127 30.0575 47.0527 23.9775C44.7927 17.8976 39.3925 13.4279 32.8125 13.5879C26.2326 13.748 20.1426 17.8379 18.1426 24.2178C17.1626 27.3377 17.223 30.8879 18.833 33.7979C20.283 36.4178 23.0729 38.7674 26.1729 38.8174C29.5128 38.8673 32.6225 36.6775 34.0625 33.7275C35.5925 30.5876 35.1029 26.8676 33.043 24.0977H33.0625C32.8431 23.808 33.9217 23.9272 34.0127 23.9473C34.4727 24.0373 35.1426 24.1979 35.4326 24.5879C36.5326 26.0679 37.2023 27.788 37.3623 29.6279C37.6922 33.3877 35.5928 37.0272 32.2432 38.7373C29.2632 40.2573 25.7224 39.888 22.7324 38.668C19.7425 37.448 17.1131 35.1674 15.9131 32.1074C14.5331 28.5974 15.0026 24.5875 16.6826 21.2676C19.9826 14.7476 27.4732 11.8582 34.4932 12.8682C41.513 13.8783 47.4129 18.2981 49.6729 25.1279C55.1326 41.6578 36.3525 54.5781 21.4326 52.5781C13.7227 51.5481 6.93272 47.2776 3.05273 40.0576C-0.827235 32.8376 -0.947218 24.0574 2.34277 16.6074C5.4528 9.54752 11.273 3.93775 18.7529 1.46777Z" fill="#FFEA30"/>
<path d="M18.7529 1.46777C26.2329 -1.00218 34.5628 -0.292053 41.6328 3.12793C42.0027 3.2979 42.2823 3.44777 41.9424 3.67773C41.6022 3.90729 40.5828 3.48813 40.2627 3.32812C38.6227 2.53812 36.9226 1.90781 35.1426 1.50781C28.1727 -0.0521166 20.5227 1.43736 14.5928 5.40723C9.04278 9.12722 5.01297 14.9577 3.29297 21.3877C1.42299 28.3876 2.26296 35.8073 6.38281 42.1973C10.5028 48.5873 17.4328 52.4673 25.0928 51.7773C32.2127 51.1373 39.5027 47.4877 44.0127 41.8877C48.1027 36.8077 49.3127 30.0575 47.0527 23.9775C44.7927 17.8976 39.3925 13.4279 32.8125 13.5879C26.2326 13.748 20.1426 17.8379 18.1426 24.2178C17.1626 27.3377 17.223 30.8879 18.833 33.7979C20.283 36.4178 23.0729 38.7674 26.1729 38.8174C29.5128 38.8673 32.6225 36.6775 34.0625 33.7275C35.5925 30.5876 35.1029 26.8676 33.043 24.0977H33.0625C32.8431 23.808 33.9217 23.9272 34.0127 23.9473C34.4727 24.0373 35.1426 24.1979 35.4326 24.5879C36.5326 26.0679 37.2023 27.788 37.3623 29.6279C37.6922 33.3877 35.5928 37.0272 32.2432 38.7373C29.2632 40.2573 25.7224 39.888 22.7324 38.668C19.7425 37.448 17.1131 35.1674 15.9131 32.1074C14.5331 28.5974 15.0026 24.5875 16.6826 21.2676C19.9826 14.7476 27.4732 11.8582 34.4932 12.8682C41.513 13.8783 47.4129 18.2981 49.6729 25.1279C55.1326 41.6578 36.3525 54.5781 21.4326 52.5781C13.7227 51.5481 6.93272 47.2776 3.05273 40.0576C-0.827235 32.8376 -0.947218 24.0574 2.34277 16.6074C5.4528 9.54752 11.273 3.93775 18.7529 1.46777Z" stroke="#FFEA30"/>
</svg>
