<svg width="11" height="14" viewBox="0 0 11 14" fill="none" xmlns="http://www.w3.org/2000/svg">
<mask id="path-1-inside-1_254_2470" fill="white">
<path d="M2.29825 13.0723C4.70825 10.0023 7.12824 6.9323 9.53824 3.8623C9.87824 3.4323 10.2183 2.9923 10.5583 2.5623C11.0283 1.9623 9.37824 0.162297 9.06824 0.562297C6.65824 3.6323 4.23825 6.7023 1.82825 9.7723L0.808258 11.0723C0.338258 11.6723 1.98825 13.4723 2.29825 13.0723Z"/>
</mask>
<path d="M2.29825 13.0723C4.70825 10.0023 7.12824 6.9323 9.53824 3.8623C9.87824 3.4323 10.2183 2.9923 10.5583 2.5623C11.0283 1.9623 9.37824 0.162297 9.06824 0.562297C6.65824 3.6323 4.23825 6.7023 1.82825 9.7723L0.808258 11.0723C0.338258 11.6723 1.98825 13.4723 2.29825 13.0723Z" fill="#FFEA30"/>
<path d="M2.29825 13.0723L-2.42126 9.36741L-2.4328 9.3821L-2.44424 9.39687L2.29825 13.0723ZM9.53824 3.8623L4.83174 0.140887L4.82522 0.149136L4.81873 0.157408L9.53824 3.8623ZM10.5583 2.5623L15.2648 6.28371L15.2732 6.27301L15.2816 6.26227L10.5583 2.5623ZM9.06824 0.562297L13.7877 4.26719L13.7993 4.25249L13.8107 4.23773L9.06824 0.562297ZM1.82825 9.7723L-2.89126 6.0674L-2.89221 6.0686L1.82825 9.7723ZM0.808258 11.0723L-3.9122 7.36861L-3.91511 7.37233L0.808258 11.0723ZM2.29825 13.0723L7.01776 16.7772C8.22058 15.245 9.42621 13.7123 10.634 12.1769C11.8412 10.6423 13.0506 9.10496 14.2577 7.56719L9.53824 3.8623L4.81873 0.157408C3.6159 1.68964 2.41027 3.22227 1.20246 4.75766C-0.00472239 6.29226 -1.21409 7.82964 -2.42126 9.36741L2.29825 13.0723ZM9.53824 3.8623L14.2447 7.58371C14.4269 7.3533 14.6073 7.1225 14.7755 6.90728C14.9473 6.6875 15.1069 6.4833 15.2648 6.28371L10.5583 2.5623L5.85176 -1.15912C5.66958 -0.928705 5.48919 -0.697899 5.32097 -0.482678C5.14918 -0.262898 4.98956 -0.058702 4.83174 0.140887L9.53824 3.8623ZM10.5583 2.5623L15.2816 6.26227C17.4607 3.48052 16.4305 0.481456 16.1788 -0.183473C15.7768 -1.24554 15.1859 -2.08409 14.731 -2.63465C14.2809 -3.17928 13.6066 -3.87389 12.7261 -4.43588C12.3391 -4.6829 11.4484 -5.20937 10.2112 -5.41219C8.79941 -5.64362 6.16172 -5.48212 4.32575 -3.11313L9.06824 0.562297L13.8107 4.23773C12.0523 6.50672 9.53394 6.63697 8.2699 6.42975C7.18047 6.25115 6.4658 5.80437 6.26974 5.67922C5.77116 5.36098 5.53806 5.07887 5.48052 5.00925C5.41809 4.93369 5.17091 4.63264 4.95581 4.06432C4.89102 3.89314 3.89085 1.34407 5.83489 -1.13767L10.5583 2.5623ZM9.06824 0.562297L4.34873 -3.14259C3.1459 -1.61036 1.94027 -0.0777377 0.732462 1.45766C-0.474724 2.99226 -1.68409 4.52963 -2.89126 6.0674L1.82825 9.7723L6.54776 13.4772C7.75058 11.945 8.95621 10.4123 10.164 8.87693C11.3712 7.34233 12.5806 5.80496 13.7877 4.26719L9.06824 0.562297ZM1.82825 9.7723L-2.89221 6.0686L-3.91219 7.36861L0.808258 11.0723L5.52871 14.776L6.5487 13.476L1.82825 9.7723ZM0.808258 11.0723L-3.91511 7.37233C-6.09412 10.154 -5.06401 13.1531 -4.81234 13.818C-4.41037 14.8801 -3.81944 15.7186 -3.36451 16.2692C-2.91448 16.8138 -2.24012 17.5085 -1.35966 18.0705C-0.972659 18.3175 -0.0818898 18.844 1.15529 19.0468C2.5671 19.2782 5.20478 19.1167 7.04074 16.7477L2.29825 13.0723L-2.44424 9.39687C-0.685785 7.12789 1.83252 6.99762 3.0966 7.20485C4.18604 7.38345 4.90072 7.83025 5.09679 7.9554C5.59537 8.27364 5.82848 8.55577 5.88602 8.6254C5.94845 8.70096 6.19563 9.00202 6.41073 9.57034C6.47552 9.74153 7.47564 12.2906 5.53163 14.7723L0.808258 11.0723Z" fill="#FFEA30" mask="url(#path-1-inside-1_254_2470)"/>
</svg>
