<svg width="16" height="6" viewBox="0 0 16 6" fill="none" xmlns="http://www.w3.org/2000/svg">
<mask id="path-1-inside-1_254_2474" fill="white">
<path d="M14.0083 0.432353C10.2083 1.36235 6.41827 2.28235 2.61827 3.21235L1.01826 3.60235C0.508264 3.72235 -0.0517413 4.12235 0.138259 4.72235C0.318259 5.29235 1.15826 5.49235 1.66826 5.37235C5.46826 4.44235 9.25827 3.52235 13.0583 2.59235L14.6582 2.20235C15.1682 2.08235 15.7283 1.68235 15.5383 1.08235C15.3583 0.512355 14.5183 0.312353 14.0083 0.432353Z"/>
</mask>
<path d="M14.0083 0.432353C10.2083 1.36235 6.41827 2.28235 2.61827 3.21235L1.01826 3.60235C0.508264 3.72235 -0.0517413 4.12235 0.138259 4.72235C0.318259 5.29235 1.15826 5.49235 1.66826 5.37235C5.46826 4.44235 9.25827 3.52235 13.0583 2.59235L14.6582 2.20235C15.1682 2.08235 15.7283 1.68235 15.5383 1.08235C15.3583 0.512355 14.5183 0.312353 14.0083 0.432353Z" fill="#FFEA30"/>
<path d="M14.0083 0.432353L12.634 -5.40815L12.6079 -5.40202L12.5819 -5.39565L14.0083 0.432353ZM2.61827 3.21235L4.03916 9.04168L4.0446 9.04035L2.61827 3.21235ZM1.01826 3.60235L2.3925 9.44285L2.41585 9.43736L2.43915 9.43168L1.01826 3.60235ZM0.138259 4.72235L5.85976 2.91557L5.85831 2.911L0.138259 4.72235ZM1.66826 5.37235L3.04249 11.2129L3.06857 11.2067L3.09458 11.2004L1.66826 5.37235ZM13.0583 2.59235L11.6374 -3.23697L11.6319 -3.23565L13.0583 2.59235ZM14.6582 2.20235L13.284 -3.63815L13.2606 -3.63265L13.2373 -3.62697L14.6582 2.20235ZM15.5383 1.08235L9.81676 2.88914L9.8182 2.8937L15.5383 1.08235ZM14.0083 0.432353L12.5819 -5.39565C10.6851 -4.93143 8.79036 -4.46959 6.89241 -4.00698C4.99536 -3.5446 3.09513 -3.08143 1.19194 -2.61565L2.61827 3.21235L4.0446 9.04035C5.94141 8.57613 7.83617 8.1143 9.73412 7.65169C11.6312 7.1893 13.5314 6.72613 15.4346 6.26035L14.0083 0.432353ZM2.61827 3.21235L1.19738 -2.61698L-0.402628 -2.22698L1.01826 3.60235L2.43915 9.43168L4.03916 9.04168L2.61827 3.21235ZM1.01826 3.60235L-0.355972 -2.23815C-1.42508 -1.9866 -2.85184 -1.39823 -4.03995 -0.144122C-5.45375 1.34822 -6.44485 3.80827 -5.58179 6.5337L0.138259 4.72235L5.85831 2.911C6.14099 3.80368 6.19772 4.84391 5.91246 5.88982C5.639 6.89249 5.12761 7.62735 4.67147 8.10883C3.84337 8.98293 2.9516 9.3113 2.3925 9.44285L1.01826 3.60235ZM0.138259 4.72235L-5.58324 6.52914C-4.7072 9.30326 -2.47396 10.5135 -1.24605 10.9539C0.0319334 11.4122 1.5516 11.5637 3.04249 11.2129L1.66826 5.37235L0.294021 -0.468151C1.27491 -0.69895 2.11958 -0.587498 2.80506 -0.341651C3.44048 -0.113761 5.16372 0.711445 5.85975 2.91557L0.138259 4.72235ZM1.66826 5.37235L3.09458 11.2004C4.99139 10.7361 6.88616 10.2743 8.78411 9.81169C10.6812 9.3493 12.5814 8.88614 14.4846 8.42035L13.0583 2.59235L11.6319 -3.23565C9.73514 -2.77143 7.84037 -2.3096 5.94242 -1.84699C4.04536 -1.3846 2.14512 -0.921431 0.241931 -0.455649L1.66826 5.37235ZM13.0583 2.59235L14.4792 8.42168L16.0792 8.03168L14.6582 2.20235L13.2373 -3.62697L11.6374 -3.23697L13.0583 2.59235ZM14.6582 2.20235L16.0325 8.04286C17.1016 7.79131 18.5283 7.20295 19.7164 5.94884C21.1303 4.45649 22.1214 1.99644 21.2583 -0.728996L15.5383 1.08235L9.8182 2.8937C9.53552 2.00103 9.47879 0.9608 9.76405 -0.0851211C10.0375 -1.0878 10.5489 -1.82266 11.0051 -2.30413C11.8332 -3.17824 12.7249 -3.5066 13.284 -3.63815L14.6582 2.20235ZM15.5383 1.08235L21.2597 -0.724434C20.3837 -3.49854 18.1505 -4.70875 16.9226 -5.14914C15.6446 -5.60749 14.1249 -5.75895 12.634 -5.40815L14.0083 0.432353L15.3825 6.27286C14.4016 6.50366 13.5569 6.3922 12.8714 6.14635C12.236 5.91846 10.5128 5.09325 9.81676 2.88914L15.5383 1.08235Z" fill="#FFEA30" mask="url(#path-1-inside-1_254_2474)"/>
</svg>
