<svg width="14" height="28" viewBox="0 0 14 28" fill="none" xmlns="http://www.w3.org/2000/svg">
<path d="M8.06771 1.02245C7.02151 0.487531 5.78072 1.22982 4.96116 2.08287C2.84586 4.27205 1.75845 7.3025 1.06708 10.3023C0.426084 13.0806 0.0689562 15.9579 0.364274 18.7998C0.659592 21.6417 1.6394 24.4507 3.43878 26.6233C3.98134 27.2785 4.70933 27.9171 5.54034 27.8346C5.93639 27.7969 6.2981 27.5966 6.62775 27.368C8.29664 26.211 9.32911 24.314 10.1533 22.4217C11.394 19.5751 12.2937 16.6201 12.8523 13.5543C13.2438 11.4028 13.4613 9.17355 12.9965 7.03621C12.5341 4.89888 11.307 2.8558 9.41152 1.86608" fill="white"/>
</svg>
