<svg width="32" height="47" viewBox="0 0 32 47" fill="none" xmlns="http://www.w3.org/2000/svg">
<path d="M29.8426 1.41216C27.5056 1.32851 13.1176 0.607017 10.3571 0.465856L9.3585 0.413574L8.92979 1.31806C7.49203 4.35565 6.04904 7.39847 4.5956 10.4361C3.13693 13.4998 1.67303 16.5687 0.224813 19.6325L0 20.1082L0.125477 20.6206C1.03519 24.4163 1.93444 28.2224 2.83369 32.0234C3.81137 36.1589 4.78904 40.3048 5.7824 44.4247L6.04904 45.5278L7.18356 45.5696C9.53103 45.6533 23.9086 46.3748 26.6691 46.516L28.018 46.5839L28.2219 45.2507C28.3996 44.0848 29.1002 38.0515 29.1839 36.9692L29.2989 35.4478L27.7775 35.3642C25.4562 35.2387 23.1244 35.1237 20.7926 35.0139C18.8582 34.9146 16.9237 34.8257 14.9945 34.7211C14.6233 33.137 14.2417 31.5528 13.8652 29.9634C13.5568 28.6616 13.2431 27.3546 12.9346 26.0632C17.7916 26.2828 22.68 26.539 27.6625 26.8004L29.1316 26.8736L29.2309 25.4044C29.3564 23.538 30.1406 12.977 30.3811 11.1628L30.47 10.4465C30.8621 7.22594 31.2647 3.82237 31.2961 2.95972L31.3484 1.46445L29.8531 1.41216H29.8426ZM21.7964 18.5398C20.2227 18.4614 18.6386 18.3882 17.0544 18.315C15.8258 18.2575 14.5972 18.2 13.3685 18.1424C13.5672 17.719 13.7659 17.2955 13.9646 16.872C14.7331 15.2356 15.5016 13.6096 16.2754 11.9836C17.4361 12.0359 18.6072 12.0934 19.7731 12.1561C20.6201 12.198 21.4723 12.2398 22.3192 12.2816C22.1467 14.4043 21.9794 16.459 21.7912 18.5398H21.7964Z" fill="white"/>
</svg>
