<svg width="16" height="8" viewBox="0 0 16 8" fill="none" xmlns="http://www.w3.org/2000/svg">
<mask id="path-1-inside-1_254_2473" fill="white">
<path d="M14.7283 5.97221C11.1083 4.53221 7.49826 3.08221 3.87826 1.64221L2.30829 1.01221C1.79829 0.81221 1.02829 0.842208 0.778288 1.43221C0.528288 2.02221 1.05829 2.60221 1.55829 2.80221C5.17829 4.24221 8.78826 5.6922 12.4083 7.13221L13.9783 7.76221C14.4883 7.96221 15.2583 7.9322 15.5083 7.3422C15.7583 6.7522 15.2283 6.17221 14.7283 5.97221Z"/>
</mask>
<path d="M14.7283 5.97221C11.1083 4.53221 7.49826 3.08221 3.87826 1.64221L2.30829 1.01221C1.79829 0.81221 1.02829 0.842208 0.778288 1.43221C0.528288 2.02221 1.05829 2.60221 1.55829 2.80221C5.17829 4.24221 8.78826 5.6922 12.4083 7.13221L13.9783 7.76221C14.4883 7.96221 15.2583 7.9322 15.5083 7.3422C15.7583 6.7522 15.2283 6.17221 14.7283 5.97221Z" fill="#FFEA30"/>
<path d="M14.7283 5.97221L16.9566 0.401339L16.946 0.397111L14.7283 5.97221ZM3.87826 1.64221L1.64379 7.21061L1.65216 7.21397L1.66054 7.21731L3.87826 1.64221ZM2.30829 1.01221L4.54276 -4.55619L4.52082 -4.565L4.49881 -4.57363L2.30829 1.01221ZM1.55829 2.80221L-0.670061 8.37308L-0.659432 8.37731L1.55829 2.80221ZM12.4083 7.13221L14.6427 1.5638L14.6344 1.56044L14.626 1.55711L12.4083 7.13221ZM13.9783 7.76221L11.7438 13.3306L11.7657 13.3394L11.7877 13.348L13.9783 7.76221ZM14.7283 5.97221L16.946 0.397111C15.1414 -0.320732 13.3386 -1.04137 11.5303 -1.76418C9.72355 -2.48638 7.91141 -3.21073 6.09598 -3.93289L3.87826 1.64221L1.66054 7.21731C3.46512 7.93515 5.26798 8.65579 7.07625 9.3786C8.88298 10.1008 10.6951 10.8251 12.5106 11.5473L14.7283 5.97221ZM3.87826 1.64221L6.11274 -3.9262L4.54276 -4.55619L2.30829 1.01221L0.0738088 6.58061L1.64379 7.21061L3.87826 1.64221ZM2.30829 1.01221L4.49881 -4.57363C3.32663 -5.03331 1.84565 -5.26603 0.293726 -4.9624C-1.38986 -4.633 -3.6445 -3.50874 -4.74622 -0.908686L0.778288 1.43221L6.3028 3.7731C5.45108 5.78316 3.70643 6.59742 2.59785 6.81432C1.62093 7.00545 0.779947 6.85773 0.117762 6.59805L2.30829 1.01221ZM0.778288 1.43221L-4.74622 -0.908686C-5.87029 1.74412 -5.05281 4.18125 -4.09345 5.60931C-3.20538 6.93126 -1.95132 7.86057 -0.670057 8.37307L1.55829 2.80221L3.78663 -2.76865C4.56789 -2.45614 5.30695 -1.91684 5.86753 -1.08239C6.49939 -0.141828 7.17687 1.7103 6.3028 3.7731L0.778288 1.43221ZM1.55829 2.80221L-0.659432 8.37731C1.14514 9.09515 2.94799 9.81579 4.75626 10.5386C6.56298 11.2608 8.37512 11.9851 10.1905 12.7073L12.4083 7.13221L14.626 1.55711C12.8214 0.839265 11.0186 0.118625 9.21029 -0.604182C7.40357 -1.32637 5.59143 -2.05073 3.77601 -2.77289L1.55829 2.80221ZM12.4083 7.13221L10.1738 12.7006L11.7438 13.3306L13.9783 7.76221L16.2127 2.1938L14.6427 1.5638L12.4083 7.13221ZM13.9783 7.76221L11.7877 13.348C12.96 13.8077 14.4409 14.0405 15.9929 13.7368C17.6764 13.4074 19.9311 12.2831 21.0328 9.6831L15.5083 7.3422L9.98376 5.00131C10.8355 2.99128 12.5801 2.17701 13.6887 1.96011C14.6656 1.76896 15.5066 1.91668 16.1688 2.17637L13.9783 7.76221ZM15.5083 7.3422L21.0328 9.6831C22.1568 7.03029 21.3394 4.59316 20.38 3.16509C19.4919 1.84313 18.2379 0.913845 16.9566 0.401349L14.7283 5.97221L12.4999 11.5431C11.7187 11.2306 10.9796 10.6913 10.419 9.85683C9.78716 8.91625 9.10969 7.06412 9.98376 5.00131L15.5083 7.3422Z" fill="#FFEA30" mask="url(#path-1-inside-1_254_2473)"/>
</svg>
