<svg width="306" height="69" viewBox="0 0 306 69" fill="none" xmlns="http://www.w3.org/2000/svg">
<path d="M29.0507 63.4053C28.3407 64.8853 27.2907 66.0953 25.9207 67.0253C24.5407 67.9553 22.9907 68.4153 21.2607 68.4153H0.430664V0.445312H25.1107C26.8707 1.34531 28.1907 2.70531 29.0507 4.52531V63.4053ZM64.2707 63.4053C63.5907 64.8853 62.5607 66.0953 61.1807 67.0253C59.8007 67.9553 58.2507 68.4153 56.5207 68.4153H43.4307C41.7007 68.4153 40.1407 67.9553 38.7707 67.0253C37.3907 66.0953 36.3507 64.8853 35.6407 63.4053V0.445312H47.8007V55.4753H52.1207V0.445312H64.2807V63.4053H64.2707ZM99.4807 63.4053C98.7707 64.8853 97.7207 66.0953 96.3507 67.0253C94.9707 67.9553 93.4207 68.4153 91.6907 68.4153H70.8607V0.445312H95.5407C97.3007 1.34531 98.6207 2.70531 99.4807 4.52531V63.4053ZM151.961 0.445312V55.4753H164.911V68.4153H139.071V0.445312H151.971H151.961ZM106.491 0.445312H132.381V12.3653H119.441V25.3153H128.071V38.2653H119.441V55.4753H132.381V68.4153H106.491V0.445312ZM199.591 63.4053C198.881 64.8853 197.831 66.0953 196.461 67.0253C195.081 67.9553 193.531 68.4153 191.801 68.4153H170.971V0.445312H195.651C197.411 1.34531 198.731 2.70531 199.591 4.52531V63.4053ZM234.801 63.4053C234.091 64.8853 233.041 66.0953 231.671 67.0253C230.291 67.9553 228.741 68.4153 227.011 68.4153H213.931C212.201 68.4153 210.641 67.9553 209.271 67.0253C207.891 66.0953 206.861 64.8853 206.181 63.4053V4.52531C207.021 2.70531 208.331 1.33531 210.121 0.445312H230.861C232.621 1.34531 233.941 2.70531 234.801 4.52531V63.4053ZM257.861 38.2553H253.551V68.4153H241.391V0.445312H266.211C267.911 1.37531 269.181 2.71531 270.011 4.48531V33.2053C269.331 34.7253 268.291 35.9453 266.901 36.8753C265.511 37.8053 263.941 38.2653 262.211 38.2653H257.851L257.861 38.2553ZM293.071 38.2553H288.761V68.4153H276.601V0.445312H301.421C303.121 1.37531 304.391 2.71531 305.221 4.48531V33.2053C304.541 34.7253 303.501 35.9453 302.111 36.8753C300.721 37.8053 299.151 38.2653 297.421 38.2653H293.061L293.071 38.2553Z" fill="white"/>
</svg>
