<svg width="9" height="9" viewBox="0 0 9 9" fill="none" xmlns="http://www.w3.org/2000/svg">
<path d="M5.93872 0.475795C5.19271 -0.0909377 4.13213 -0.125354 3.26927 0.234876C2.40642 0.597402 1.71434 1.30639 1.20427 2.10487C0.417817 3.3324 0.00661524 4.88576 0.426806 6.28767C0.49871 6.53318 0.595332 6.76722 0.714423 6.99208C0.833515 7.21923 0.975076 7.43032 1.13461 7.62535C1.2964 7.82267 1.47391 8.00164 1.67165 8.15996C1.86714 8.32057 2.07611 8.45824 2.29856 8.57526C2.52327 8.69457 2.75471 8.78635 2.99514 8.85518C3.23782 8.92631 3.48274 8.9699 3.7344 8.98826C3.98382 9.00891 4.23324 9.00203 4.48266 8.9699C4.73208 8.93778 4.97475 8.88042 5.21294 8.80011C6.38363 8.39629 7.3094 7.3982 7.7925 6.2372C8.27786 5.0739 8.34976 3.76376 8.16775 2.51787C8.00822 1.45094 7.50039 0.248643 6.46677 0.0237857" fill="#231F20"/>
</svg>
