<svg width="32" height="48" viewBox="0 0 32 48" fill="none" xmlns="http://www.w3.org/2000/svg">
<path d="M31.9887 1.84905V46.7908L30.6503 46.9319C29.9759 47.0051 28.2192 47.0156 26.8651 47.0156C25.0927 47.0156 22.9021 46.9842 22.1388 46.9319L20.7481 46.8326V43.5179C18.2333 36.7003 12.064 16.6344 11.9699 16.3887L12.8901 46.8901H0.452148L2.43886 11.6153L1.6494 11.5056V0.327637L3.99688 0.536766C6.55347 0.766807 8.9689 0.975936 11.4262 1.12755C11.6248 1.13278 11.813 1.17984 11.9804 1.25303C14.0403 1.44125 14.8297 1.62946 16.9733 1.79154L18.2803 1.89087L18.3535 3.19793C18.3849 3.76257 18.3745 5.8068 18.3588 7.85626C18.3588 8.1595 18.3588 8.42614 18.3588 8.61958C18.913 11.0507 22.2224 21.8888 22.2381 21.9672L20.7533 1.89087L22.0917 1.74971C22.7714 1.67652 24.4967 1.66606 25.8247 1.66606C27.5709 1.66606 29.8399 1.6922 30.6085 1.74971L31.9992 1.84905H31.9887Z" fill="white"/>
</svg>
