<svg width="40" height="20" viewBox="0 0 40 20" fill="none" xmlns="http://www.w3.org/2000/svg">
<path d="M7.06121 9.8046C8.99243 11.6897 11.7941 12.4983 14.494 12.4616C17.1981 12.4263 19.8311 11.6222 22.3533 10.6574C24.7394 9.74552 27.0814 8.67203 29.1433 7.16507C31.6388 5.34272 33.6574 2.937 36.0912 1.03924C36.4639 0.750316 36.8748 0.460233 37.349 0.428096C38.2606 0.367815 38.9307 1.27934 39.2503 2.13754C40.2715 4.87528 39.6047 8.05143 37.9962 10.4953C36.3864 12.9364 33.9392 14.7208 31.3365 16.06C26.9334 18.3263 21.8943 19.4564 16.9684 18.9304C12.041 18.4016 7.25973 16.1688 3.94706 12.4915C3.24661 13.1248 2.24312 13.7943 1.45 13.2852C0.949901 12.9634 0.798998 12.2691 0.954306 11.6957C1.11245 11.1209 1.50621 10.6454 1.91383 10.2123C3.35753 8.68843 5.02542 7.48441 6.92186 6.58757C7.31531 6.98642 7.56819 7.4579 7.68757 8.00204C7.80412 8.54757 7.76792 9.08357 7.57334 9.60576" fill="#231F20"/>
</svg>
