<svg width="79" height="15" viewBox="0 0 79 15" fill="none" xmlns="http://www.w3.org/2000/svg">
<path d="M76.2784 14.8418C76.1628 14.8418 76.0472 14.8322 75.9339 14.8106C64.8167 12.7285 53.6117 11.4414 42.3257 10.9467C31.0374 10.452 19.77 10.757 8.52098 11.8592C6.4797 12.0705 4.44074 12.2987 2.40409 12.5364C2.1498 12.5676 1.90244 12.546 1.65508 12.474C1.41004 12.4019 1.18811 12.2819 0.989299 12.1186C0.788176 11.9529 0.626354 11.756 0.50152 11.5254C0.378997 11.2925 0.300398 11.0451 0.272656 10.7834C0.242604 10.5192 0.26341 10.2599 0.332762 10.0053C0.402114 9.75076 0.51539 9.52022 0.674901 9.3113C0.8321 9.10478 1.02397 8.93427 1.2459 8.807C1.46783 8.67732 1.70594 8.59807 1.96023 8.56686C3.94603 8.32191 5.93875 8.09858 7.93611 7.90166C18.0107 6.84503 28.1524 6.10299 38.3009 5.68514C33.1411 5.27449 28.0437 5.05116 23.1359 4.83743C22.8816 4.82542 22.6388 4.76299 22.4077 4.65252C22.1742 4.54206 21.973 4.38836 21.7997 4.19145C21.6286 3.99693 21.4968 3.776 21.409 3.52625C21.3211 3.2765 21.2841 3.01955 21.2934 2.75539C21.305 2.49123 21.3651 2.23908 21.4714 1.99654C21.5801 1.75639 21.728 1.54747 21.9153 1.36736C22.1025 1.18966 22.3175 1.05278 22.5556 0.961521C22.796 0.872668 23.0434 0.831843 23.2977 0.843851C31.7633 1.21367 41.3571 1.63632 50.7104 3.06277C54.571 3.65113 58.2005 4.38836 61.6242 5.2793C63.4019 5.2913 65.175 5.31292 66.9481 5.34413C70.751 5.41137 74.7064 5.71155 77.6284 8.45879C77.818 8.6389 77.9659 8.84542 78.0746 9.08556C78.1832 9.32571 78.2457 9.57786 78.2572 9.84202C78.2688 10.1086 78.2318 10.3655 78.1463 10.6153C78.0607 10.8626 77.9313 11.086 77.7602 11.2829C77.7186 11.3309 77.6747 11.3765 77.6284 11.4198C77.9058 11.7055 78.0838 12.0465 78.1624 12.4428C78.241 12.839 78.2064 13.2256 78.0584 13.6003C77.9105 13.9773 77.6747 14.2775 77.3487 14.5032C77.0251 14.7289 76.669 14.8418 76.2784 14.8418Z" fill="#E9B018"/>
</svg>
