<svg width="33" height="47" viewBox="0 0 33 47" fill="none" xmlns="http://www.w3.org/2000/svg">
<path d="M30.829 1.39898C28.5076 1.31533 14.1039 0.593834 11.3382 0.452672L10.3396 0.400391L9.91089 1.30487C8.4679 4.3686 7.004 7.43234 5.54533 10.4961C4.75587 12.1482 3.97164 13.8003 3.18741 15.4524C2.88417 16.0955 2.58093 16.7386 2.2777 17.3816C1.92218 18.1293 1.56666 18.8769 1.21115 19.6245L0.986328 20.1003L1.10657 20.6127C1.25819 21.2505 1.41504 21.8883 1.56143 22.5262C1.72351 23.1849 1.88035 23.8385 2.03197 24.5024C2.62799 27.0068 3.224 29.5163 3.81479 32.0258C4.78724 36.1614 5.77015 40.2917 6.75828 44.4167L7.02492 45.5199L8.15944 45.5617C10.4808 45.6453 24.8845 46.3668 27.645 46.508L28.9939 46.5812L29.1978 45.2428C29.3755 44.0821 30.0761 38.0435 30.1598 36.9613L30.2748 35.4399L28.7534 35.3562C26.4425 35.2307 24.1212 35.1157 21.7946 35.0059C19.8497 34.9118 17.9048 34.8177 15.9704 34.7132C15.594 33.1238 15.2175 31.5292 14.8359 29.9293C14.5274 28.638 14.2189 27.3466 13.9157 26.0552C18.825 26.28 23.6872 26.531 28.6436 26.7924L30.1127 26.8656L30.212 25.3965C30.3375 23.5352 31.1165 12.9847 31.3622 11.1548L31.4563 10.3915C31.8642 7.02977 32.2458 3.80395 32.2772 2.94653L32.3295 1.45126L30.8342 1.39898H30.829ZM22.7775 18.5266C21.2143 18.4482 19.6354 18.375 18.0617 18.3018C16.8278 18.2443 15.5887 18.192 14.3496 18.1293C14.5535 17.6953 14.7574 17.2666 14.9561 16.8379C15.7194 15.2119 16.488 13.5912 17.2565 11.9704C18.412 12.0227 19.5779 12.0802 20.7385 12.143C21.5959 12.1848 22.4534 12.2266 23.3056 12.2684C23.133 14.3859 22.9605 16.4406 22.7775 18.5214V18.5266Z" fill="white"/>
</svg>
