<svg width="16" height="7" viewBox="0 0 16 7" fill="none" xmlns="http://www.w3.org/2000/svg">
<mask id="path-1-inside-1_254_2468" fill="white">
<path d="M1.8282 2.15238C5.5182 3.43238 9.20821 4.70238 12.8982 5.98238L14.4682 6.52238C14.9882 6.70238 15.3982 6.31238 15.3382 5.79238C15.2682 5.19238 14.7582 4.63238 14.1982 4.44238C10.5082 3.16238 6.81819 1.89238 3.12819 0.612377L1.55821 0.0723766C1.03821 -0.107623 0.628215 0.282376 0.688215 0.802376C0.758215 1.40238 1.2682 1.96238 1.8282 2.15238Z"/>
</mask>
<path d="M1.8282 2.15238C5.5182 3.43238 9.20821 4.70238 12.8982 5.98238L14.4682 6.52238C14.9882 6.70238 15.3982 6.31238 15.3382 5.79238C15.2682 5.19238 14.7582 4.63238 14.1982 4.44238C10.5082 3.16238 6.81819 1.89238 3.12819 0.612377L1.55821 0.0723766C1.03821 -0.107623 0.628215 0.282376 0.688215 0.802376C0.758215 1.40238 1.2682 1.96238 1.8282 2.15238Z" fill="#FFEA30"/>
<path d="M1.8282 2.15238L3.79456 -3.51626L3.77529 -3.52294L3.75598 -3.52949L1.8282 2.15238ZM12.8982 5.98238L10.9319 11.651L10.9393 11.6536L10.9467 11.6562L12.8982 5.98238ZM14.4682 6.52238L16.4309 0.85245L16.4197 0.848603L14.4682 6.52238ZM15.3382 5.79238L21.2987 5.10463L21.2978 5.09709L15.3382 5.79238ZM14.1982 4.44238L12.2318 10.111L12.2511 10.1177L12.2704 10.1242L14.1982 4.44238ZM3.12819 0.612377L5.09454 -5.05626L5.08713 -5.05883L5.0797 -5.06138L3.12819 0.612377ZM1.55821 0.0723766L-0.404457 5.7423L-0.393307 5.74614L1.55821 0.0723766ZM0.688215 0.802376L-5.27224 1.49012L-5.27136 1.49766L0.688215 0.802376ZM1.8282 2.15238L-0.138157 7.82102C1.71085 8.4624 3.55928 9.10109 5.40371 9.73839C7.24928 10.3761 9.09085 11.0124 10.9319 11.651L12.8982 5.98238L14.8646 0.31374C13.0156 -0.327649 11.1671 -0.966333 9.3227 -1.60364C7.47712 -2.24133 5.63555 -2.87765 3.79456 -3.51626L1.8282 2.15238ZM12.8982 5.98238L10.9467 11.6562L12.5167 12.1962L14.4682 6.52238L16.4197 0.848603L14.8497 0.308602L12.8982 5.98238ZM14.4682 6.52238L12.5056 12.1923C14.6286 12.9272 17.1578 12.6101 19.0718 10.9353C20.8877 9.34635 21.5273 7.08575 21.2987 5.10463L15.3382 5.79238L9.37776 6.48012C9.20916 5.019 9.6737 3.21341 11.1697 1.90443C12.7636 0.509705 14.8278 0.297563 16.4309 0.852461L14.4682 6.52238ZM15.3382 5.79238L21.2978 5.09709C20.9245 1.89754 18.5804 -0.406731 16.126 -1.2395L14.1982 4.44238L12.2704 10.1242C11.4314 9.83958 10.8262 9.36593 10.4116 8.886C9.99854 8.40788 9.50969 7.61102 9.37863 6.48766L15.3382 5.79238ZM14.1982 4.44238L16.1646 -1.22626C14.3155 -1.86765 12.4671 -2.50633 10.6227 -3.14364C8.77711 -3.78133 6.93554 -4.41765 5.09454 -5.05626L3.12819 0.612377L1.16183 6.28101C3.01083 6.9224 4.85927 7.56109 6.7037 8.19839C8.54927 8.83609 10.3908 9.4724 12.2318 10.111L14.1982 4.44238ZM3.12819 0.612377L5.0797 -5.06138L3.50973 -5.60139L1.55821 0.0723766L-0.393307 5.74614L1.17667 6.28614L3.12819 0.612377ZM1.55821 0.0723766L3.52087 -5.59754C1.39784 -6.33244 -1.13137 -6.0153 -3.04533 -4.34057C-4.86129 -2.75159 -5.50083 -0.490999 -5.27224 1.49012L0.688215 0.802376L6.64867 0.114631C6.81726 1.57575 6.35272 3.38134 4.85676 4.69032C3.26279 6.08505 1.19859 6.29719 -0.404453 5.74229L1.55821 0.0723766ZM0.688215 0.802376L-5.27136 1.49766C-4.8981 4.69705 -2.55422 7.00143 -0.0995789 7.83425L1.8282 2.15238L3.75598 -3.52949C4.59504 -3.24481 5.20028 -2.77113 5.6149 -2.29116C6.02796 -1.81301 6.51675 -1.01617 6.64779 0.107092L0.688215 0.802376Z" fill="#FFEA30" mask="url(#path-1-inside-1_254_2468)"/>
</svg>
