<svg width="33" height="44" viewBox="0 0 33 44" fill="none" xmlns="http://www.w3.org/2000/svg">
<path d="M32.2972 25.0097L32.1979 26.6566C32.156 27.3467 31.9835 31.8169 31.9835 32.5331C31.9835 35.074 31.9835 39.4814 31.9364 40.3702L31.8737 41.7766L30.4673 41.8498C27.9525 41.9857 12.6182 42.9686 10.1871 43.1359L9.01073 43.2196L3.34335 27.1637L1.11091 20.8376L0.666504 19.5776L1.2207 18.0928C1.92128 16.2054 2.62708 14.2971 3.33812 12.3731C4.4831 9.28848 5.64377 6.18292 6.78874 3.12965L7.13381 2.1938L8.1324 2.12583C10.2917 1.97421 25.9292 0.923341 28.4231 0.792636L29.9079 0.708984L30.0491 2.1938C30.117 2.87346 30.1223 5.26276 30.1066 8.64541C30.1066 9.03753 30.1066 9.34599 30.1066 9.51329C30.1066 11.2491 30.1798 12.9587 30.2582 14.7729C30.3 15.6774 30.3366 16.5818 30.368 17.4915L30.4203 19.0966H22.1701L22.1126 17.6066C22.0656 16.5139 22.029 15.4159 21.9976 14.318C21.9819 13.8423 21.9662 13.3717 21.9506 12.8959C19.7913 13.0476 17.5955 13.1992 15.4153 13.3247C14.9291 14.6631 14.4376 15.9963 13.9462 17.319C13.8102 17.6798 13.6795 18.0301 13.5488 18.3856C13.392 18.8091 13.2351 19.2273 13.0835 19.6508C13.1881 19.9436 13.2926 20.2364 13.392 20.5291C13.8782 21.8937 14.3644 23.2635 14.8402 24.6281C15.5774 26.7141 16.3355 28.8681 17.0936 30.9856C19.3312 30.8496 21.5846 30.7032 23.8013 30.5464C23.8223 30.0497 23.8379 29.553 23.8536 29.0511C23.885 28.1989 23.9111 27.3467 23.953 26.4841L24.0157 24.9993H32.3076L32.2972 25.0097Z" fill="white"/>
</svg>
