<svg width="39" height="39" viewBox="0 0 39 39" fill="none" xmlns="http://www.w3.org/2000/svg">
<path d="M16.3134 38.8417C16.0728 38.8417 15.8506 38.7792 15.6444 38.6495C15.4405 38.5222 15.2847 38.3508 15.177 38.1331C9.46765 26.5941 4.51895 14.7309 0.328593 2.54581C0.273607 2.38602 0.250696 2.21929 0.262152 2.05025C0.271316 1.88121 0.312555 1.71911 0.388161 1.56627C0.461475 1.41344 0.55999 1.27913 0.685999 1.16566C0.812008 1.05219 0.954053 0.968828 1.11443 0.913252C1.27251 0.857676 1.43747 0.834519 1.60472 0.843782C1.77196 0.853044 1.93234 0.894727 2.08355 0.968828C2.23705 1.04293 2.36764 1.14482 2.4799 1.27218C2.59216 1.39954 2.67464 1.54312 2.73192 1.7029C6.72754 13.323 11.4196 24.649 16.8082 35.6785C23.1224 31.4408 29.6542 27.5806 36.406 24.1001C36.5572 24.0214 36.7153 23.9751 36.8848 23.9612C37.0521 23.9473 37.217 23.9658 37.3774 24.0191C37.5378 24.0724 37.6844 24.1534 37.8127 24.2646C37.941 24.3757 38.0441 24.5054 38.1197 24.6582C38.1976 24.8111 38.2411 24.9708 38.2549 25.1422C38.2686 25.3112 38.2503 25.478 38.1976 25.6401C38.1449 25.8022 38.0624 25.9504 37.9548 26.08C37.8448 26.2097 37.7142 26.3116 37.563 26.3903C30.4721 30.0468 23.6264 34.1247 17.0259 38.6241C16.8105 38.77 16.5722 38.8441 16.3134 38.8417Z" fill="black"/>
</svg>
