<svg width="6" height="9" viewBox="0 0 6 9" fill="none" xmlns="http://www.w3.org/2000/svg">
<path d="M3.4229 0.556495C3.02291 0.341977 2.5045 0.482754 2.16037 0.782186C1.81849 1.08162 1.61961 1.50842 1.44755 1.92852C1.15035 2.65698 0.913488 3.40556 0.741427 4.17425C0.524674 5.13288 0.410712 6.15184 0.707908 7.08812C1.0051 8.02664 1.79614 8.86013 2.77488 8.94951C3.76479 9.03889 4.69884 8.34841 5.16586 7.47246C5.63288 6.59428 5.71556 5.56638 5.71333 4.57424C5.71333 3.43014 5.5949 2.23912 5.00274 1.26038C4.84632 0.998938 4.64968 0.750902 4.38153 0.60789C3.7782 0.283878 3.04303 0.57884 2.42405 0.873803" fill="#231F20"/>
</svg>
